  0
SECTION
  2
HEADER
  9
$ACADVER
  1
AC1006
  9
$EXTMIN
 10
0.000000
 20
0.000000
 30
0.000000
  9
$EXTMAX
 10
360.000000
 20
328.000000
 30
0.000000
  0
ENDSEC
  0
SECTION
  2
ENTITIES
  0
POLYLINE
  8
0
 66
1
 70
1
  0
VERTEX
  8
0
 10
274.641242
 20
323.750000
 42
-0.046279
  0
VERTEX
  8
0
 10
272.667914
 20
320.098850
 42
-0.028326
  0
VERTEX
  8
0
 10
269.724244
 20
316.183131
 42
-0.028104
  0
VERTEX
  8
0
 10
266.305929
 20
312.568229
 42
-0.040807
  0
VERTEX
  8
0
 10
262.881271
 20
309.823780
 42
-0.043786
  0
VERTEX
  8
0
 10
260.701359
 20
308.614432
 42
-0.015955
  0
VERTEX
  8
0
 10
257.428350
 20
307.280224
 42
-0.015245
  0
VERTEX
  8
0
 10
253.627783
 20
306.000984
 42
-0.014691
  0
VERTEX
  8
0
 10
249.709375
 20
304.938377
 42
-0.020846
  0
VERTEX
  8
0
 10
243.545171
 20
303.728899
 42
-0.021945
  0
VERTEX
  8
0
 10
237.406323
 20
303.062201
 42
-0.012289
  0
VERTEX
  8
0
 10
228.806046
 20
302.720427
 42
-0.002120
  0
VERTEX
  8
0
 10
212.500000
 20
302.542653
 42
0.000000
  0
VERTEX
  8
0
 10
184.500000
 20
302.356111
 42
0.000000
  0
VERTEX
  8
0
 10
171.389082
 20
297.803394
 42
0.015885
  0
VERTEX
  8
0
 10
161.272668
 20
293.926238
 42
0.023600
  0
VERTEX
  8
0
 10
152.710370
 20
289.843416
 42
0.026880
  0
VERTEX
  8
0
 10
145.540246
 20
285.487866
 42
0.036938
  0
VERTEX
  8
0
 10
139.646301
 20
280.784919
 42
0.040017
  0
VERTEX
  8
0
 10
135.651379
 20
276.440253
 42
0.026965
  0
VERTEX
  8
0
 10
131.792296
 20
270.913753
 42
0.025263
  0
VERTEX
  8
0
 10
128.806314
 20
265.514134
 42
0.114149
  0
VERTEX
  8
0
 10
128.000000
 20
262.028298
 42
0.000000
  0
VERTEX
  8
0
 10
128.000000
 20
259.438939
 42
0.000000
  0
VERTEX
  8
0
 10
114.554996
 20
259.831702
 42
0.008472
  0
VERTEX
  8
0
 10
108.870201
 20
259.901402
 42
0.008153
  0
VERTEX
  8
0
 10
103.112960
 20
259.780543
 42
0.008290
  0
VERTEX
  8
0
 10
98.007360
 20
259.505217
 42
0.025496
  0
VERTEX
  8
0
 10
94.573245
 20
259.086139
 42
-0.012174
  0
VERTEX
  8
0
 10
90.546013
 20
258.485447
 42
-0.060774
  0
VERTEX
  8
0
 10
88.266160
 20
258.480158
 42
-0.069117
  0
VERTEX
  8
0
 10
86.187828
 20
259.026575
 42
-0.018481
  0
VERTEX
  8
0
 10
83.075416
 20
260.461784
 42
0.024353
  0
VERTEX
  8
0
 10
76.725109
 20
263.300150
 42
0.019488
  0
VERTEX
  8
0
 10
69.641844
 20
265.747419
 42
0.019687
  0
VERTEX
  8
0
 10
62.981590
 20
267.478753
 42
0.053790
  0
VERTEX
  8
0
 10
58.150408
 20
268.000000
 42
0.082160
  0
VERTEX
  8
0
 10
53.373172
 20
267.209667
 42
0.113360
  0
VERTEX
  8
0
 10
49.687773
 20
264.931530
 42
0.069375
  0
VERTEX
  8
0
 10
46.197200
 20
260.366992
 42
0.015654
  0
VERTEX
  8
0
 10
41.649163
 20
251.695030
 42
0.013926
  0
VERTEX
  8
0
 10
38.239670
 20
244.138750
 42
0.023661
  0
VERTEX
  8
0
 10
35.870724
 20
237.622707
 42
0.028368
  0
VERTEX
  8
0
 10
34.460514
 20
231.974363
 42
0.047021
  0
VERTEX
  8
0
 10
34.000000
 20
227.088284
 42
-0.073718
  0
VERTEX
  8
0
 10
33.797291
 20
225.720855
 42
-0.032833
  0
VERTEX
  8
0
 10
33.154153
 20
224.012116
 42
-0.030795
  0
VERTEX
  8
0
 10
32.200019
 20
222.211153
 42
-0.030693
  0
VERTEX
  8
0
 10
31.030945
 20
220.538939
 42
0.042533
  0
VERTEX
  8
0
 10
25.249273
 20
211.837877
 42
0.020264
  0
VERTEX
  8
0
 10
19.266430
 20
199.791059
 42
0.019622
  0
VERTEX
  8
0
 10
13.882030
 20
186.356703
 42
0.023021
  0
VERTEX
  8
0
 10
9.880850
 20
173.232420
 42
0.022486
  0
VERTEX
  8
0
 10
7.483986
 20
161.699917
 42
0.022219
  0
VERTEX
  8
0
 10
6.120856
 20
149.952802
 42
0.021450
  0
VERTEX
  8
0
 10
5.832515
 20
139.729971
 42
0.101915
  0
VERTEX
  8
0
 10
7.090386
 20
134.046853
 42
0.101585
  0
VERTEX
  8
0
 10
11.193039
 20
128.341537
 42
0.017921
  0
VERTEX
  8
0
 10
21.258186
 20
119.706725
 42
0.020143
  0
VERTEX
  8
0
 10
33.100026
 20
111.019244
 42
0.027057
  0
VERTEX
  8
0
 10
44.521197
 20
104.195434
 42
-0.087840
  0
VERTEX
  8
0
 10
45.933031
 20
103.100410
 42
-0.129268
  0
VERTEX
  8
0
 10
46.652461
 20
101.714350
 42
-0.050864
  0
VERTEX
  8
0
 10
46.944061
 20
99.296374
 42
-0.004590
  0
VERTEX
  8
0
 10
47.000171
 20
93.195434
 42
0.020367
  0
VERTEX
  8
0
 10
47.324989
 20
85.228179
 42
0.020363
  0
VERTEX
  8
0
 10
48.297008
 20
77.313190
 42
0.020770
  0
VERTEX
  8
0
 10
49.882696
 20
69.665658
 42
0.023590
  0
VERTEX
  8
0
 10
52.045652
 20
62.500000
 42
0.011761
  0
VERTEX
  8
0
 10
54.665681
 20
55.619637
 42
0.003165
  0
VERTEX
  8
0
 10
59.148233
 20
44.828210
 42
0.000750
  0
VERTEX
  8
0
 10
64.090550
 20
33.188052
 42
0.109776
  0
VERTEX
  8
0
 10
64.941763
 20
32.000000
 42
-0.075028
  0
VERTEX
  8
0
 10
65.770092
 20
30.997598
 42
-0.017133
  0
VERTEX
  8
0
 10
66.840620
 20
29.068207
 42
-0.015611
  0
VERTEX
  8
0
 10
67.777632
 20
27.083431
 42
-0.102825
  0
VERTEX
  8
0
 10
68.000000
 20
26.013569
 42
-0.229304
  0
VERTEX
  8
0
 10
67.812067
 20
25.625324
 42
-0.073825
  0
VERTEX
  8
0
 10
67.242285
 20
25.297736
 42
-0.056239
  0
VERTEX
  8
0
 10
66.408368
 20
25.074069
 42
-0.037439
  0
VERTEX
  8
0
 10
65.420545
 20
25.000000
 42
-0.035780
  0
VERTEX
  8
0
 10
63.950737
 20
25.105314
 42
-0.222427
  0
VERTEX
  8
0
 10
63.335481
 20
25.509101
 42
-0.165148
  0
VERTEX
  8
0
 10
63.148559
 20
26.326016
 42
-0.018302
  0
VERTEX
  8
0
 10
63.417729
 20
28.250000
 42
0.002094
  0
VERTEX
  8
0
 10
63.778015
 20
30.331235
 42
0.674267
  0
VERTEX
  8
0
 10
63.673723
 20
30.395396
 42
0.142388
  0
VERTEX
  8
0
 10
63.479114
 20
30.140967
 42
0.000986
  0
VERTEX
  8
0
 10
62.484635
 20
27.562549
 42
0.037866
  0
VERTEX
  8
0
 10
61.614196
 20
24.650374
 42
0.171892
  0
VERTEX
  8
0
 10
61.832846
 20
22.920212
 42
0.312448
  0
VERTEX
  8
0
 10
62.929743
 20
22.322459
 42
0.096467
  0
VERTEX
  8
0
 10
64.826899
 20
22.907359
 42
-0.013123
  0
VERTEX
  8
0
 10
66.782513
 20
23.888848
 42
-0.267966
  0
VERTEX
  8
0
 10
67.416902
 20
23.834973
 42
-0.325244
  0
VERTEX
  8
0
 10
67.607164
 20
23.285852
 42
-0.016991
  0
VERTEX
  8
0
 10
66.968095
 20
21.416084
 42
0.024020
  0
VERTEX
  8
0
 10
66.626985
 20
20.370283
 42
0.029418
  0
VERTEX
  8
0
 10
66.414280
 20
19.364657
 42
0.030258
  0
VERTEX
  8
0
 10
66.338846
 20
18.520521
 42
0.146587
  0
VERTEX
  8
0
 10
66.462312
 20
18.060981
 42
0.289926
  0
VERTEX
  8
0
 10
66.907766
 20
17.844238
 42
0.017623
  0
VERTEX
  8
0
 10
68.442154
 20
18.071082
 42
0.021875
  0
VERTEX
  8
0
 10
70.354491
 20
18.510302
 42
0.014020
  0
VERTEX
  8
0
 10
72.532906
 20
19.178309
 42
-0.042185
  0
VERTEX
  8
0
 10
76.610959
 20
20.181739
 42
-0.042730
  0
VERTEX
  8
0
 10
80.781915
 20
20.480619
 42
-0.046493
  0
VERTEX
  8
0
 10
84.082822
 20
20.126763
 42
-0.356858
  0
VERTEX
  8
0
 10
85.000000
 20
19.005340
 42
0.429349
  0
VERTEX
  8
0
 10
86.395440
 20
17.679840
 42
0.031045
  0
VERTEX
  8
0
 10
92.279233
 20
18.350331
 42
0.033977
  0
VERTEX
  8
0
 10
99.137649
 20
20.053889
 42
0.043038
  0
VERTEX
  8
0
 10
105.156611
 20
22.580329
 42
0.072540
  0
VERTEX
  8
0
 10
108.890325
 20
25.292714
 42
0.026589
  0
VERTEX
  8
0
 10
113.321700
 20
30.101830
 42
0.024505
  0
VERTEX
  8
0
 10
117.889593
 20
36.206645
 42
0.020652
  0
VERTEX
  8
0
 10
122.123709
 20
43.080563
 42
-0.000112
  0
VERTEX
  8
0
 10
123.870213
 20
46.195552
 42
-0.000101
  0
VERTEX
  8
0
 10
125.679709
 20
49.419680
 42
-0.000101
  0
VERTEX
  8
0
 10
127.302979
 20
52.309267
 42
-0.000320
  0
VERTEX
  8
0
 10
128.390721
 20
54.241751
 42
-0.045492
  0
VERTEX
  8
0
 10
130.141041
 20
56.777090
 42
-0.177271
  0
VERTEX
  8
0
 10
131.763836
 20
57.716490
 42
-0.113279
  0
VERTEX
  8
0
 10
134.047789
 20
57.598192
 42
-0.013788
  0
VERTEX
  8
0
 10
138.866665
 20
56.081526
 42
-0.021100
  0
VERTEX
  8
0
 10
141.570057
 20
55.018372
 42
-0.052288
  0
VERTEX
  8
0
 10
143.413215
 20
53.959711
 42
-0.066459
  0
VERTEX
  8
0
 10
144.724582
 20
52.716894
 42
-0.057184
  0
VERTEX
  8
0
 10
145.742760
 20
51.111709
 42
0.031005
  0
VERTEX
  8
0
 10
146.587235
 20
49.612600
 42
0.011612
  0
VERTEX
  8
0
 10
147.946755
 20
47.617797
 42
0.011453
  0
VERTEX
  8
0
 10
149.532260
 20
45.507532
 42
0.013634
  0
VERTEX
  8
0
 10
151.126096
 20
43.594088
 42
-0.021374
  0
VERTEX
  8
0
 10
152.842104
 20
41.467907
 42
-0.037559
  0
VERTEX
  8
0
 10
154.043923
 20
39.556168
 42
-0.046157
  0
VERTEX
  8
0
 10
154.762211
 20
37.827884
 42
-0.075553
  0
VERTEX
  8
0
 10
155.000000
 20
36.263217
 42
0.033160
  0
VERTEX
  8
0
 10
155.164290
 20
33.788724
 42
0.209556
  0
VERTEX
  8
0
 10
155.804723
 20
32.734063
 42
0.255799
  0
VERTEX
  8
0
 10
156.914279
 20
32.610306
 42
0.047601
  0
VERTEX
  8
0
 10
158.793918
 20
33.600626
 42
-0.103839
  0
VERTEX
  8
0
 10
161.501444
 20
34.660455
 42
-0.178751
  0
VERTEX
  8
0
 10
163.851131
 20
34.214415
 42
-0.168488
  0
VERTEX
  8
0
 10
165.440674
 20
32.310279
 42
-0.091098
  0
VERTEX
  8
0
 10
165.993839
 20
29.271439
 42
-0.032222
  0
VERTEX
  8
0
 10
165.884735
 20
27.622136
 42
-0.022380
  0
VERTEX
  8
0
 10
165.559062
 20
25.782641
 42
-0.022649
  0
VERTEX
  8
0
 10
165.084995
 20
24.037655
 42
-0.042578
  0
VERTEX
  8
0
 10
164.522399
 20
22.690742
 42
0.025922
  0
VERTEX
  8
0
 10
163.940766
 20
21.418955
 42
0.017519
  0
VERTEX
  8
0
 10
163.405718
 20
19.916298
 42
0.017678
  0
VERTEX
  8
0
 10
162.989810
 20
18.423288
 42
0.033305
  0
VERTEX
  8
0
 10
162.778560
 20
17.190742
 42
0.062759
  0
VERTEX
  8
0
 10
162.814380
 20
15.577249
 42
0.260906
  0
VERTEX
  8
0
 10
163.388226
 20
14.834771
 42
0.093650
  0
VERTEX
  8
0
 10
164.782843
 20
14.529309
 42
0.005286
  0
VERTEX
  8
0
 10
169.222810
 20
14.448064
 42
-0.011498
  0
VERTEX
  8
0
 10
173.445894
 20
14.318286
 42
-0.078575
  0
VERTEX
  8
0
 10
175.476045
 20
13.884419
 42
-0.099401
  0
VERTEX
  8
0
 10
177.062000
 20
12.877859
 42
-0.023581
  0
VERTEX
  8
0
 10
179.229743
 20
10.596959
 42
0.000000
  0
VERTEX
  8
0
 10
182.513865
 20
6.797789
 42
0.000000
  0
VERTEX
  8
0
 10
187.405872
 20
9.398895
 42
-0.015519
  0
VERTEX
  8
0
 10
191.282260
 20
11.308131
 42
-0.095059
  0
VERTEX
  8
0
 10
193.439354
 20
11.829315
 42
-0.116952
  0
VERTEX
  8
0
 10
195.428450
 20
11.456410
 42
-0.028727
  0
VERTEX
  8
0
 10
198.407442
 20
9.922109
 42
0.000000
  0
VERTEX
  8
0
 10
201.929204
 20
7.844219
 42
0.000000
  0
VERTEX
  8
0
 10
205.303618
 20
10.418009
 42
-0.022310
  0
VERTEX
  8
0
 10
206.844160
 20
11.487835
 42
-0.015044
  0
VERTEX
  8
0
 10
208.688774
 20
12.574313
 42
-0.015173
  0
VERTEX
  8
0
 10
210.540126
 20
13.519081
 42
-0.028925
  0
VERTEX
  8
0
 10
212.089016
 20
14.144357
 42
0.081630
  0
VERTEX
  8
0
 10
218.692010
 20
17.655722
 42
0.028030
  0
VERTEX
  8
0
 10
226.946168
 20
24.717379
 42
0.028453
  0
VERTEX
  8
0
 10
234.685272
 20
33.021966
 42
0.051091
  0
VERTEX
  8
0
 10
239.872871
 20
40.750000
 42
-0.068747
  0
VERTEX
  8
0
 10
240.671729
 20
41.854056
 42
-0.100522
  0
VERTEX
  8
0
 10
241.654400
 20
42.536165
 42
-0.076100
  0
VERTEX
  8
0
 10
243.028339
 20
42.893588
 42
-0.025655
  0
VERTEX
  8
0
 10
245.100925
 20
43.000000
 42
-0.037909
  0
VERTEX
  8
0
 10
248.212643
 20
42.763738
 42
-0.062443
  0
VERTEX
  8
0
 10
250.747549
 20
42.044999
 42
-0.085829
  0
VERTEX
  8
0
 10
252.422732
 20
40.965938
 42
-0.209828
  0
VERTEX
  8
0
 10
253.000000
 20
39.650926
 42
0.121116
  0
VERTEX
  8
0
 10
253.196078
 20
38.853337
 42
0.007938
  0
VERTEX
  8
0
 10
254.338700
 20
36.751761
 42
0.011149
  0
VERTEX
  8
0
 10
255.811577
 20
34.273126
 42
0.008076
  0
VERTEX
  8
0
 10
257.557275
 20
31.577060
 42
-0.014943
  0
VERTEX
  8
0
 10
259.339448
 20
28.740010
 42
-0.021065
  0
VERTEX
  8
0
 10
260.741848
 20
26.103630
 42
-0.020985
  0
VERTEX
  8
0
 10
261.691355
 20
23.887455
 42
-0.123426
  0
VERTEX
  8
0
 10
261.838129
 20
22.640950
 42
0.062450
  0
VERTEX
  8
0
 10
261.829911
 20
20.397802
 42
0.205516
  0
VERTEX
  8
0
 10
262.557695
 20
19.145537
 42
0.173785
  0
VERTEX
  8
0
 10
264.073268
 20
18.685316
 42
0.043153
  0
VERTEX
  8
0
 10
266.683402
 20
19.041364
 42
-0.043724
  0
VERTEX
  8
0
 10
269.875967
 20
19.473154
 42
-0.051357
  0
VERTEX
  8
0
 10
272.923248
 20
19.303600
 42
-0.058449
  0
VERTEX
  8
0
 10
275.459287
 20
18.588136
 42
-0.122186
  0
VERTEX
  8
0
 10
277.100018
 20
17.379485
 42
0.180901
  0
VERTEX
  8
0
 10
278.876623
 20
16.361935
 42
0.036545
  0
VERTEX
  8
0
 10
282.562381
 20
16.032467
 42
0.038652
  0
VERTEX
  8
0
 10
286.392147
 20
16.267028
 42
0.105340
  0
VERTEX
  8
0
 10
288.931117
 20
17.189055
 42
-0.073529
  0
VERTEX
  8
0
 10
290.081636
 20
17.691094
 42
-0.091585
  0
VERTEX
  8
0
 10
291.242293
 20
17.786479
 42
-0.062649
  0
VERTEX
  8
0
 10
292.676790
 20
17.456954
 42
-0.018177
  0
VERTEX
  8
0
 10
294.782617
 20
16.598026
 42
0.023010
  0
VERTEX
  8
0
 10
297.357071
 20
15.576852
 42
0.104320
  0
VERTEX
  8
0
 10
298.950416
 20
15.378711
 42
0.077111
  0
VERTEX
  8
0
 10
300.712356
 20
15.806314
 42
0.009249
  0
VERTEX
  8
0
 10
304.394704
 20
17.408971
 42
-0.003942
  0
VERTEX
  8
0
 10
306.617267
 20
18.404481
 42
-0.005625
  0
VERTEX
  8
0
 10
308.606911
 20
19.250342
 42
-0.003233
  0
VERTEX
  8
0
 10
310.293581
 20
19.932377
 42
-0.081106
  0
VERTEX
  8
0
 10
310.779635
 20
20.039000
 42
0.218554
  0
VERTEX
  8
0
 10
311.759769
 20
20.554797
 42
0.005686
  0
VERTEX
  8
0
 10
314.807951
 20
24.609281
 42
0.012196
  0
VERTEX
  8
0
 10
317.989862
 20
29.172644
 42
0.012938
  0
VERTEX
  8
0
 10
320.880905
 20
33.798015
 42
0.075868
  0
VERTEX
  8
0
 10
327.746526
 20
50.922258
 42
0.056880
  0
VERTEX
  8
0
 10
330.105619
 20
71.128315
 42
0.054824
  0
VERTEX
  8
0
 10
327.849302
 20
92.144689
 42
0.058627
  0
VERTEX
  8
0
 10
321.082494
 20
111.670242
 42
-0.017331
  0
VERTEX
  8
0
 10
320.050913
 20
114.004849
 42
-0.021007
  0
VERTEX
  8
0
 10
319.254084
 20
116.261758
 42
-0.020133
  0
VERTEX
  8
0
 10
318.748034
 20
118.186258
 42
-0.118715
  0
VERTEX
  8
0
 10
318.768177
 20
119.221508
 42
-0.113294
  0
VERTEX
  8
0
 10
319.189279
 20
120.027606
 42
-0.037249
  0
VERTEX
  8
0
 10
320.137743
 20
120.983506
 42
-0.034890
  0
VERTEX
  8
0
 10
321.384028
 20
121.921314
 42
-0.033080
  0
VERTEX
  8
0
 10
322.770362
 20
122.695319
 42
0.070082
  0
VERTEX
  8
0
 10
327.120578
 20
125.564144
 42
0.018387
  0
VERTEX
  8
0
 10
333.191072
 20
131.330465
 42
0.018770
  0
VERTEX
  8
0
 10
338.851629
 20
137.569964
 42
0.062183
  0
VERTEX
  8
0
 10
341.861763
 20
142.214440
 42
0.055111
  0
VERTEX
  8
0
 10
345.519475
 20
152.530698
 42
0.029888
  0
VERTEX
  8
0
 10
347.810596
 20
165.809268
 42
0.029621
  0
VERTEX
  8
0
 10
348.525946
 20
179.586322
 42
0.045129
  0
VERTEX
  8
0
 10
347.360119
 20
191.500000
 42
0.012627
  0
VERTEX
  8
0
 10
345.894392
 20
198.277079
 42
0.008910
  0
VERTEX
  8
0
 10
343.920607
 20
205.815897
 42
0.007514
  0
VERTEX
  8
0
 10
341.890894
 20
212.644622
 42
0.048129
  0
VERTEX
  8
0
 10
340.487066
 20
215.963821
 42
-0.009688
  0
VERTEX
  8
0
 10
339.757061
 20
217.376588
 42
-0.002177
  0
VERTEX
  8
0
 10
338.571347
 20
219.811247
 42
-0.002256
  0
VERTEX
  8
0
 10
337.227429
 20
222.634060
 42
-0.002183
  0
VERTEX
  8
0
 10
335.894063
 20
225.500000
 42
0.012883
  0
VERTEX
  8
0
 10
334.221044
 20
228.903626
 42
0.005124
  0
VERTEX
  8
0
 10
331.758653
 20
233.488405
 42
0.005067
  0
VERTEX
  8
0
 10
328.999438
 20
238.383795
 42
0.006347
  0
VERTEX
  8
0
 10
326.337226
 20
242.864782
 42
-0.003680
  0
VERTEX
  8
0
 10
323.908588
 20
246.903408
 42
-0.005578
  0
VERTEX
  8
0
 10
321.861560
 20
250.454707
 42
-0.002328
  0
VERTEX
  8
0
 10
320.163333
 20
253.511592
 42
-0.126273
  0
VERTEX
  8
0
 10
320.000000
 20
254.148025
 42
0.094509
  0
VERTEX
  8
0
 10
319.889142
 20
254.729283
 42
0.006783
  0
VERTEX
  8
0
 10
319.261630
 20
256.253792
 42
0.009334
  0
VERTEX
  8
0
 10
318.449177
 20
258.059928
 42
0.006911
  0
VERTEX
  8
0
 10
317.486400
 20
260.026839
 42
-0.025092
  0
VERTEX
  8
0
 10
316.383690
 20
262.503758
 42
-0.010367
  0
VERTEX
  8
0
 10
315.132129
 20
265.954439
 42
-0.010226
  0
VERTEX
  8
0
 10
313.940269
 20
269.717127
 42
-0.012965
  0
VERTEX
  8
0
 10
313.001597
 20
273.240305
 42
-0.008626
  0
VERTEX
  8
0
 10
311.873895
 20
278.350422
 42
-0.043964
  0
VERTEX
  8
0
 10
311.548624
 20
281.240484
 42
-0.051917
  0
VERTEX
  8
0
 10
311.762603
 20
283.925169
 42
-0.014997
  0
VERTEX
  8
0
 10
312.644339
 20
287.996710
 42
-0.018102
  0
VERTEX
  8
0
 10
313.480589
 20
290.910800
 42
-0.010873
  0
VERTEX
  8
0
 10
314.672117
 20
294.307248
 42
-0.010882
  0
VERTEX
  8
0
 10
316.006013
 20
297.638105
 42
-0.018616
  0
VERTEX
  8
0
 10
317.281026
 20
300.347113
 42
0.026117
  0
VERTEX
  8
0
 10
319.361981
 20
304.946245
 42
0.276822
  0
VERTEX
  8
0
 10
319.032947
 20
306.892966
 42
0.226337
  0
VERTEX
  8
0
 10
317.058157
 20
307.770282
 42
0.018404
  0
VERTEX
  8
0
 10
311.250000
 20
307.398588
 42
-0.015964
  0
VERTEX
  8
0
 10
306.606829
 20
307.078694
 42
-0.274378
  0
VERTEX
  8
0
 10
305.321083
 20
307.778955
 42
-0.192247
  0
VERTEX
  8
0
 10
305.060506
 20
309.428795
 42
-0.007898
  0
VERTEX
  8
0
 10
306.508558
 20
315.371546
 42
0.014625
  0
VERTEX
  8
0
 10
307.455096
 20
319.496593
 42
0.101131
  0
VERTEX
  8
0
 10
307.444215
 20
321.561401
 42
0.233466
  0
VERTEX
  8
0
 10
306.620036
 20
322.611234
 42
0.112095
  0
VERTEX
  8
0
 10
304.907739
 20
323.000000
 42
0.099603
  0
VERTEX
  8
0
 10
302.368822
 20
322.489163
 42
0.016009
  0
VERTEX
  8
0
 10
297.751363
 20
320.376421
 42
0.018458
  0
VERTEX
  8
0
 10
293.176262
 20
317.888628
 42
0.051879
  0
VERTEX
  8
0
 10
290.253943
 20
315.719080
 42
-0.015991
  0
VERTEX
  8
0
 10
289.370651
 20
314.959389
 42
-0.026882
  0
VERTEX
  8
0
 10
288.577357
 20
314.387548
 42
-0.025883
  0
VERTEX
  8
0
 10
287.937956
 20
314.022238
 42
-0.366995
  0
VERTEX
  8
0
 10
287.700455
 20
314.079390
 42
-0.047967
  0
VERTEX
  8
0
 10
287.514169
 20
314.393491
 42
-0.001782
  0
VERTEX
  8
0
 10
286.932554
 20
315.642212
 42
-0.003220
  0
VERTEX
  8
0
 10
286.258727
 20
317.127555
 42
-0.002256
  0
VERTEX
  8
0
 10
285.518036
 20
318.808992
 42
0.052397
  0
VERTEX
  8
0
 10
283.861447
 20
321.735305
 42
0.044707
  0
VERTEX
  8
0
 10
281.551600
 20
324.427142
 42
0.046876
  0
VERTEX
  8
0
 10
279.106661
 20
326.398552
 42
0.147276
  0
VERTEX
  8
0
 10
277.109050
 20
327.000000
 42
0.194658
  0
VERTEX
  8
0
 10
276.602887
 20
326.795182
 42
0.038103
  0
VERTEX
  8
0
 10
275.937720
 20
326.045313
 42
0.035326
  0
VERTEX
  8
0
 10
275.251010
 20
324.994470
 42
0.026305
  0
SEQEND
  0
POLYLINE
  8
0
 66
1
 70
1
  0
VERTEX
  8
0
 10
280.721351
 20
322.750000
 42
-0.054702
  0
VERTEX
  8
0
 10
281.635743
 20
321.507553
 42
-0.018348
  0
VERTEX
  8
0
 10
282.694548
 20
319.515158
 42
-0.018007
  0
VERTEX
  8
0
 10
283.713457
 20
317.207346
 42
-0.019640
  0
VERTEX
  8
0
 10
284.531840
 20
314.897346
 42
-0.009536
  0
VERTEX
  8
0
 10
285.593889
 20
311.233423
 42
-0.083653
  0
VERTEX
  8
0
 10
285.755528
 20
309.557394
 42
-0.110441
  0
VERTEX
  8
0
 10
285.322445
 20
308.110146
 42
-0.021742
  0
VERTEX
  8
0
 10
283.886175
 20
305.789633
 42
-0.051849
  0
VERTEX
  8
0
 10
280.161540
 20
301.379384
 42
-0.043834
  0
VERTEX
  8
0
 10
275.405496
 20
297.547006
 42
-0.040999
  0
VERTEX
  8
0
 10
269.726056
 20
294.379863
 42
-0.034121
  0
VERTEX
  8
0
 10
263.250000
 20
291.953126
 42
0.015941
  0
VERTEX
  8
0
 10
261.621434
 20
291.409471
 42
0.024203
  0
VERTEX
  8
0
 10
260.248438
 20
290.824980
 42
0.021131
  0
VERTEX
  8
0
 10
259.212119
 20
290.268061
 42
0.264796
  0
VERTEX
  8
0
 10
259.000000
 20
289.895612
 42
0.490693
  0
VERTEX
  8
0
 10
259.636600
 20
289.403126
 42
0.009084
  0
VERTEX
  8
0
 10
264.335246
 20
290.713986
 42
0.017594
  0
VERTEX
  8
0
 10
269.262520
 20
292.376532
 42
0.027632
  0
VERTEX
  8
0
 10
273.349413
 20
294.181351
 42
0.045138
  0
VERTEX
  8
0
 10
277.640475
 20
296.879532
 42
0.031949
  0
VERTEX
  8
0
 10
281.938287
 20
300.614258
 42
0.032302
  0
VERTEX
  8
0
 10
285.647693
 20
304.784963
 42
0.052925
  0
VERTEX
  8
0
 10
288.142889
 20
308.795169
 42
-0.036729
  0
VERTEX
  8
0
 10
290.062645
 20
312.115174
 42
-0.037201
  0
VERTEX
  8
0
 10
292.440177
 20
315.103499
 42
-0.038474
  0
VERTEX
  8
0
 10
294.821366
 20
317.310549
 42
-0.162030
  0
VERTEX
  8
0
 10
296.627555
 20
317.968399
 42
0.097086
  0
VERTEX
  8
0
 10
297.147958
 20
318.085637
 42
0.039549
  0
VERTEX
  8
0
 10
297.789577
 20
318.431342
 42
0.037224
  0
VERTEX
  8
0
 10
298.440377
 20
318.923699
 42
0.039016
  0
VERTEX
  8
0
 10
299.000000
 20
319.500000
 42
-0.088821
  0
VERTEX
  8
0
 10
299.681803
 20
320.075318
 42
-0.043229
  0
VERTEX
  8
0
 10
300.717214
 20
320.559375
 42
-0.041055
  0
VERTEX
  8
0
 10
301.914140
 20
320.889146
 42
-0.046729
  0
VERTEX
  8
0
 10
303.097694
 20
321.000000
 42
-0.019216
  0
VERTEX
  8
0
 10
304.829834
 20
320.933407
 42
-0.234349
  0
VERTEX
  8
0
 10
305.383719
 20
320.603464
 42
-0.222861
  0
VERTEX
  8
0
 10
305.472045
 20
319.951254
 42
-0.017401
  0
VERTEX
  8
0
 10
304.872650
 20
318.250000
 42
0.020181
  0
VERTEX
  8
0
 10
303.303810
 20
313.716960
 42
0.010615
  0
VERTEX
  8
0
 10
301.704301
 20
307.973324
 42
0.004270
  0
VERTEX
  8
0
 10
300.283648
 20
302.213762
 42
0.199294
  0
VERTEX
  8
0
 10
300.472517
 20
301.044468
 42
-0.163167
  0
VERTEX
  8
0
 10
300.598285
 20
300.507550
 42
-0.021160
  0
VERTEX
  8
0
 10
300.436727
 20
299.324374
 42
-0.022854
  0
VERTEX
  8
0
 10
300.111302
 20
297.894116
 42
-0.017255
  0
VERTEX
  8
0
 10
299.629030
 20
296.356479
 42
0.040065
  0
VERTEX
  8
0
 10
298.123641
 20
290.659703
 42
0.015478
  0
VERTEX
  8
0
 10
296.923494
 20
282.571489
 42
0.015571
  0
VERTEX
  8
0
 10
296.222677
 20
274.367237
 42
0.036813
  0
VERTEX
  8
0
 10
296.342349
 20
268.236792
 42
0.021980
  0
VERTEX
  8
0
 10
296.979989
 20
263.613867
 42
0.015613
  0
VERTEX
  8
0
 10
298.082451
 20
258.497749
 42
0.011026
  0
VERTEX
  8
0
 10
299.866307
 20
251.937969
 42
0.003764
  0
VERTEX
  8
0
 10
302.735193
 20
242.500000
 42
0.007407
  0
VERTEX
  8
0
 10
303.388263
 20
240.512267
 42
0.009061
  0
VERTEX
  8
0
 10
304.059701
 20
238.675000
 42
0.007791
  0
VERTEX
  8
0
 10
304.674021
 20
237.154973
 42
0.061954
  0
VERTEX
  8
0
 10
305.052007
 20
236.500000
 42
-0.071955
  0
VERTEX
  8
0
 10
305.488768
 20
235.707123
 42
-0.001661
  0
VERTEX
  8
0
 10
306.988129
 20
231.681250
 42
-0.003666
  0
VERTEX
  8
0
 10
308.697639
 20
226.937185
 42
-0.002473
  0
VERTEX
  8
0
 10
310.581815
 20
221.500000
 42
-0.005550
  0
VERTEX
  8
0
 10
313.500070
 20
212.620747
 42
-0.030815
  0
VERTEX
  8
0
 10
314.716722
 20
207.751032
 42
-0.035482
  0
VERTEX
  8
0
 10
315.245536
 20
203.061278
 42
-0.008856
  0
VERTEX
  8
0
 10
315.427943
 20
195.346715
 42
0.004736
  0
VERTEX
  8
0
 10
315.551471
 20
187.326529
 42
0.059867
  0
VERTEX
  8
0
 10
315.985821
 20
184.340831
 42
0.747089
  0
VERTEX
  8
0
 10
316.617039
 20
184.326013
 42
0.031014
  0
VERTEX
  8
0
 10
317.484830
 20
187.738955
 42
0.064597
  0
VERTEX
  8
0
 10
318.048956
 20
197.460056
 42
0.036410
  0
VERTEX
  8
0
 10
316.352732
 20
209.171404
 42
0.031026
  0
VERTEX
  8
0
 10
312.516146
 20
222.581416
 42
0.020348
  0
VERTEX
  8
0
 10
306.533622
 20
237.500000
 42
-0.032476
  0
VERTEX
  8
0
 10
304.491675
 20
242.972329
 42
-0.007346
  0
VERTEX
  8
0
 10
301.772592
 20
252.517378
 42
-0.007355
  0
VERTEX
  8
0
 10
299.334974
 20
262.139494
 42
-0.032327
  0
VERTEX
  8
0
 10
298.351471
 20
267.911405
 42
-0.051539
  0
VERTEX
  8
0
 10
298.341182
 20
276.819084
 42
-0.019440
  0
VERTEX
  8
0
 10
300.090788
 20
289.171334
 42
-0.012859
  0
VERTEX
  8
0
 10
302.585775
 20
301.153099
 42
-0.199122
  0
VERTEX
  8
0
 10
304.992845
 20
304.495578
 42
-0.091741
  0
VERTEX
  8
0
 10
305.590963
 20
304.727981
 42
-0.006018
  0
VERTEX
  8
0
 10
307.424480
 20
305.053293
 42
-0.008569
  0
VERTEX
  8
0
 10
309.634422
 20
305.379216
 42
-0.006286
  0
VERTEX
  8
0
 10
312.095370
 20
305.667757
 42
0.000000
  0
VERTEX
  8
0
 10
318.360880
 20
306.322632
 42
0.000000
  0
VERTEX
  8
0
 10
314.736792
 20
299.729413
 42
0.063808
  0
VERTEX
  8
0
 10
310.480572
 20
288.921180
 42
0.082467
  0
VERTEX
  8
0
 10
309.596526
 20
278.312408
 42
0.067446
  0
VERTEX
  8
0
 10
312.206102
 20
266.425807
 42
0.029020
  0
VERTEX
  8
0
 10
318.672442
 20
251.500000
 42
0.006600
  0
VERTEX
  8
0
 10
320.144163
 20
248.673410
 42
0.007205
  0
VERTEX
  8
0
 10
321.648732
 20
245.968750
 42
0.006804
  0
VERTEX
  8
0
 10
323.000065
 20
243.692114
 42
0.035126
  0
VERTEX
  8
0
 10
323.850236
 20
242.500000
 42
-0.014626
  0
VERTEX
  8
0
 10
324.580664
 20
241.559785
 42
-0.008176
  0
VERTEX
  8
0
 10
325.416465
 20
240.376273
 42
-0.008151
  0
VERTEX
  8
0
 10
326.223010
 20
239.151180
 42
-0.013113
  0
VERTEX
  8
0
 10
326.865388
 20
238.078803
 42
-0.002752
  0
VERTEX
  8
0
 10
330.271464
 20
231.960454
 42
-0.008739
  0
VERTEX
  8
0
 10
332.454773
 20
227.817314
 42
-0.010920
  0
VERTEX
  8
0
 10
334.220652
 20
224.120919
 42
-0.006654
  0
VERTEX
  8
0
 10
336.151977
 20
219.683709
 42
-0.019217
  0
VERTEX
  8
0
 10
340.988499
 20
206.787025
 42
-0.023681
  0
VERTEX
  8
0
 10
344.451751
 20
194.418186
 42
-0.026206
  0
VERTEX
  8
0
 10
346.384937
 20
183.371936
 42
-0.053852
  0
VERTEX
  8
0
 10
346.501172
 20
174.601719
 42
-0.014096
  0
VERTEX
  8
0
 10
345.692916
 20
168.038818
 42
-0.009621
  0
VERTEX
  8
0
 10
344.421605
 20
160.631408
 42
-0.009535
  0
VERTEX
  8
0
 10
342.959827
 20
153.714944
 42
-0.026082
  0
VERTEX
  8
0
 10
341.581857
 20
148.913952
 42
-0.052878
  0
VERTEX
  8
0
 10
339.850958
 20
145.211531
 42
-0.035724
  0
VERTEX
  8
0
 10
337.161655
 20
141.399480
 42
-0.032474
  0
VERTEX
  8
0
 10
333.645243
 20
137.630411
 42
-0.026301
  0
VERTEX
  8
0
 10
329.423405
 20
134.055974
 42
-0.033395
  0
VERTEX
  8
0
 10
325.587048
 20
131.524970
 42
-0.024063
  0
VERTEX
  8
0
 10
321.009113
 20
129.209260
 42
-0.023509
  0
VERTEX
  8
0
 10
316.624369
 20
127.492507
 42
-0.081724
  0
VERTEX
  8
0
 10
313.631270
 20
127.000000
 42
-0.193928
  0
VERTEX
  8
0
 10
312.928452
 20
127.283245
 42
-0.016987
  0
VERTEX
  8
0
 10
311.563579
 20
128.689063
 42
-0.020316
  0
VERTEX
  8
0
 10
310.010960
 20
130.547340
 42
-0.014372
  0
VERTEX
  8
0
 10
308.416218
 20
132.750000
 42
0.032920
  0
VERTEX
  8
0
 10
304.144129
 20
138.212315
 42
0.009330
  0
VERTEX
  8
0
 10
296.799449
 20
146.124665
 42
0.003673
  0
VERTEX
  8
0
 10
288.906797
 20
154.195854
 42
0.199910
  0
VERTEX
  8
0
 10
286.975901
 20
155.000000
 42
-0.101559
  0
VERTEX
  8
0
 10
286.603495
 20
155.076431
 42
-0.098503
  0
VERTEX
  8
0
 10
286.286671
 20
155.293750
 42
-0.097331
  0
VERTEX
  8
0
 10
286.074413
 20
155.618325
 42
-0.096573
  0
VERTEX
  8
0
 10
286.000000
 20
156.000000
 42
-0.095200
  0
VERTEX
  8
0
 10
286.073340
 20
156.381697
 42
-0.096960
  0
VERTEX
  8
0
 10
286.282731
 20
156.706250
 42
-0.098795
  0
VERTEX
  8
0
 10
286.595219
 20
156.923521
 42
-0.103014
  0
VERTEX
  8
0
 10
286.962487
 20
157.000000
 42
0.072956
  0
VERTEX
  8
0
 10
287.588411
 20
157.091819
 42
0.004773
  0
VERTEX
  8
0
 10
289.341179
 20
157.635653
 42
0.006850
  0
VERTEX
  8
0
 10
291.423105
 20
158.335065
 42
0.005056
  0
VERTEX
  8
0
 10
293.708583
 20
159.163925
 42
0.030687
  0
VERTEX
  8
0
 10
296.607353
 20
160.456277
 42
0.026263
  0
VERTEX
  8
0
 10
299.486646
 20
162.155888
 42
0.024491
  0
VERTEX
  8
0
 10
302.363106
 20
164.274083
 42
0.019520
  0
VERTEX
  8
0
 10
305.253490
 20
166.823198
 42
0.008110
  0
VERTEX
  8
0
 10
307.427539
 20
168.965301
 42
0.013498
  0
VERTEX
  8
0
 10
309.179368
 20
170.847326
 42
0.007111
  0
VERTEX
  8
0
 10
310.544497
 20
172.440805
 42
0.387733
  0
VERTEX
  8
0
 10
310.527847
 20
172.805486
 42
0.356543
  0
VERTEX
  8
0
 10
310.164534
 20
172.842091
 42
0.011740
  0
VERTEX
  8
0
 10
308.882562
 20
171.949815
 42
0.017583
  0
VERTEX
  8
0
 10
307.344233
 20
170.739329
 42
0.010715
  0
VERTEX
  8
0
 10
305.610666
 20
169.208773
 42
-0.033795
  0
VERTEX
  8
0
 10
301.481961
 20
165.889480
 42
-0.027992
  0
VERTEX
  8
0
 10
296.682299
 20
162.922860
 42
-0.028502
  0
VERTEX
  8
0
 10
291.703002
 20
160.574713
 42
-0.040685
  0
VERTEX
  8
0
 10
287.040144
 20
159.120355
 42
-0.056130
  0
VERTEX
  8
0
 10
284.285423
 20
158.819253
 42
-0.097439
  0
VERTEX
  8
0
 10
282.037092
 20
159.269245
 42
-0.043547
  0
VERTEX
  8
0
 10
279.092317
 20
160.797984
 42
-0.004056
  0
VERTEX
  8
0
 10
272.212558
 20
165.246521
 42
-0.022107
  0
VERTEX
  8
0
 10
260.049063
 20
174.046533
 42
-0.011991
  0
VERTEX
  8
0
 10
245.862353
 20
185.862993
 42
-0.011549
  0
VERTEX
  8
0
 10
232.835202
 20
197.795580
 42
-0.037656
  0
VERTEX
  8
0
 10
225.032125
 20
206.500000
 42
-0.035582
  0
VERTEX
  8
0
 10
222.759064
 20
209.936054
 42
-0.046047
  0
VERTEX
  8
0
 10
221.214152
 20
213.383713
 42
-0.025252
  0
VERTEX
  8
0
 10
219.780257
 20
218.393748
 42
-0.003884
  0
VERTEX
  8
0
 10
217.515089
 20
228.500000
 42
0.004117
  0
VERTEX
  8
0
 10
214.263126
 20
242.977248
 42
0.014844
  0
VERTEX
  8
0
 10
211.842205
 20
252.118976
 42
0.021986
  0
VERTEX
  8
0
 10
209.756331
 20
258.158825
 42
0.083663
  0
VERTEX
  8
0
 10
207.700816
 20
261.561433
 42
0.048765
  0
VERTEX
  8
0
 10
206.269891
 20
262.929592
 42
0.088798
  0
VERTEX
  8
0
 10
204.846270
 20
263.685999
 42
0.062954
  0
VERTEX
  8
0
 10
202.930317
 20
264.045586
 42
0.014946
  0
VERTEX
  8
0
 10
199.677020
 20
264.142857
 42
-0.012320
  0
VERTEX
  8
0
 10
195.475999
 20
264.246383
 42
-0.391914
  0
VERTEX
  8
0
 10
194.814547
 20
264.922427
 42
-0.196533
  0
VERTEX
  8
0
 10
195.262243
 20
266.109452
 42
-0.004475
  0
VERTEX
  8
0
 10
199.500000
 20
270.588442
 42
-0.052066
  0
VERTEX
  8
0
 10
204.865592
 20
275.108525
 42
-0.050254
  0
VERTEX
  8
0
 10
211.111156
 20
278.485020
 42
-0.036817
  0
VERTEX
  8
0
 10
219.466939
 20
281.268814
 42
-0.013172
  0
VERTEX
  8
0
 10
231.727516
 20
284.031762
 42
0.014450
  0
VERTEX
  8
0
 10
234.077237
 20
284.567588
 42
0.025886
  0
VERTEX
  8
0
 10
235.965131
 20
285.161653
 42
0.026339
  0
VERTEX
  8
0
 10
237.291198
 20
285.736881
 42
0.441310
  0
VERTEX
  8
0
 10
237.408417
 20
286.148184
 42
0.087372
  0
VERTEX
  8
0
 10
237.140238
 20
286.449138
 42
0.094416
  0
VERTEX
  8
0
 10
236.792127
 20
286.630521
 42
0.100137
  0
VERTEX
  8
0
 10
236.418946
 20
286.665125
 42
0.112073
  0
VERTEX
  8
0
 10
236.077993
 20
286.548202
 42
-0.085869
  0
VERTEX
  8
0
 10
235.495041
 20
286.313837
 42
-0.003796
  0
VERTEX
  8
0
 10
233.351531
 20
285.871850
 42
-0.006320
  0
VERTEX
  8
0
 10
230.787953
 20
285.397101
 42
-0.004464
  0
VERTEX
  8
0
 10
227.897091
 20
284.925980
 42
0.020391
  0
VERTEX
  8
0
 10
219.067468
 20
283.196731
 42
0.029838
  0
VERTEX
  8
0
 10
211.489113
 20
280.903567
 42
0.034483
  0
VERTEX
  8
0
 10
205.262202
 20
278.104610
 42
0.057668
  0
VERTEX
  8
0
 10
200.549997
 20
274.835095
 42
0.016135
  0
VERTEX
  8
0
 10
198.570983
 20
272.976406
 42
0.012583
  0
VERTEX
  8
0
 10
196.539881
 20
270.836465
 42
0.012771
  0
VERTEX
  8
0
 10
194.747506
 20
268.745275
 42
0.030001
  0
VERTEX
  8
0
 10
193.547709
 20
267.075577
 42
-0.046201
  0
VERTEX
  8
0
 10
192.028687
 20
265.099775
 42
-0.067884
  0
VERTEX
  8
0
 10
190.337935
 20
263.711525
 42
-0.048096
  0
VERTEX
  8
0
 10
187.931121
 20
262.531673
 42
-0.012801
  0
VERTEX
  8
0
 10
183.890219
 20
261.129168
 42
0.007432
  0
VERTEX
  8
0
 10
180.661673
 20
260.047309
 42
0.005246
  0
VERTEX
  8
0
 10
177.065780
 20
258.740050
 42
0.005295
  0
VERTEX
  8
0
 10
173.653532
 20
257.417464
 42
0.011106
  0
VERTEX
  8
0
 10
171.035839
 20
256.302770
 42
-0.027060
  0
VERTEX
  8
0
 10
167.160135
 20
254.796497
 42
-0.079243
  0
VERTEX
  8
0
 10
164.338523
 20
254.345726
 42
-0.042475
  0
VERTEX
  8
0
 10
160.676248
 20
254.656426
 42
-0.003724
  0
VERTEX
  8
0
 10
151.500000
 20
256.297630
 42
0.005673
  0
VERTEX
  8
0
 10
147.945189
 20
256.919138
 42
0.003802
  0
VERTEX
  8
0
 10
143.867188
 20
257.552737
 42
0.003828
  0
VERTEX
  8
0
 10
139.907101
 20
258.106268
 42
0.007537
  0
VERTEX
  8
0
 10
136.750000
 20
258.474613
 42
-0.010527
  0
VERTEX
  8
0
 10
133.431082
 20
258.881965
 42
-0.043502
  0
VERTEX
  8
0
 10
131.464460
 20
259.342702
 42
-0.086166
  0
VERTEX
  8
0
 10
130.375421
 20
259.922162
 42
-0.231483
  0
VERTEX
  8
0
 10
130.000000
 20
260.689616
 42
-0.120323
  0
VERTEX
  8
0
 10
130.757989
 20
263.793818
 42
-0.019596
  0
VERTEX
  8
0
 10
133.851614
 20
269.219858
 42
-0.022667
  0
VERTEX
  8
0
 10
137.670108
 20
274.769233
 42
-0.037921
  0
VERTEX
  8
0
 10
141.419918
 20
279.011799
 42
-0.008523
  0
VERTEX
  8
0
 10
145.590326
 20
282.929170
 42
-0.029274
  0
VERTEX
  8
0
 10
148.481257
 20
285.260007
 42
-0.029112
  0
VERTEX
  8
0
 10
151.632711
 20
287.243748
 42
-0.008360
  0
VERTEX
  8
0
 10
156.730154
 20
289.942251
 42
-0.035527
  0
VERTEX
  8
0
 10
169.794127
 20
295.452273
 42
-0.039827
  0
VERTEX
  8
0
 10
183.020809
 20
298.808450
 42
-0.031839
  0
VERTEX
  8
0
 10
198.879604
 20
300.483451
 42
-0.013104
  0
VERTEX
  8
0
 10
220.500000
 20
300.815689
 42
0.003360
  0
VERTEX
  8
0
 10
232.163304
 20
300.767620
 42
0.016950
  0
VERTEX
  8
0
 10
238.673312
 20
301.005310
 42
0.026473
  0
VERTEX
  8
0
 10
243.727024
 20
301.631744
 42
0.017986
  0
VERTEX
  8
0
 10
249.394891
 20
302.853020
 42
0.008804
  0
VERTEX
  8
0
 10
253.069348
 20
303.853384
 42
0.008469
  0
VERTEX
  8
0
 10
256.754433
 20
304.994739
 42
0.008426
  0
VERTEX
  8
0
 10
259.967360
 20
306.110136
 42
0.030197
  0
VERTEX
  8
0
 10
261.957955
 20
306.978550
 42
0.051485
  0
VERTEX
  8
0
 10
265.635249
 20
309.359634
 42
0.032645
  0
VERTEX
  8
0
 10
269.399068
 20
312.815485
 42
0.032354
  0
VERTEX
  8
0
 10
272.734069
 20
316.790418
 42
0.045605
  0
VERTEX
  8
0
 10
275.119665
 20
320.750000
 42
-0.013116
  0
VERTEX
  8
0
 10
275.961950
 20
322.378482
 42
-0.019555
  0
VERTEX
  8
0
 10
276.789996
 20
323.751562
 42
-0.015122
  0
VERTEX
  8
0
 10
277.531550
 20
324.808030
 42
-0.236397
  0
VERTEX
  8
0
 10
277.914892
 20
325.000000
 42
-0.150435
  0
VERTEX
  8
0
 10
278.315931
 20
324.876545
 42
-0.019635
  0
VERTEX
  8
0
 10
279.043087
 20
324.339063
 42
-0.021411
  0
VERTEX
  8
0
 10
279.874819
 20
323.611626
 42
-0.016407
  0
SEQEND
  0
POLYLINE
  8
0
 66
1
 70
1
  0
VERTEX
  8
0
 10
74.918762
 20
262.394984
 42
-0.009865
  0
VERTEX
  8
0
 10
77.786220
 20
261.210331
 42
-0.014387
  0
VERTEX
  8
0
 10
80.259393
 20
260.045163
 42
-0.009795
  0
VERTEX
  8
0
 10
82.243890
 20
258.990122
 42
-0.187821
  0
VERTEX
  8
0
 10
82.681798
 20
258.460891
 42
-0.320839
  0
VERTEX
  8
0
 10
82.533259
 20
257.982388
 42
-0.040167
  0
VERTEX
  8
0
 10
81.563908
 20
257.363000
 42
-0.035255
  0
VERTEX
  8
0
 10
80.143923
 20
256.732593
 42
-0.021501
  0
VERTEX
  8
0
 10
78.392767
 20
256.182563
 42
0.022027
  0
VERTEX
  8
0
 10
76.302021
 20
255.523455
 42
0.012531
  0
VERTEX
  8
0
 10
73.833949
 20
254.553397
 42
0.012495
  0
VERTEX
  8
0
 10
71.392883
 20
253.449955
 42
0.020142
  0
VERTEX
  8
0
 10
69.379730
 20
252.376649
 42
0.011656
  0
VERTEX
  8
0
 10
66.556514
 20
250.632476
 42
0.063909
  0
VERTEX
  8
0
 10
65.193691
 20
249.474397
 42
0.697908
  0
VERTEX
  8
0
 10
65.372609
 20
249.130599
 42
0.063734
  0
VERTEX
  8
0
 10
66.750000
 20
249.489631
 42
-0.006502
  0
VERTEX
  8
0
 10
67.493327
 20
249.777324
 42
-0.005644
  0
VERTEX
  8
0
 10
68.279688
 20
250.059911
 42
-0.005686
  0
VERTEX
  8
0
 10
68.997465
 20
250.299632
 42
-0.016561
  0
VERTEX
  8
0
 10
69.500000
 20
250.442963
 42
0.026682
  0
VERTEX
  8
0
 10
70.437929
 20
250.731117
 42
0.006954
  0
VERTEX
  8
0
 10
71.911021
 20
251.294576
 42
0.003653
  0
VERTEX
  8
0
 10
74.319380
 20
252.274830
 42
0.000539
  0
VERTEX
  8
0
 10
79.172951
 20
254.297929
 42
-0.081823
  0
VERTEX
  8
0
 10
91.253725
 20
257.161277
 42
-0.018640
  0
VERTEX
  8
0
 10
112.340979
 20
257.839756
 42
-0.020011
  0
VERTEX
  8
0
 10
135.281849
 20
256.803747
 42
-0.029418
  0
VERTEX
  8
0
 10
155.250000
 20
253.908983
 42
-0.014598
  0
VERTEX
  8
0
 10
158.808038
 20
253.068455
 42
-0.090576
  0
VERTEX
  8
0
 10
160.497036
 20
252.269519
 42
-0.338087
  0
VERTEX
  8
0
 10
160.755685
 20
251.422154
 42
-0.166882
  0
VERTEX
  8
0
 10
160.000000
 20
250.500000
 42
0.053658
  0
VERTEX
  8
0
 10
159.617481
 20
250.202643
 42
0.048978
  0
VERTEX
  8
0
 10
159.293750
 20
249.822112
 42
0.052218
  0
VERTEX
  8
0
 10
159.072617
 20
249.419918
 42
0.099921
  0
VERTEX
  8
0
 10
159.000000
 20
249.060173
 42
0.512633
  0
VERTEX
  8
0
 10
159.272493
 20
248.864239
 42
0.008928
  0
VERTEX
  8
0
 10
161.276563
 20
249.577372
 42
0.014299
  0
VERTEX
  8
0
 10
163.777189
 20
250.600362
 42
0.008083
  0
VERTEX
  8
0
 10
166.750000
 20
251.974859
 42
-0.018987
  0
VERTEX
  8
0
 10
175.015170
 20
255.579712
 42
-0.017110
  0
VERTEX
  8
0
 10
183.819502
 20
258.685111
 42
-0.017650
  0
VERTEX
  8
0
 10
192.443076
 20
261.067810
 42
-0.026240
  0
VERTEX
  8
0
 10
200.145362
 20
262.483799
 42
-0.155496
  0
VERTEX
  8
0
 10
202.867080
 20
261.990834
 42
-0.092865
  0
VERTEX
  8
0
 10
205.463071
 20
259.921863
 42
-0.066308
  0
VERTEX
  8
0
 10
207.831505
 20
256.309030
 42
-0.033384
  0
VERTEX
  8
0
 10
209.862764
 20
251.239771
 42
-0.027290
  0
VERTEX
  8
0
 10
213.126338
 20
238.961921
 42
-0.005228
  0
VERTEX
  8
0
 10
217.591147
 20
216.330352
 42
-0.005842
  0
VERTEX
  8
0
 10
221.975952
 20
191.184946
 42
-0.007544
  0
VERTEX
  8
0
 10
225.382138
 20
168.000000
 42
0.000000
  0
VERTEX
  8
0
 10
226.763229
 20
157.500000
 42
0.000000
  0
VERTEX
  8
0
 10
226.877009
 20
164.500000
 42
0.025848
  0
VERTEX
  8
0
 10
226.678592
 20
170.097510
 42
0.007832
  0
VERTEX
  8
0
 10
225.806480
 20
178.552774
 42
0.006863
  0
VERTEX
  8
0
 10
224.403835
 20
189.103385
 42
0.004080
  0
VERTEX
  8
0
 10
222.458112
 20
201.633397
 42
0.000000
  0
VERTEX
  8
0
 10
221.781675
 20
205.766794
 42
0.000000
  0
VERTEX
  8
0
 10
235.770184
 20
192.133397
 42
0.000000
  0
VERTEX
  8
0
 10
249.758694
 20
178.500000
 42
0.000000
  0
VERTEX
  8
0
 10
245.129347
 20
176.688162
 42
0.018322
  0
VERTEX
  8
0
 10
243.218461
 20
175.858329
 42
0.016520
  0
VERTEX
  8
0
 10
241.305014
 20
174.863700
 42
0.016805
  0
VERTEX
  8
0
 10
239.649740
 20
173.857900
 42
0.049210
  0
VERTEX
  8
0
 10
238.611126
 20
173.021511
 42
0.193572
  0
VERTEX
  8
0
 10
237.773366
 20
171.104917
 42
0.106140
  0
VERTEX
  8
0
 10
238.243843
 20
168.545905
 42
0.024539
  0
VERTEX
  8
0
 10
240.507872
 20
163.766345
 42
0.001144
  0
VERTEX
  8
0
 10
248.993281
 20
148.000000
 42
-0.002443
  0
VERTEX
  8
0
 10
251.044957
 20
144.164041
 42
-0.002837
  0
VERTEX
  8
0
 10
252.958190
 20
140.494270
 42
-0.002525
  0
VERTEX
  8
0
 10
254.543963
 20
137.371362
 42
-0.016892
  0
VERTEX
  8
0
 10
255.271633
 20
135.789003
 42
0.166092
  0
VERTEX
  8
0
 10
257.237141
 20
133.576839
 42
0.070313
  0
VERTEX
  8
0
 10
260.979648
 20
132.104566
 42
0.043974
  0
VERTEX
  8
0
 10
266.763493
 20
131.251054
 42
0.014656
  0
VERTEX
  8
0
 10
275.326715
 20
131.000000
 42
0.017725
  0
VERTEX
  8
0
 10
283.158046
 20
131.277702
 42
0.126360
  0
VERTEX
  8
0
 10
286.727132
 20
132.469494
 42
0.198517
  0
VERTEX
  8
0
 10
288.457332
 20
134.970564
 42
0.055297
  0
VERTEX
  8
0
 10
288.956107
 20
139.806704
 42
0.019883
  0
VERTEX
  8
0
 10
288.839187
 20
142.267851
 42
0.015002
  0
VERTEX
  8
0
 10
288.522503
 20
144.956756
 42
0.015231
  0
VERTEX
  8
0
 10
288.071339
 20
147.468945
 42
0.033599
  0
VERTEX
  8
0
 10
287.541645
 20
149.343956
 42
0.000000
  0
VERTEX
  8
0
 10
286.171075
 20
153.187911
 42
0.000000
  0
VERTEX
  8
0
 10
288.758668
 20
150.843956
 42
-0.011653
  0
VERTEX
  8
0
 10
292.881056
 20
146.931012
 42
-0.009481
  0
VERTEX
  8
0
 10
297.116348
 20
142.556176
 42
-0.009587
  0
VERTEX
  8
0
 10
301.117507
 20
138.094700
 42
-0.013170
  0
VERTEX
  8
0
 10
304.529018
 20
133.923505
 42
-0.027722
  0
VERTEX
  8
0
 10
309.242623
 20
127.089187
 42
-0.010001
  0
VERTEX
  8
0
 10
315.195066
 20
116.891396
 42
-0.009881
  0
VERTEX
  8
0
 10
320.702452
 20
106.530825
 42
-0.030496
  0
VERTEX
  8
0
 10
323.846869
 20
99.253377
 42
-0.067416
  0
VERTEX
  8
0
 10
327.502741
 20
82.288329
 42
-0.048421
  0
VERTEX
  8
0
 10
327.131133
 20
62.880910
 42
-0.048834
  0
VERTEX
  8
0
 10
323.065691
 20
44.129480
 42
-0.073449
  0
VERTEX
  8
0
 10
315.683831
 20
29.144626
 42
-0.016645
  0
VERTEX
  8
0
 10
311.836023
 20
23.951160
 42
-0.077095
  0
VERTEX
  8
0
 10
309.100386
 20
21.423129
 42
-0.179352
  0
VERTEX
  8
0
 10
306.915700
 20
20.895067
 42
-0.186640
  0
VERTEX
  8
0
 10
304.958596
 20
21.930938
 42
0.030777
  0
VERTEX
  8
0
 10
304.203407
 20
22.699693
 42
0.017098
  0
VERTEX
  8
0
 10
303.196768
 20
23.545120
 42
0.017000
  0
VERTEX
  8
0
 10
302.115309
 20
24.334260
 42
0.026253
  0
VERTEX
  8
0
 10
301.125408
 20
24.932883
 42
0.115396
  0
VERTEX
  8
0
 10
299.349015
 20
25.408527
 42
0.130694
  0
VERTEX
  8
0
 10
297.634262
 20
25.010521
 42
0.075626
  0
VERTEX
  8
0
 10
295.669070
 20
23.550561
 42
0.018852
  0
VERTEX
  8
0
 10
292.953076
 20
20.595011
 42
-0.053766
  0
VERTEX
  8
0
 10
291.886143
 20
19.585238
 42
-0.256708
  0
VERTEX
  8
0
 10
291.085478
 20
19.465959
 42
-0.112722
  0
VERTEX
  8
0
 10
290.129846
 20
20.090930
 42
-0.007786
  0
VERTEX
  8
0
 10
287.915288
 20
22.460692
 42
0.026315
  0
VERTEX
  8
0
 10
284.936385
 20
25.420579
 42
0.084955
  0
VERTEX
  8
0
 10
282.580103
 20
26.898097
 42
0.142112
  0
VERTEX
  8
0
 10
280.580761
 20
27.115351
 42
0.138098
  0
VERTEX
  8
0
 10
278.750000
 20
26.234253
 42
0.037187
  0
VERTEX
  8
0
 10
278.080358
 20
25.548401
 42
0.036345
  0
VERTEX
  8
0
 10
277.514062
 20
24.765881
 42
0.038669
  0
VERTEX
  8
0
 10
277.121720
 20
24.005751
 42
0.100129
  0
VERTEX
  8
0
 10
277.000000
 20
23.404029
 42
-0.180643
  0
VERTEX
  8
0
 10
276.480796
 20
22.013822
 42
-0.279816
  0
VERTEX
  8
0
 10
275.296228
 20
21.634034
 42
-0.103071
  0
VERTEX
  8
0
 10
273.270941
 20
22.589564
 42
-0.024620
  0
VERTEX
  8
0
 10
270.397472
 20
24.987742
 42
0.013086
  0
VERTEX
  8
0
 10
268.140030
 20
26.961858
 42
0.050333
  0
VERTEX
  8
0
 10
266.594571
 20
28.000641
 42
0.096698
  0
VERTEX
  8
0
 10
265.467098
 20
28.347448
 42
0.202278
  0
VERTEX
  8
0
 10
264.604439
 20
28.086677
 42
-0.112751
  0
VERTEX
  8
0
 10
263.890065
 20
27.725442
 42
-0.148021
  0
VERTEX
  8
0
 10
263.163980
 20
27.761989
 42
-0.095335
  0
VERTEX
  8
0
 10
262.346410
 20
28.245746
 42
-0.029207
  0
VERTEX
  8
0
 10
261.324349
 20
29.262487
 42
-0.049929
  0
VERTEX
  8
0
 10
257.698817
 20
34.236738
 42
-0.037881
  0
VERTEX
  8
0
 10
254.734522
 20
40.306039
 42
-0.036405
  0
VERTEX
  8
0
 10
252.610277
 20
47.034059
 42
-0.036730
  0
VERTEX
  8
0
 10
251.492208
 20
53.979067
 42
-0.023893
  0
VERTEX
  8
0
 10
251.360269
 20
57.412011
 42
-0.043442
  0
VERTEX
  8
0
 10
251.629721
 20
60.204554
 42
-0.036514
  0
VERTEX
  8
0
 10
252.417563
 20
63.214328
 42
-0.012279
  0
VERTEX
  8
0
 10
253.990335
 20
67.475669
 42
0.006219
  0
VERTEX
  8
0
 10
255.143003
 20
70.485936
 42
0.008165
  0
VERTEX
  8
0
 10
256.115911
 20
73.263461
 42
0.006219
  0
VERTEX
  8
0
 10
256.860424
 20
75.602517
 42
0.074065
  0
VERTEX
  8
0
 10
257.000000
 20
76.539600
 42
-0.042149
  0
VERTEX
  8
0
 10
257.058598
 20
77.233502
 42
-0.020756
  0
VERTEX
  8
0
 10
257.243340
 20
78.100250
 42
-0.020433
  0
VERTEX
  8
0
 10
257.511129
 20
78.989938
 42
-0.027984
  0
VERTEX
  8
0
 10
257.828392
 20
79.763569
 42
-0.008487
  0
VERTEX
  8
0
 10
261.524934
 20
87.185222
 42
-0.018783
  0
VERTEX
  8
0
 10
264.648832
 20
92.683966
 42
-0.022940
  0
VERTEX
  8
0
 10
267.733453
 20
97.192029
 42
-0.022071
  0
VERTEX
  8
0
 10
271.255898
 20
101.459226
 42
0.007343
  0
VERTEX
  8
0
 10
273.455129
 20
103.969087
 42
0.013625
  0
VERTEX
  8
0
 10
275.152679
 20
106.078648
 42
0.009944
  0
VERTEX
  8
0
 10
276.366359
 20
107.741632
 42
0.606715
  0
VERTEX
  8
0
 10
276.231813
 20
108.000000
 42
0.205642
  0
VERTEX
  8
0
 10
274.492426
 20
107.253028
 42
0.007084
  0
VERTEX
  8
0
 10
269.366938
 20
101.699841
 42
0.013941
  0
VERTEX
  8
0
 10
264.497613
 20
95.957581
 42
0.036361
  0
VERTEX
  8
0
 10
261.429986
 20
91.500000
 42
0.000000
  0
VERTEX
  8
0
 10
258.500000
 20
86.500000
 42
0.000000
  0
VERTEX
  8
0
 10
257.500000
 20
97.677765
 42
0.003678
  0
VERTEX
  8
0
 10
256.522613
 20
107.766021
 42
0.190955
  0
VERTEX
  8
0
 10
255.631439
 20
109.472366
 42
0.657706
  0
VERTEX
  8
0
 10
254.899043
 20
109.117293
 42
0.004190
  0
VERTEX
  8
0
 10
255.405667
 20
99.485657
 42
-0.028314
  0
VERTEX
  8
0
 10
255.450667
 20
89.063047
 42
-0.030570
  0
VERTEX
  8
0
 10
254.300928
 20
78.969383
 42
-0.032159
  0
VERTEX
  8
0
 10
252.021982
 20
69.609605
 42
-0.041070
  0
VERTEX
  8
0
 10
248.687352
 20
61.385777
 42
-0.013811
  0
VERTEX
  8
0
 10
241.537306
 20
48.138793
 42
-0.023979
  0
VERTEX
  8
0
 10
234.788305
 20
37.621172
 42
-0.028150
  0
VERTEX
  8
0
 10
227.971247
 20
29.099868
 42
-0.034113
  0
VERTEX
  8
0
 10
220.636308
 20
21.965048
 42
-0.013609
  0
VERTEX
  8
0
 10
214.821233
 20
17.299508
 42
-0.084532
  0
VERTEX
  8
0
 10
211.441838
 20
15.538980
 42
-0.176073
  0
VERTEX
  8
0
 10
208.870026
 20
15.634078
 42
-0.109837
  0
VERTEX
  8
0
 10
206.360712
 20
17.366790
 42
0.031186
  0
VERTEX
  8
0
 10
204.293447
 20
19.334682
 42
0.188686
  0
VERTEX
  8
0
 10
202.917118
 20
19.799104
 42
0.151271
  0
VERTEX
  8
0
 10
201.417321
 20
19.255343
 42
0.018115
  0
VERTEX
  8
0
 10
198.652781
 20
17.000000
 42
-0.010399
  0
VERTEX
  8
0
 10
197.287727
 20
15.850849
 42
-0.014359
  0
VERTEX
  8
0
 10
196.012867
 20
14.881250
 42
-0.010907
  0
VERTEX
  8
0
 10
194.923891
 20
14.136733
 42
-0.145484
  0
VERTEX
  8
0
 10
194.463913
 20
14.000000
 42
-0.181728
  0
VERTEX
  8
0
 10
194.013836
 20
14.169170
 42
-0.010609
  0
VERTEX
  8
0
 10
192.912891
 20
15.175000
 42
-0.014963
  0
VERTEX
  8
0
 10
191.635865
 20
16.467509
 42
-0.010376
  0
VERTEX
  8
0
 10
190.268005
 20
18.000000
 42
0.043487
  0
VERTEX
  8
0
 10
187.403896
 20
20.810393
 42
0.149436
  0
VERTEX
  8
0
 10
185.023984
 20
21.795174
 42
0.165363
  0
VERTEX
  8
0
 10
182.651194
 20
21.234338
 42
0.056444
  0
VERTEX
  8
0
 10
179.846154
 20
19.000000
 42
-0.031619
  0
VERTEX
  8
0
 10
177.474970
 20
16.911142
 42
-0.124532
  0
VERTEX
  8
0
 10
175.704503
 20
16.139164
 42
-0.232919
  0
VERTEX
  8
0
 10
174.413949
 20
16.530319
 42
-0.128576
  0
VERTEX
  8
0
 10
173.513940
 20
17.956080
 42
0.068023
  0
VERTEX
  8
0
 10
173.077639
 20
18.875270
 42
0.024147
  0
VERTEX
  8
0
 10
172.221610
 20
20.056041
 42
0.023442
  0
VERTEX
  8
0
 10
171.144599
 20
21.277954
 42
0.025496
  0
VERTEX
  8
0
 10
169.986330
 20
22.358049
 42
-0.031643
  0
VERTEX
  8
0
 10
168.240490
 20
24.026616
 42
-0.133950
  0
VERTEX
  8
0
 10
167.580646
 20
25.298876
 42
-0.084773
  0
VERTEX
  8
0
 10
167.506669
 20
27.018500
 42
-0.008382
  0
VERTEX
  8
0
 10
168.097801
 20
31.126658
 42
-0.002841
  0
VERTEX
  8
0
 10
168.505070
 20
33.567149
 42
-0.004449
  0
VERTEX
  8
0
 10
168.885967
 20
35.661110
 42
-0.001343
  0
VERTEX
  8
0
 10
169.236675
 20
37.469856
 42
-0.148884
  0
VERTEX
  8
0
 10
169.351044
 20
37.684377
 42
-0.358833
  0
VERTEX
  8
0
 10
169.533788
 20
37.702040
 42
-0.007287
  0
VERTEX
  8
0
 10
170.348107
 20
37.136206
 42
-0.013676
  0
VERTEX
  8
0
 10
171.313653
 20
36.403432
 42
-0.008329
  0
VERTEX
  8
0
 10
172.415304
 20
35.488265
 42
0.037452
  0
VERTEX
  8
0
 10
175.248154
 20
33.401083
 42
0.095883
  0
VERTEX
  8
0
 10
177.614217
 20
32.486269
 42
0.092636
  0
VERTEX
  8
0
 10
180.200625
 20
32.504344
 42
0.033428
  0
VERTEX
  8
0
 10
183.769982
 20
33.448379
 42
0.049378
  0
VERTEX
  8
0
 10
189.347303
 20
35.966327
 42
0.134197
  0
VERTEX
  8
0
 10
192.373765
 20
39.018000
 42
0.056623
  0
VERTEX
  8
0
 10
194.741699
 20
44.598066
 42
0.003708
  0
VERTEX
  8
0
 10
199.607046
 20
61.467928
 42
0.024485
  0
VERTEX
  8
0
 10
200.635423
 20
65.973353
 42
0.045246
  0
VERTEX
  8
0
 10
200.954065
 20
69.712305
 42
0.060475
  0
VERTEX
  8
0
 10
200.610874
 20
72.416934
 42
0.244020
  0
VERTEX
  8
0
 10
199.541241
 20
73.622548
 42
0.166727
  0
VERTEX
  8
0
 10
196.817133
 20
73.720638
 42
0.018376
  0
VERTEX
  8
0
 10
190.825355
 20
71.660468
 42
0.023061
  0
VERTEX
  8
0
 10
184.376902
 20
68.826806
 42
0.030829
  0
VERTEX
  8
0
 10
178.836758
 20
65.641598
 42
0.000000
  0
VERTEX
  8
0
 10
176.173516
 20
63.883672
 42
0.000000
  0
VERTEX
  8
0
 10
178.049253
 20
69.910426
 42
-0.026055
  0
VERTEX
  8
0
 10
179.545235
 20
73.960459
 42
-0.014167
  0
VERTEX
  8
0
 10
181.777487
 20
78.773548
 42
-0.010387
  0
VERTEX
  8
0
 10
184.996883
 20
84.906940
 42
-0.004053
  0
VERTEX
  8
0
 10
189.688264
 20
93.250000
 42
0.109679
  0
VERTEX
  8
0
 10
189.777208
 20
93.535642
 42
0.175290
  0
VERTEX
  8
0
 10
189.711325
 20
93.779687
 42
0.156869
  0
VERTEX
  8
0
 10
189.495508
 20
93.943367
 42
0.084618
  0
VERTEX
  8
0
 10
189.163263
 20
94.000000
 42
0.244133
  0
VERTEX
  8
0
 10
188.032196
 20
93.412736
 42
0.007513
  0
VERTEX
  8
0
 10
184.981353
 20
88.933879
 42
0.015159
  0
VERTEX
  8
0
 10
181.968562
 20
84.048793
 42
0.021704
  0
VERTEX
  8
0
 10
179.623594
 20
79.532577
 42
0.015544
  0
VERTEX
  8
0
 10
178.663936
 20
77.290509
 42
0.003587
  0
VERTEX
  8
0
 10
177.192521
 20
73.453319
 42
0.003702
  0
VERTEX
  8
0
 10
175.561503
 20
69.007080
 42
0.003610
  0
VERTEX
  8
0
 10
173.982556
 20
64.500000
 42
-0.006301
  0
VERTEX
  8
0
 10
171.960227
 20
58.825324
 42
-0.029656
  0
VERTEX
  8
0
 10
170.568195
 20
55.659323
 42
-0.054764
  0
VERTEX
  8
0
 10
169.388333
 20
53.870019
 42
-0.183849
  0
VERTEX
  8
0
 10
168.187468
 20
53.190737
 42
-0.080304
  0
VERTEX
  8
0
 10
164.245644
 20
53.226660
 42
-0.005800
  0
VERTEX
  8
0
 10
153.487146
 20
55.195224
 42
-0.008572
  0
VERTEX
  8
0
 10
142.806372
 20
57.468595
 42
-0.029370
  0
VERTEX
  8
0
 10
136.000000
 20
59.467008
 42
-0.020023
  0
VERTEX
  8
0
 10
128.932865
 20
62.325392
 42
-0.012589
  0
VERTEX
  8
0
 10
120.907695
 20
66.197665
 42
-0.012503
  0
VERTEX
  8
0
 10
113.439166
 20
70.275261
 42
-0.031816
  0
VERTEX
  8
0
 10
108.305246
 20
73.700522
 42
0.010857
  0
VERTEX
  8
0
 10
106.545758
 20
74.984080
 42
0.017527
  0
VERTEX
  8
0
 10
104.988436
 20
75.989965
 42
0.011691
  0
VERTEX
  8
0
 10
103.694950
 20
76.722107
 42
0.330579
  0
VERTEX
  8
0
 10
103.335620
 20
76.668953
 42
0.431250
  0
VERTEX
  8
0
 10
103.364667
 20
75.664402
 42
0.020235
  0
VERTEX
  8
0
 10
106.281665
 20
73.270992
 42
0.018613
  0
VERTEX
  8
0
 10
110.918416
 20
70.034196
 42
0.005907
  0
VERTEX
  8
0
 10
118.060719
 20
65.552400
 42
-0.006665
  0
VERTEX
  8
0
 10
126.329262
 20
60.346402
 42
-0.189351
  0
VERTEX
  8
0
 10
127.773566
 20
58.328797
 42
-0.199825
  0
VERTEX
  8
0
 10
127.414804
 20
55.913196
 42
-0.007544
  0
VERTEX
  8
0
 10
122.486806
 20
48.000000
 42
0.000662
  0
VERTEX
  8
0
 10
120.574695
 20
45.021757
 42
0.000378
  0
VERTEX
  8
0
 10
118.271582
 20
41.418045
 42
0.000377
  0
VERTEX
  8
0
 10
115.959117
 20
37.787638
 42
0.000625
  0
VERTEX
  8
0
 10
114.014386
 20
34.721005
 42
-0.022643
  0
VERTEX
  8
0
 10
110.742460
 20
30.031483
 42
-0.045851
  0
VERTEX
  8
0
 10
107.689923
 20
26.729114
 42
-0.055947
  0
VERTEX
  8
0
 10
104.538671
 20
24.473337
 42
-0.057613
  0
VERTEX
  8
0
 10
100.995976
 20
22.998846
 42
-0.018334
  0
VERTEX
  8
0
 10
99.456700
 20
22.617858
 42
-0.102579
  0
VERTEX
  8
0
 10
98.612000
 20
22.616568
 42
-0.222318
  0
VERTEX
  8
0
 10
98.167970
 20
22.947469
 42
-0.123837
  0
VERTEX
  8
0
 10
98.000000
 20
23.615260
 42
0.110185
  0
VERTEX
  8
0
 10
97.836457
 20
24.348380
 42
0.030492
  0
VERTEX
  8
0
 10
97.267590
 20
25.389847
 42
0.029229
  0
VERTEX
  8
0
 10
96.460969
 20
26.521292
 42
0.026911
  0
VERTEX
  8
0
 10
95.506690
 20
27.584219
 42
0.092311
  0
VERTEX
  8
0
 10
93.340856
 20
29.070076
 42
0.185119
  0
VERTEX
  8
0
 10
91.299762
 20
29.174477
 42
0.144948
  0
VERTEX
  8
0
 10
89.357576
 20
27.837531
 42
0.050738
  0
VERTEX
  8
0
 10
87.484670
 20
24.970356
 42
-0.066718
  0
VERTEX
  8
0
 10
86.180016
 20
23.105618
 42
-0.124635
  0
VERTEX
  8
0
 10
84.647536
 20
22.103603
 42
-0.263229
  0
VERTEX
  8
0
 10
83.520034
 20
22.313081
 42
-0.221604
  0
VERTEX
  8
0
 10
83.000000
 20
23.428798
 42
0.127160
  0
VERTEX
  8
0
 10
82.802200
 20
24.193985
 42
0.021722
  0
VERTEX
  8
0
 10
82.010627
 20
25.486927
 42
0.022472
  0
VERTEX
  8
0
 10
80.921436
 20
26.956768
 42
0.018369
  0
VERTEX
  8
0
 10
79.631923
 20
28.428798
 42
0.049124
  0
VERTEX
  8
0
 10
77.049014
 20
30.678206
 42
0.093504
  0
VERTEX
  8
0
 10
74.555838
 20
31.827239
 42
0.151872
  0
VERTEX
  8
0
 10
72.589434
 20
31.716908
 42
0.214946
  0
VERTEX
  8
0
 10
71.361626
 20
30.500000
 42
-0.081912
  0
VERTEX
  8
0
 10
70.683203
 20
29.341764
 42
-0.317525
  0
VERTEX
  8
0
 10
69.923612
 20
29.137615
 42
-0.163328
  0
VERTEX
  8
0
 10
69.049789
 20
29.838697
 42
-0.026745
  0
VERTEX
  8
0
 10
67.962110
 20
31.750000
 42
0.010448
  0
VERTEX
  8
0
 10
67.349646
 20
32.912800
 42
0.008500
  0
VERTEX
  8
0
 10
66.646756
 20
34.132812
 42
0.008606
  0
VERTEX
  8
0
 10
65.960640
 20
35.234766
 42
0.022073
  0
VERTEX
  8
0
 10
65.416354
 20
36.000000
 42
-0.037729
  0
VERTEX
  8
0
 10
64.836515
 20
36.871717
 42
-0.008375
  0
VERTEX
  8
0
 10
63.985292
 20
38.449345
 42
-0.008656
  0
VERTEX
  8
0
 10
63.061608
 20
40.310262
 42
-0.008251
  0
VERTEX
  8
0
 10
62.187499
 20
42.231813
 42
0.000000
  0
VERTEX
  8
0
 10
60.128551
 20
46.963626
 42
0.000000
  0
VERTEX
  8
0
 10
67.376594
 20
46.350942
 42
0.000000
  0
VERTEX
  8
0
 10
74.624638
 20
45.738258
 42
0.000000
  0
VERTEX
  8
0
 10
77.675304
 20
49.619129
 42
0.019949
  0
VERTEX
  8
0
 10
81.368882
 20
54.724528
 42
0.070271
  0
VERTEX
  8
0
 10
83.112953
 20
58.371294
 42
0.084630
  0
VERTEX
  8
0
 10
83.611096
 20
61.986511
 42
0.037589
  0
VERTEX
  8
0
 10
83.095095
 20
66.787303
 42
0.018465
  0
VERTEX
  8
0
 10
81.961305
 20
71.878056
 42
0.022442
  0
VERTEX
  8
0
 10
80.512921
 20
76.544731
 42
0.016438
  0
VERTEX
  8
0
 10
79.009936
 20
80.322069
 42
0.298204
  0
VERTEX
  8
0
 10
77.974326
 20
81.000000
 42
0.101430
  0
VERTEX
  8
0
 10
76.137780
 20
80.623567
 42
0.008289
  0
VERTEX
  8
0
 10
71.639284
 20
78.609729
 42
0.012065
  0
VERTEX
  8
0
 10
67.117445
 20
76.360252
 42
0.029169
  0
VERTEX
  8
0
 10
63.924628
 20
74.428666
 42
0.030931
  0
VERTEX
  8
0
 10
62.314590
 20
73.168142
 42
0.014992
  0
VERTEX
  8
0
 10
60.411399
 20
71.373473
 42
0.014806
  0
VERTEX
  8
0
 10
58.534434
 20
69.379370
 42
0.020629
  0
VERTEX
  8
0
 10
56.985434
 20
67.480559
 42
0.000000
  0
VERTEX
  8
0
 10
53.621612
 20
62.991086
 42
0.000000
  0
VERTEX
  8
0
 10
51.891726
 20
69.745543
 42
-0.025011
  0
VERTEX
  8
0
 10
50.096068
 20
78.571650
 42
-0.014466
  0
VERTEX
  8
0
 10
48.780090
 20
89.325565
 42
-0.005892
  0
VERTEX
  8
0
 10
47.923885
 20
99.866126
 42
-0.434650
  0
VERTEX
  8
0
 10
48.981818
 20
101.000000
 42
-0.103045
  0
VERTEX
  8
0
 10
49.283738
 20
100.937110
 42
-0.032139
  0
VERTEX
  8
0
 10
49.697472
 20
100.724346
 42
-0.030592
  0
VERTEX
  8
0
 10
50.140870
 20
100.420737
 42
-0.029429
  0
VERTEX
  8
0
 10
50.550000
 20
100.061604
 42
0.081667
  0
VERTEX
  8
0
 10
53.248707
 20
98.150082
 42
0.007109
  0
VERTEX
  8
0
 10
60.884491
 20
94.563772
 42
0.010191
  0
VERTEX
  8
0
 10
68.862898
 20
91.148231
 42
0.023623
  0
VERTEX
  8
0
 10
75.007824
 20
88.996134
 42
0.029372
  0
VERTEX
  8
0
 10
98.389363
 20
83.499046
 42
0.046171
  0
VERTEX
  8
0
 10
118.943260
 20
81.853159
 42
0.042820
  0
VERTEX
  8
0
 10
140.529514
 20
83.974525
 42
0.021387
  0
VERTEX
  8
0
 10
167.296361
 20
90.137886
 42
0.038102
  0
VERTEX
  8
0
 10
183.063414
 20
95.808626
 42
0.041357
  0
VERTEX
  8
0
 10
197.337485
 20
103.682502
 42
0.045317
  0
VERTEX
  8
0
 10
208.265893
 20
112.471657
 42
0.124529
  0
VERTEX
  8
0
 10
213.442483
 20
120.818781
 42
0.068048
  0
VERTEX
  8
0
 10
213.727719
 20
122.466161
 42
0.471258
  0
VERTEX
  8
0
 10
213.194041
 20
122.939523
 42
0.207681
  0
VERTEX
  8
0
 10
212.204713
 20
122.312704
 42
0.042271
  0
VERTEX
  8
0
 10
211.164826
 20
120.462409
 42
-0.012366
  0
VERTEX
  8
0
 10
210.649619
 20
119.401968
 42
-0.010669
  0
VERTEX
  8
0
 10
210.057669
 20
118.314090
 42
-0.010797
  0
VERTEX
  8
0
 10
209.478405
 20
117.350484
 42
-0.030390
  0
VERTEX
  8
0
 10
209.019386
 20
116.712409
 42
0.001397
  0
VERTEX
  8
0
 10
208.479386
 20
116.046796
 42
0.000325
  0
VERTEX
  8
0
 10
207.576761
 20
114.926342
 42
0.000336
  0
VERTEX
  8
0
 10
206.539654
 20
113.635461
 42
0.000329
  0
VERTEX
  8
0
 10
205.497463
 20
112.334714
 42
-0.069422
  0
VERTEX
  8
0
 10
202.557634
 20
109.555364
 42
-0.013596
  0
VERTEX
  8
0
 10
196.501398
 20
105.486909
 42
-0.015187
  0
VERTEX
  8
0
 10
189.683898
 20
101.455949
 42
-0.022962
  0
VERTEX
  8
0
 10
183.500000
 20
98.409940
 42
0.000554
  0
VERTEX
  8
0
 10
181.679117
 20
97.612288
 42
0.000324
  0
VERTEX
  8
0
 10
179.500000
 20
96.653145
 42
0.000324
  0
VERTEX
  8
0
 10
177.320954
 20
95.690659
 42
0.000551
  0
VERTEX
  8
0
 10
175.500000
 20
94.882530
 42
-0.052498
  0
VERTEX
  8
0
 10
160.716863
 20
90.083717
 42
-0.018912
  0
VERTEX
  8
0
 10
138.902188
 20
86.312954
 42
-0.018878
  0
VERTEX
  8
0
 10
116.893215
 20
84.202621
 42
-0.053429
  0
VERTEX
  8
0
 10
101.500000
 20
84.956186
 42
-0.023609
  0
VERTEX
  8
0
 10
83.304134
 20
88.699293
 42
-0.037321
  0
VERTEX
  8
0
 10
68.214969
 20
93.778496
 42
-0.031688
  0
VERTEX
  8
0
 10
52.413555
 20
101.659755
 42
-0.012167
  0
VERTEX
  8
0
 10
31.487045
 20
114.500000
 42
-0.020359
  0
VERTEX
  8
0
 10
25.445356
 20
118.771353
 42
-0.016972
  0
VERTEX
  8
0
 10
19.381362
 20
123.776676
 42
-0.017309
  0
VERTEX
  8
0
 10
14.140807
 20
128.743661
 42
-0.043762
  0
VERTEX
  8
0
 10
10.800442
 20
132.790047
 42
-0.022409
  0
VERTEX
  8
0
 10
9.091648
 20
135.528814
 42
-0.054434
  0
VERTEX
  8
0
 10
8.155964
 20
137.715911
 42
-0.052675
  0
VERTEX
  8
0
 10
7.697575
 20
140.096267
 42
-0.019876
  0
VERTEX
  8
0
 10
7.544042
 20
143.487520
 42
-0.016006
  0
VERTEX
  8
0
 10
7.663257
 20
147.982815
 42
-0.010068
  0
VERTEX
  8
0
 10
8.076190
 20
153.221701
 42
-0.009515
  0
VERTEX
  8
0
 10
8.741286
 20
158.840398
 42
-0.009168
  0
VERTEX
  8
0
 10
9.626719
 20
164.500000
 42
-0.021916
  0
VERTEX
  8
0
 10
10.438523
 20
168.175990
 42
-0.003234
  0
VERTEX
  8
0
 10
12.451678
 20
175.517288
 42
-0.003953
  0
VERTEX
  8
0
 10
14.693573
 20
183.254901
 42
-0.007305
  0
VERTEX
  8
0
 10
16.656469
 20
189.500000
 42
-0.026718
  0
VERTEX
  8
0
 10
19.099159
 20
195.750214
 42
-0.009422
  0
VERTEX
  8
0
 10
23.240381
 20
204.437539
 42
-0.009195
  0
VERTEX
  8
0
 10
27.657483
 20
212.879368
 42
-0.031560
  0
VERTEX
  8
0
 10
30.961401
 20
218.107814
 42
-0.017812
  0
VERTEX
  8
0
 10
32.707802
 20
220.347498
 42
-0.005197
  0
VERTEX
  8
0
 10
35.551383
 20
223.667284
 42
-0.005215
  0
VERTEX
  8
0
 10
38.833019
 20
227.340808
 42
-0.005564
  0
VERTEX
  8
0
 10
42.121419
 20
230.865920
 42
0.005751
  0
VERTEX
  8
0
 10
45.145161
 20
234.109756
 42
0.009546
  0
VERTEX
  8
0
 10
47.609976
 20
236.921722
 42
0.003615
  0
VERTEX
  8
0
 10
49.619368
 20
239.339650
 42
0.385435
  0
VERTEX
  8
0
 10
49.599807
 20
239.733527
 42
0.374107
  0
VERTEX
  8
0
 10
49.216698
 20
239.760166
 42
0.007118
  0
VERTEX
  8
0
 10
47.515458
 20
238.437670
 42
0.013516
  0
VERTEX
  8
0
 10
45.502860
 20
236.735393
 42
0.008172
  0
VERTEX
  8
0
 10
43.208648
 20
234.617606
 42
-0.005916
  0
VERTEX
  8
0
 10
40.897540
 20
232.464822
 42
-0.008927
  0
VERTEX
  8
0
 10
38.829633
 20
230.650172
 42
-0.004438
  0
VERTEX
  8
0
 10
37.049315
 20
229.170206
 42
-0.172856
  0
VERTEX
  8
0
 10
36.571689
 20
229.000000
 42
-0.509120
  0
VERTEX
  8
0
 10
35.322783
 20
230.716648
 42
-0.010973
  0
VERTEX
  8
0
 10
39.301298
 20
242.151906
 42
-0.019039
  0
VERTEX
  8
0
 10
44.094192
 20
253.653387
 42
-0.049562
  0
VERTEX
  8
0
 10
48.637378
 20
261.372766
 42
0.000000
  0
VERTEX
  8
0
 10
52.197614
 20
266.245531
 42
0.000000
  0
VERTEX
  8
0
 10
59.848807
 20
265.767750
 42
-0.019576
  0
VERTEX
  8
0
 10
63.676694
 20
265.377832
 42
-0.019882
  0
VERTEX
  8
0
 10
67.442401
 20
264.690955
 42
-0.019676
  0
VERTEX
  8
0
 10
71.178753
 20
263.698900
 42
-0.018296
  0
SEQEND
  0
POLYLINE
  8
0
 66
1
 70
1
  0
VERTEX
  8
0
 10
253.500000
 20
175.000000
 42
-0.012939
  0
VERTEX
  8
0
 10
254.159597
 20
174.232121
 42
-0.025990
  0
VERTEX
  8
0
 10
254.631420
 20
173.587500
 42
-0.034935
  0
VERTEX
  8
0
 10
254.889734
 20
173.125730
 42
-0.549874
  0
VERTEX
  8
0
 10
254.809975
 20
173.000000
 42
-0.165568
  0
VERTEX
  8
0
 10
254.525997
 20
173.096686
 42
-0.014322
  0
VERTEX
  8
0
 10
253.925170
 20
173.587500
 42
-0.017642
  0
VERTEX
  8
0
 10
253.229731
 20
174.233916
 42
-0.012769
  0
VERTEX
  8
0
 10
252.500000
 20
175.000000
 42
-0.012939
  0
VERTEX
  8
0
 10
251.840403
 20
175.767879
 42
-0.025990
  0
VERTEX
  8
0
 10
251.368580
 20
176.412500
 42
-0.034935
  0
VERTEX
  8
0
 10
251.110266
 20
176.874270
 42
-0.549874
  0
VERTEX
  8
0
 10
251.190025
 20
177.000000
 42
-0.165568
  0
VERTEX
  8
0
 10
251.474003
 20
176.903314
 42
-0.014322
  0
VERTEX
  8
0
 10
252.074830
 20
176.412500
 42
-0.017642
  0
VERTEX
  8
0
 10
252.770269
 20
175.766084
 42
-0.012769
  0
SEQEND
  0
POLYLINE
  8
0
 66
1
 70
1
  0
VERTEX
  8
0
 10
241.279377
 20
170.960337
 42
-0.027385
  0
VERTEX
  8
0
 10
241.039435
 20
170.212661
 42
-0.055867
  0
VERTEX
  8
0
 10
240.756817
 20
169.665682
 42
-0.101575
  0
VERTEX
  8
0
 10
240.481100
 20
169.393026
 42
-0.354513
  0
VERTEX
  8
0
 10
240.249458
 20
169.417209
 42
-0.237878
  0
VERTEX
  8
0
 10
240.033848
 20
170.071508
 42
-0.038928
  0
VERTEX
  8
0
 10
240.342749
 20
171.411477
 42
-0.038580
  0
VERTEX
  8
0
 10
240.848821
 20
172.672980
 42
-0.285434
  0
VERTEX
  8
0
 10
241.374996
 20
173.000000
 42
-0.382544
  0
VERTEX
  8
0
 10
241.512617
 20
172.876657
 42
-0.039062
  0
VERTEX
  8
0
 10
241.527486
 20
172.400849
 42
-0.033279
  0
VERTEX
  8
0
 10
241.452526
 20
171.742548
 42
-0.018968
  0
SEQEND
  0
POLYLINE
  8
0
 66
1
 70
1
  0
VERTEX
  8
0
 10
276.055015
 20
159.337022
 42
-0.040912
  0
VERTEX
  8
0
 10
279.216773
 20
156.732791
 42
-0.024069
  0
VERTEX
  8
0
 10
282.563790
 20
153.153558
 42
-0.019503
  0
VERTEX
  8
0
 10
285.366632
 20
149.577373
 42
-0.157727
  0
VERTEX
  8
0
 10
286.000000
 20
147.619524
 42
-0.609715
  0
VERTEX
  8
0
 10
285.825721
 20
147.529736
 42
-0.031067
  0
VERTEX
  8
0
 10
285.192187
 20
148.043566
 42
-0.022382
  0
VERTEX
  8
0
 10
284.306136
 20
148.934803
 42
-0.010820
  0
VERTEX
  8
0
 10
283.250000
 20
150.148526
 42
0.021108
  0
VERTEX
  8
0
 10
280.376796
 20
153.316432
 42
0.017287
  0
VERTEX
  8
0
 10
277.054526
 20
156.457446
 42
0.015306
  0
VERTEX
  8
0
 10
273.128297
 20
159.712329
 42
0.010033
  0
VERTEX
  8
0
 10
268.419838
 20
163.229011
 42
-0.004824
  0
VERTEX
  8
0
 10
266.342340
 20
164.747210
 42
-0.007602
  0
VERTEX
  8
0
 10
264.592078
 20
166.094249
 42
-0.002805
  0
VERTEX
  8
0
 10
263.123159
 20
167.274242
 42
-0.225834
  0
VERTEX
  8
0
 10
263.000000
 20
167.533012
 42
-0.586446
  0
VERTEX
  8
0
 10
263.275288
 20
167.687000
 42
-0.002459
  0
VERTEX
  8
0
 10
266.903292
 20
165.434124
 42
-0.007234
  0
VERTEX
  8
0
 10
271.136204
 20
162.690523
 42
-0.004420
  0
SEQEND
  0
POLYLINE
  8
0
 66
1
 70
1
  0
VERTEX
  8
0
 10
286.343780
 20
135.006175
 42
-0.070359
  0
VERTEX
  8
0
 10
285.854846
 20
134.666963
 42
-0.020193
  0
VERTEX
  8
0
 10
285.013485
 20
134.285496
 42
-0.019893
  0
VERTEX
  8
0
 10
284.018977
 20
133.927523
 42
-0.019944
  0
VERTEX
  8
0
 10
283.000000
 20
133.650065
 42
-0.001325
  0
VERTEX
  8
0
 10
281.388280
 20
133.284039
 42
-0.612427
  0
VERTEX
  8
0
 10
281.333545
 20
133.350028
 42
-0.193136
  0
VERTEX
  8
0
 10
281.458882
 20
133.474680
 42
-0.000835
  0
VERTEX
  8
0
 10
283.250000
 20
134.230712
 42
0.050380
  0
VERTEX
  8
0
 10
284.373569
 20
134.842214
 42
0.060881
  0
VERTEX
  8
0
 10
285.275238
 20
135.634161
 42
0.068335
  0
VERTEX
  8
0
 10
285.876673
 20
136.528499
 42
0.100141
  0
VERTEX
  8
0
 10
286.116001
 20
137.443042
 42
-0.002596
  0
VERTEX
  8
0
 10
286.194985
 20
138.725163
 42
-0.303340
  0
VERTEX
  8
0
 10
286.291981
 20
138.851242
 42
-0.432228
  0
VERTEX
  8
0
 10
286.406813
 20
138.790000
 42
-0.003243
  0
VERTEX
  8
0
 10
286.709782
 20
137.643780
 42
-0.048368
  0
VERTEX
  8
0
 10
286.829990
 20
136.875791
 42
-0.049161
  0
VERTEX
  8
0
 10
286.799352
 20
136.103293
 42
-0.053922
  0
VERTEX
  8
0
 10
286.632911
 20
135.439342
 42
-0.118148
  0
SEQEND
  0
POLYLINE
  8
0
 66
1
 70
1
  0
VERTEX
  8
0
 10
328.416610
 20
129.544379
 42
-0.033927
  0
VERTEX
  8
0
 10
323.589848
 20
125.835901
 42
-0.065336
  0
VERTEX
  8
0
 10
319.221278
 20
123.688852
 42
-0.110553
  0
VERTEX
  8
0
 10
315.982182
 20
123.343868
 42
-0.291694
  0
VERTEX
  8
0
 10
314.249533
 20
124.750000
 42
-0.156967
  0
VERTEX
  8
0
 10
314.244591
 20
125.243171
 42
-0.155679
  0
VERTEX
  8
0
 10
314.528074
 20
125.648556
 42
-0.108659
  0
VERTEX
  8
0
 10
315.097185
 20
125.913150
 42
-0.054736
  0
VERTEX
  8
0
 10
315.888153
 20
126.000000
 42
0.088327
  0
VERTEX
  8
0
 10
318.490878
 20
126.463396
 42
0.014437
  0
VERTEX
  8
0
 10
323.263400
 20
128.376605
 42
0.011863
  0
VERTEX
  8
0
 10
327.960822
 20
130.552934
 42
0.140829
  0
VERTEX
  8
0
 10
329.431000
 20
131.888356
 42
-0.064057
  0
VERTEX
  8
0
 10
329.775935
 20
132.313587
 42
-0.051736
  0
VERTEX
  8
0
 10
330.241573
 20
132.673455
 42
-0.053408
  0
VERTEX
  8
0
 10
330.751153
 20
132.918271
 42
-0.085496
  0
VERTEX
  8
0
 10
331.225627
 20
133.000000
 42
-0.568429
  0
VERTEX
  8
0
 10
331.372007
 20
132.754150
 42
-0.046487
  0
VERTEX
  8
0
 10
330.857360
 20
131.984911
 42
-0.028141
  0
VERTEX
  8
0
 10
329.843422
 20
130.871814
 42
-0.013193
  0
SEQEND
  0
POLYLINE
  8
0
 66
1
 70
1
  0
VERTEX
  8
0
 10
79.954896
 20
71.690983
 42
-0.054482
  0
VERTEX
  8
0
 10
79.900282
 20
71.041793
 42
-0.121349
  0
VERTEX
  8
0
 10
79.693001
 20
70.594912
 42
-0.195862
  0
VERTEX
  8
0
 10
79.374819
 20
70.417707
 42
-0.170344
  0
VERTEX
  8
0
 10
79.000000
 20
70.500000
 42
0.276693
  0
VERTEX
  8
0
 10
78.606510
 20
70.505390
 42
0.147408
  0
VERTEX
  8
0
 10
78.262317
 20
70.137334
 42
0.074945
  0
VERTEX
  8
0
 10
78.017865
 20
69.373115
 42
0.032591
  0
VERTEX
  8
0
 10
77.916667
 20
68.309017
 42
-0.009615
  0
VERTEX
  8
0
 10
77.796928
 20
65.861657
 42
-0.012151
  0
VERTEX
  8
0
 10
77.587818
 20
63.605399
 42
-0.009903
  0
VERTEX
  8
0
 10
77.233843
 20
61.028730
 42
-0.003915
  0
VERTEX
  8
0
 10
76.649315
 20
57.500000
 42
0.000000
  0
VERTEX
  8
0
 10
75.954502
 20
53.500000
 42
0.000000
  0
VERTEX
  8
0
 10
77.977251
 20
55.860784
 42
-0.021290
  0
VERTEX
  8
0
 10
79.616963
 20
57.617333
 42
-0.794566
  0
VERTEX
  8
0
 10
79.887093
 20
57.445851
 42
-0.062592
  0
VERTEX
  8
0
 10
79.111399
 20
55.890731
 42
-0.006569
  0
VERTEX
  8
0
 10
76.807500
 20
52.529236
 42
-0.016535
  0
VERTEX
  8
0
 10
74.781767
 20
49.848138
 42
-0.091028
  0
VERTEX
  8
0
 10
73.412654
 20
48.673430
 42
-0.106461
  0
VERTEX
  8
0
 10
71.815171
 20
48.152104
 42
-0.026586
  0
VERTEX
  8
0
 10
69.057500
 20
48.013655
 42
-0.023725
  0
VERTEX
  8
0
 10
64.054346
 20
48.266215
 42
-0.106468
  0
VERTEX
  8
0
 10
61.278026
 20
49.155591
 42
-0.122612
  0
VERTEX
  8
0
 10
59.318406
 20
51.041213
 42
-0.036077
  0
VERTEX
  8
0
 10
57.345769
 20
54.752827
 42
0.000000
  0
VERTEX
  8
0
 10
54.932639
 20
60.209342
 42
0.000000
  0
VERTEX
  8
0
 10
57.453087
 20
64.510161
 42
-0.049885
  0
VERTEX
  8
0
 10
60.217615
 20
68.303553
 42
-0.039107
  0
VERTEX
  8
0
 10
63.899012
 20
71.824734
 42
-0.038179
  0
VERTEX
  8
0
 10
68.191576
 20
74.816353
 42
-0.041310
  0
VERTEX
  8
0
 10
72.780588
 20
77.031789
 42
0.000000
  0
VERTEX
  8
0
 10
77.500000
 20
78.847066
 42
0.000000
  0
VERTEX
  8
0
 10
78.704896
 20
76.173533
 42
-0.020671
  0
VERTEX
  8
0
 10
79.169502
 20
75.017295
 42
-0.017200
  0
VERTEX
  8
0
 10
79.569103
 20
73.753952
 42
-0.017543
  0
VERTEX
  8
0
 10
79.854749
 20
72.570663
 42
-0.044243
  0
SEQEND
  0
POLYLINE
  8
0
 66
1
 70
1
  0
VERTEX
  8
0
 10
198.561322
 20
67.250000
 42
-0.015753
  0
VERTEX
  8
0
 10
198.174109
 20
65.004469
 42
-0.007442
  0
VERTEX
  8
0
 10
197.540555
 20
62.132812
 42
-0.007367
  0
VERTEX
  8
0
 10
196.787727
 20
59.144149
 42
-0.010321
  0
VERTEX
  8
0
 10
196.021276
 20
56.500000
 42
0.002370
  0
VERTEX
  8
0
 10
195.185822
 20
53.780298
 42
0.001431
  0
VERTEX
  8
0
 10
194.220423
 20
50.550317
 42
0.001433
  0
VERTEX
  8
0
 10
193.279818
 20
47.336293
 42
0.002515
  0
VERTEX
  8
0
 10
192.522682
 20
44.671291
 42
-0.016050
  0
VERTEX
  8
0
 10
191.449888
 20
41.250282
 42
-0.078411
  0
VERTEX
  8
0
 10
190.493681
 20
39.468227
 42
-0.096328
  0
VERTEX
  8
0
 10
189.129334
 20
38.247853
 42
-0.030790
  0
VERTEX
  8
0
 10
186.699184
 20
36.994615
 42
-0.014877
  0
VERTEX
  8
0
 10
181.331098
 20
34.820474
 42
-0.096654
  0
VERTEX
  8
0
 10
178.467344
 20
34.351390
 42
-0.143268
  0
VERTEX
  8
0
 10
176.174237
 20
35.098473
 42
-0.046495
  0
VERTEX
  8
0
 10
173.401670
 20
37.398330
 42
-0.019650
  0
VERTEX
  8
0
 10
171.773823
 20
39.159410
 42
-0.051961
  0
VERTEX
  8
0
 10
170.801860
 20
40.571074
 42
-0.078708
  0
VERTEX
  8
0
 10
170.383809
 20
41.745184
 42
-0.141471
  0
VERTEX
  8
0
 10
170.481167
 20
42.755051
 42
0.029419
  0
VERTEX
  8
0
 10
170.831452
 20
43.817889
 42
0.004188
  0
VERTEX
  8
0
 10
171.402554
 20
46.043671
 42
0.004754
  0
VERTEX
  8
0
 10
172.031822
 20
48.691997
 42
0.004037
  0
VERTEX
  8
0
 10
172.647088
 20
51.500000
 42
-0.017289
  0
VERTEX
  8
0
 10
173.472125
 20
54.839513
 42
-0.031055
  0
VERTEX
  8
0
 10
174.410200
 20
57.500992
 42
-0.037634
  0
VERTEX
  8
0
 10
175.504908
 20
59.623422
 42
-0.052796
  0
VERTEX
  8
0
 10
176.806053
 20
61.310633
 42
-0.067556
  0
VERTEX
  8
0
 10
180.253245
 20
64.061248
 42
-0.014097
  0
VERTEX
  8
0
 10
187.017092
 20
67.848021
 42
-0.011827
  0
VERTEX
  8
0
 10
193.969195
 20
71.279729
 42
-0.109150
  0
VERTEX
  8
0
 10
197.229339
 20
72.000000
 42
-0.092675
  0
VERTEX
  8
0
 10
198.289059
 20
71.801879
 42
-0.236190
  0
VERTEX
  8
0
 10
198.800306
 20
71.238895
 42
-0.094017
  0
VERTEX
  8
0
 10
198.901625
 20
70.062471
 42
-0.009421
  0
SEQEND
  0
POLYLINE
  8
0
 66
1
 70
1
  0
VERTEX
  8
0
 10
81.402171
 20
60.017368
 42
-0.481096
  0
VERTEX
  8
0
 10
81.035076
 20
60.061601
 42
-0.081308
  0
VERTEX
  8
0
 10
80.722427
 20
60.818324
 42
-0.037978
  0
VERTEX
  8
0
 10
80.497586
 20
62.270370
 42
-0.014507
  0
VERTEX
  8
0
 10
80.397935
 20
64.315197
 42
0.000000
  0
VERTEX
  8
0
 10
80.295871
 20
69.500000
 42
0.000000
  0
VERTEX
  8
0
 10
81.300107
 20
65.202171
 42
-0.020140
  0
VERTEX
  8
0
 10
81.644444
 20
63.404649
 42
-0.032339
  0
VERTEX
  8
0
 10
81.775888
 20
61.849829
 42
-0.036768
  0
VERTEX
  8
0
 10
81.710661
 20
60.639065
 42
-0.168202
  0
SEQEND
  0
POLYLINE
  8
0
 66
1
 70
1
  0
VERTEX
  8
0
 10
249.445398
 20
49.760881
 42
0.000000
  0
VERTEX
  8
0
 10
250.141194
 20
44.021761
 42
0.000000
  0
VERTEX
  8
0
 10
246.820597
 20
44.654521
 42
-0.005778
  0
VERTEX
  8
0
 10
245.523827
 20
44.917192
 42
-0.008166
  0
VERTEX
  8
0
 10
244.375874
 20
45.183243
 42
-0.005121
  0
VERTEX
  8
0
 10
243.422294
 20
45.431119
 42
-0.106269
  0
VERTEX
  8
0
 10
243.161103
 20
45.565871
 42
-0.351775
  0
VERTEX
  8
0
 10
243.111473
 20
45.803085
 42
-0.008207
  0
VERTEX
  8
0
 10
243.682246
 20
46.881784
 42
-0.014547
  0
VERTEX
  8
0
 10
244.442958
 20
48.173632
 42
-0.008893
  0
VERTEX
  8
0
 10
245.411103
 20
49.654365
 42
0.015983
  0
VERTEX
  8
0
 10
246.402220
 20
51.218198
 42
0.018594
  0
VERTEX
  8
0
 10
247.239512
 20
52.766503
 42
0.017876
  0
VERTEX
  8
0
 10
247.846496
 20
54.115541
 42
0.097067
  0
VERTEX
  8
0
 10
248.000000
 20
54.898801
 42
-0.141250
  0
VERTEX
  8
0
 10
248.195073
 20
55.575546
 42
-0.650203
  0
VERTEX
  8
0
 10
248.475034
 20
55.535085
 42
-0.030297
  0
VERTEX
  8
0
 10
248.954481
 20
53.325327
 42
-0.008108
  0
SEQEND
  0
POLYLINE
  8
0
 66
1
 70
1
  0
VERTEX
  8
0
 10
155.260085
 20
52.039816
 42
0.004151
  0
VERTEX
  8
0
 10
157.905700
 20
51.631896
 42
0.003566
  0
VERTEX
  8
0
 10
160.695150
 20
51.245770
 42
0.003592
  0
VERTEX
  8
0
 10
163.232741
 20
50.931458
 42
0.010312
  0
VERTEX
  8
0
 10
165.000000
 20
50.762301
 42
-0.022137
  0
VERTEX
  8
0
 10
167.039551
 20
50.518298
 42
-0.153145
  0
VERTEX
  8
0
 10
167.927860
 20
50.070119
 42
-0.180508
  0
VERTEX
  8
0
 10
168.323879
 20
49.234207
 42
-0.033293
  0
VERTEX
  8
0
 10
168.356318
 20
47.500000
 42
-0.017625
  0
VERTEX
  8
0
 10
168.084668
 20
44.238719
 42
-0.011961
  0
VERTEX
  8
0
 10
167.556216
 20
40.549390
 42
-0.008808
  0
VERTEX
  8
0
 10
166.927792
 20
37.169044
 42
-0.088266
  0
VERTEX
  8
0
 10
166.400254
 20
35.838608
 42
-0.318876
  0
VERTEX
  8
0
 10
165.922212
 20
35.636575
 42
-0.025912
  0
VERTEX
  8
0
 10
164.535167
 20
36.019438
 42
-0.027320
  0
VERTEX
  8
0
 10
162.787856
 20
36.708762
 42
-0.017013
  0
VERTEX
  8
0
 10
160.818172
 20
37.695480
 42
-0.042565
  0
VERTEX
  8
0
 10
156.969168
 20
40.236584
 42
-0.031012
  0
VERTEX
  8
0
 10
153.148452
 20
43.659901
 42
-0.031039
  0
VERTEX
  8
0
 10
149.784994
 20
47.524796
 42
-0.042980
  0
VERTEX
  8
0
 10
147.313793
 20
51.395769
 42
-0.005940
  0
VERTEX
  8
0
 10
146.416201
 20
53.161117
 42
-0.125730
  0
VERTEX
  8
0
 10
146.295408
 20
53.732442
 42
-0.462056
  0
VERTEX
  8
0
 10
146.543455
 20
53.926282
 42
-0.041042
  0
VERTEX
  8
0
 10
147.409024
 20
53.673284
 42
0.035060
  0
VERTEX
  8
0
 10
148.383216
 20
53.375860
 42
0.005273
  0
VERTEX
  8
0
 10
150.379871
 20
52.938423
 42
0.005898
  0
VERTEX
  8
0
 10
152.752927
 20
52.473828
 42
0.005063
  0
SEQEND
  0
POLYLINE
  8
0
 66
1
 70
1
  0
VERTEX
  8
0
 10
158.500000
 20
36.000000
 42
-0.139169
  0
VERTEX
  8
0
 10
158.607943
 20
35.620352
 42
-0.191142
  0
VERTEX
  8
0
 10
158.478525
 20
35.293750
 42
-0.138808
  0
VERTEX
  8
0
 10
158.110654
 20
35.073267
 42
-0.066118
  0
VERTEX
  8
0
 10
157.559017
 20
35.000000
 42
-0.062283
  0
VERTEX
  8
0
 10
156.962904
 20
35.074545
 42
-0.080552
  0
VERTEX
  8
0
 10
156.457961
 20
35.293750
 42
-0.097988
  0
VERTEX
  8
0
 10
156.120018
 20
35.618621
 42
-0.153634
  0
VERTEX
  8
0
 10
156.000000
 20
36.000000
 42
-0.092995
  0
VERTEX
  8
0
 10
156.071618
 20
36.381732
 42
-0.096318
  0
VERTEX
  8
0
 10
156.276414
 20
36.706250
 42
-0.099231
  0
VERTEX
  8
0
 10
156.581949
 20
36.923444
 42
-0.105429
  0
VERTEX
  8
0
 10
156.940983
 20
37.000000
 42
-0.089642
  0
VERTEX
  8
0
 10
157.346558
 20
36.926698
 42
-0.053229
  0
VERTEX
  8
0
 10
157.787100
 20
36.706250
 42
-0.051032
  0
VERTEX
  8
0
 10
158.193797
 20
36.382515
 42
-0.060810
  0
SEQEND
  0
POLYLINE
  8
0
 66
1
 70
1
  0
VERTEX
  8
0
 10
77.952200
 20
27.550881
 42
-0.065446
  0
VERTEX
  8
0
 10
79.438842
 20
25.483745
 42
-0.198263
  0
VERTEX
  8
0
 10
79.610697
 20
23.793500
 42
-0.204245
  0
VERTEX
  8
0
 10
78.543239
 20
22.508197
 42
-0.069457
  0
VERTEX
  8
0
 10
76.202612
 20
21.690522
 42
0.003556
  0
VERTEX
  8
0
 10
74.870891
 20
21.414314
 42
0.002233
  0
VERTEX
  8
0
 10
73.317641
 20
21.073357
 42
0.002241
  0
VERTEX
  8
0
 10
71.791814
 20
20.724082
 42
0.004098
  0
VERTEX
  8
0
 10
70.551069
 20
20.423461
 42
0.000000
  0
VERTEX
  8
0
 10
67.868811
 20
19.750258
 42
0.000000
  0
VERTEX
  8
0
 10
69.455789
 20
23.548432
 42
-0.026240
  0
VERTEX
  8
0
 10
71.588702
 20
27.983731
 42
-0.158774
  0
VERTEX
  8
0
 10
73.422761
 20
29.710101
 42
-0.251342
  0
VERTEX
  8
0
 10
75.414323
 20
29.605963
 42
-0.068075
  0
SEQEND
  0
POLYLINE
  8
0
 66
1
 70
1
  0
VERTEX
  8
0
 10
95.113910
 20
24.303375
 42
-0.012259
  0
VERTEX
  8
0
 10
96.164184
 20
22.310141
 42
-0.160748
  0
VERTEX
  8
0
 10
96.280512
 20
21.494498
 42
-0.219775
  0
VERTEX
  8
0
 10
95.862489
 20
20.896114
 42
-0.025211
  0
VERTEX
  8
0
 10
94.365274
 20
20.120569
 42
-0.060603
  0
VERTEX
  8
0
 10
90.906028
 20
19.025932
 42
-0.246874
  0
VERTEX
  8
0
 10
88.865282
 20
19.654208
 42
-0.257487
  0
VERTEX
  8
0
 10
88.280721
 20
21.656538
 42
-0.064407
  0
VERTEX
  8
0
 10
89.486308
 20
24.973522
 42
-0.051207
  0
VERTEX
  8
0
 10
90.871281
 20
27.089409
 42
-0.257320
  0
VERTEX
  8
0
 10
92.136186
 20
27.602252
 42
-0.204720
  0
VERTEX
  8
0
 10
93.464400
 20
26.837559
 42
-0.033785
  0
SEQEND
  0
POLYLINE
  8
0
 66
1
 70
1
  0
VERTEX
  8
0
 10
269.504229
 20
23.128384
 42
-0.061548
  0
VERTEX
  8
0
 10
269.785671
 20
21.995332
 42
-0.255839
  0
VERTEX
  8
0
 10
269.533229
 20
21.364046
 42
-0.114139
  0
VERTEX
  8
0
 10
268.665430
 20
20.931758
 42
-0.009368
  0
VERTEX
  8
0
 10
266.177083
 20
20.385417
 42
-0.019377
  0
VERTEX
  8
0
 10
264.511662
 20
20.118965
 42
-0.110597
  0
VERTEX
  8
0
 10
263.625821
 20
20.208206
 42
-0.214865
  0
VERTEX
  8
0
 10
263.165420
 20
20.631980
 42
-0.101220
  0
VERTEX
  8
0
 10
263.000000
 20
21.440741
 42
-0.046367
  0
VERTEX
  8
0
 10
263.072987
 20
22.226106
 42
-0.023050
  0
VERTEX
  8
0
 10
263.302495
 20
23.200044
 42
-0.022658
  0
VERTEX
  8
0
 10
263.635408
 20
24.195210
 42
-0.030825
  0
VERTEX
  8
0
 10
264.029769
 20
25.055624
 42
-0.040357
  0
VERTEX
  8
0
 10
264.657909
 20
26.031164
 42
-0.173088
  0
VERTEX
  8
0
 10
265.229040
 20
26.401510
 42
-0.163872
  0
VERTEX
  8
0
 10
265.925359
 20
26.337016
 42
-0.035273
  0
VERTEX
  8
0
 10
267.010459
 20
25.761395
 42
-0.034568
  0
VERTEX
  8
0
 10
267.797134
 20
25.190998
 42
-0.029029
  0
VERTEX
  8
0
 10
268.547759
 20
24.485371
 42
-0.030027
  0
VERTEX
  8
0
 10
269.158779
 20
23.757298
 42
-0.068046
  0
SEQEND
  0
POLYLINE
  8
0
 66
1
 70
1
  0
VERTEX
  8
0
 10
287.000000
 20
19.934229
 42
-0.290434
  0
VERTEX
  8
0
 10
286.405564
 20
18.997192
 42
-0.029333
  0
VERTEX
  8
0
 10
283.838749
 20
17.967454
 42
-0.033200
  0
VERTEX
  8
0
 10
281.091682
 20
17.246985
 42
-0.140036
  0
VERTEX
  8
0
 10
279.411891
 20
17.395437
 42
-0.095302
  0
VERTEX
  8
0
 10
278.687206
 20
17.846190
 42
-0.138903
  0
VERTEX
  8
0
 10
278.297421
 20
18.484395
 42
-0.097910
  0
VERTEX
  8
0
 10
278.226266
 20
19.406039
 42
-0.031950
  0
VERTEX
  8
0
 10
278.474325
 20
20.753723
 42
-0.031489
  0
VERTEX
  8
0
 10
279.471580
 20
23.879208
 42
-0.194916
  0
VERTEX
  8
0
 10
280.605726
 20
25.080098
 42
-0.252058
  0
VERTEX
  8
0
 10
282.054876
 20
24.985973
 42
-0.051368
  0
VERTEX
  8
0
 10
284.154706
 20
23.351782
 42
-0.011776
  0
VERTEX
  8
0
 10
285.244610
 20
22.257214
 42
-0.016360
  0
VERTEX
  8
0
 10
286.164195
 20
21.223415
 42
-0.012827
  0
VERTEX
  8
0
 10
286.866869
 20
20.333976
 42
-0.162142
  0
SEQEND
  0
POLYLINE
  8
0
 66
1
 70
1
  0
VERTEX
  8
0
 10
301.961045
 20
21.811439
 42
-0.020522
  0
VERTEX
  8
0
 10
303.547474
 20
19.961951
 42
-0.181551
  0
VERTEX
  8
0
 10
303.868654
 20
18.954987
 42
-0.275770
  0
VERTEX
  8
0
 10
303.386874
 20
18.233245
 42
-0.045581
  0
VERTEX
  8
0
 10
301.750000
 20
17.630286
 42
-0.057579
  0
VERTEX
  8
0
 10
298.049004
 20
17.083019
 42
-0.185399
  0
VERTEX
  8
0
 10
295.738868
 20
17.886861
 42
-0.297245
  0
VERTEX
  8
0
 10
295.204836
 20
19.667022
 42
-0.112764
  0
VERTEX
  8
0
 10
296.533706
 20
22.037245
 42
-0.036067
  0
VERTEX
  8
0
 10
298.061832
 20
23.498782
 42
-0.185227
  0
VERTEX
  8
0
 10
299.153326
 20
23.866220
 42
-0.167855
  0
VERTEX
  8
0
 10
300.275683
 20
23.425480
 42
-0.028501
  0
SEQEND
  0
POLYLINE
  8
0
 66
1
 70
1
  0
VERTEX
  8
0
 10
172.000000
 20
16.719143
 42
-0.365121
  0
VERTEX
  8
0
 10
171.512856
 20
16.140978
 42
-0.018818
  0
VERTEX
  8
0
 10
168.906663
 20
15.792730
 42
-0.023811
  0
VERTEX
  8
0
 10
166.257263
 20
15.666547
 42
-0.139278
  0
VERTEX
  8
0
 10
164.928959
 20
16.043906
 42
-0.176585
  0
VERTEX
  8
0
 10
164.526529
 20
16.554315
 42
-0.113373
  0
VERTEX
  8
0
 10
164.456255
 20
17.313453
 42
-0.065019
  0
VERTEX
  8
0
 10
164.747140
 20
18.392449
 42
-0.021020
  0
VERTEX
  8
0
 10
165.446177
 20
19.895917
 42
0.000000
  0
VERTEX
  8
0
 10
167.080959
 20
23.057237
 42
0.000000
  0
VERTEX
  8
0
 10
169.540479
 20
20.134262
 42
-0.007720
  0
VERTEX
  8
0
 10
170.482793
 20
18.978629
 42
-0.011121
  0
VERTEX
  8
0
 10
171.277516
 20
17.925344
 42
-0.007075
  0
VERTEX
  8
0
 10
171.905539
 20
17.026773
 42
-0.150073
  0
SEQEND
  0
POLYLINE
  8
0
 66
1
 70
1
  0
VERTEX
  8
0
 10
188.417793
 20
16.915328
 42
-0.039456
  0
VERTEX
  8
0
 10
190.097020
 20
14.566329
 42
-0.215712
  0
VERTEX
  8
0
 10
190.274570
 20
13.053812
 42
-0.189169
  0
VERTEX
  8
0
 10
189.252823
 20
11.795416
 42
-0.029788
  0
VERTEX
  8
0
 10
186.333904
 20
10.366154
 42
-0.036849
  0
VERTEX
  8
0
 10
183.775222
 20
9.512223
 42
-0.151978
  0
VERTEX
  8
0
 10
182.164630
 20
9.597983
 42
-0.167512
  0
VERTEX
  8
0
 10
180.978127
 20
10.570855
 42
-0.047221
  0
VERTEX
  8
0
 10
179.905716
 20
12.747986
 42
-0.046352
  0
VERTEX
  8
0
 10
179.512980
 20
14.163279
 42
-0.106651
  0
VERTEX
  8
0
 10
179.550850
 20
15.262039
 42
-0.095126
  0
VERTEX
  8
0
 10
180.046937
 20
16.325066
 42
-0.031979
  0
VERTEX
  8
0
 10
181.141713
 20
17.650847
 42
-0.047335
  0
VERTEX
  8
0
 10
183.138607
 20
19.409367
 42
-0.184077
  0
VERTEX
  8
0
 10
184.701406
 20
19.830687
 42
-0.160191
  0
VERTEX
  8
0
 10
186.286976
 20
19.125604
 42
-0.033808
  0
SEQEND
  0
POLYLINE
  8
0
 66
1
 70
1
  0
VERTEX
  8
0
 10
204.885691
 20
15.811430
 42
-0.035567
  0
VERTEX
  8
0
 10
205.570793
 20
14.518109
 42
-0.160909
  0
VERTEX
  8
0
 10
205.652353
 20
13.679551
 42
-0.142218
  0
VERTEX
  8
0
 10
205.220864
 20
12.898403
 42
-0.025738
  0
VERTEX
  8
0
 10
203.974857
 20
11.778557
 42
-0.044953
  0
VERTEX
  8
0
 10
202.243466
 20
10.617255
 42
-0.148287
  0
VERTEX
  8
0
 10
200.913003
 20
10.338487
 42
-0.168941
  0
VERTEX
  8
0
 10
199.759286
 20
10.857324
 42
-0.062761
  0
VERTEX
  8
0
 10
198.613481
 20
12.250983
 42
-0.078036
  0
VERTEX
  8
0
 10
198.230302
 20
13.139907
 42
-0.118898
  0
VERTEX
  8
0
 10
198.218130
 20
13.976444
 42
-0.093546
  0
VERTEX
  8
0
 10
198.603811
 20
14.867021
 42
-0.035097
  0
VERTEX
  8
0
 10
199.447026
 20
15.941464
 42
-0.045998
  0
VERTEX
  8
0
 10
201.096259
 20
17.457375
 42
-0.170441
  0
VERTEX
  8
0
 10
202.420290
 20
17.886954
 42
-0.190215
  0
VERTEX
  8
0
 10
203.629102
 20
17.376098
 42
-0.059261
  0
SEQEND
  0
POLYLINE
  8
0
 66
1
 70
1
  0
VERTEX
  8
0
 10
241.000000
 20
287.000000
 42
0.010223
  0
VERTEX
  8
0
 10
240.157251
 20
286.430616
 42
0.295079
  0
VERTEX
  8
0
 10
240.064256
 20
286.199331
 42
0.343021
  0
VERTEX
  8
0
 10
240.238528
 20
286.046994
 42
0.012098
  0
VERTEX
  8
0
 10
241.190983
 20
286.015313
 42
0.053738
  0
VERTEX
  8
0
 10
241.883651
 20
286.083635
 42
0.049393
  0
VERTEX
  8
0
 10
242.566787
 20
286.298248
 42
0.052761
  0
VERTEX
  8
0
 10
243.140373
 20
286.617978
 42
0.101161
  0
VERTEX
  8
0
 10
243.500000
 20
287.000000
 42
0.175918
  0
VERTEX
  8
0
 10
243.633474
 20
287.640978
 42
0.372932
  0
VERTEX
  8
0
 10
243.277708
 20
287.949198
 42
0.110887
  0
VERTEX
  8
0
 10
242.319161
 20
287.733972
 42
0.033010
  0
SEQEND
  0
POLYLINE
  8
0
 66
1
 70
1
  0
VERTEX
  8
0
 10
115.698262
 20
240.410460
 42
0.016206
  0
VERTEX
  8
0
 10
112.086811
 20
239.636113
 42
0.008426
  0
VERTEX
  8
0
 10
107.633169
 20
238.449070
 42
0.008369
  0
VERTEX
  8
0
 10
103.096756
 20
237.075224
 42
0.012623
  0
VERTEX
  8
0
 10
99.198262
 20
235.713482
 42
0.020587
  0
VERTEX
  8
0
 10
91.630460
 20
232.491881
 42
0.017132
  0
VERTEX
  8
0
 10
83.864606
 20
228.469691
 42
0.009412
  0
VERTEX
  8
0
 10
76.984316
 20
224.429394
 42
0.260941
  0
VERTEX
  8
0
 10
76.000000
 20
222.671730
 42
0.195480
  0
VERTEX
  8
0
 10
76.798098
 20
220.708351
 42
0.010958
  0
VERTEX
  8
0
 10
81.588359
 20
216.000701
 42
0.017698
  0
VERTEX
  8
0
 10
86.743859
 20
211.484506
 42
0.042794
  0
VERTEX
  8
0
 10
90.925753
 20
208.632931
 42
0.000000
  0
VERTEX
  8
0
 10
95.351505
 20
206.140300
 42
0.000000
  0
VERTEX
  8
0
 10
101.425753
 20
209.240876
 42
0.023104
  0
VERTEX
  8
0
 10
108.145921
 20
213.072262
 42
0.010698
  0
VERTEX
  8
0
 10
116.524852
 20
218.631137
 42
0.009855
  0
VERTEX
  8
0
 10
124.361318
 20
224.307280
 42
0.042255
  0
VERTEX
  8
0
 10
128.650594
 20
228.153822
 42
0.019814
  0
VERTEX
  8
0
 10
132.306440
 20
232.358584
 42
0.037851
  0
VERTEX
  8
0
 10
134.833759
 20
236.049652
 42
0.047716
  0
VERTEX
  8
0
 10
136.180296
 20
238.990627
 42
0.262473
  0
VERTEX
  8
0
 10
135.880538
 20
240.643943
 42
0.198442
  0
VERTEX
  8
0
 10
133.915715
 20
241.682581
 42
0.026519
  0
VERTEX
  8
0
 10
129.135472
 20
241.880875
 42
0.026050
  0
VERTEX
  8
0
 10
122.954115
 20
241.486862
 42
0.015767
  0
SEQEND
  0
POLYLINE
  8
0
 66
1
 70
1
  0
VERTEX
  8
0
 10
133.601545
 20
237.250000
 42
-0.067067
  0
VERTEX
  8
0
 10
131.084416
 20
233.717509
 42
-0.015380
  0
VERTEX
  8
0
 10
125.899980
 20
228.516475
 42
-0.016436
  0
VERTEX
  8
0
 10
119.843670
 20
223.168457
 42
-0.022070
  0
VERTEX
  8
0
 10
114.000000
 20
218.759473
 42
-0.008706
  0
VERTEX
  8
0
 10
108.839138
 20
215.342558
 42
-0.017454
  0
VERTEX
  8
0
 10
104.627456
 20
212.860664
 42
-0.013176
  0
VERTEX
  8
0
 10
101.304856
 20
211.167661
 42
-0.317656
  0
VERTEX
  8
0
 10
100.331709
 20
211.334958
 42
-0.356326
  0
VERTEX
  8
0
 10
100.307985
 20
211.569522
 42
-0.090478
  0
VERTEX
  8
0
 10
100.592859
 20
211.866699
 42
-0.052907
  0
VERTEX
  8
0
 10
101.146269
 20
212.183817
 42
-0.026832
  0
VERTEX
  8
0
 10
101.898186
 20
212.467686
 42
0.069011
  0
VERTEX
  8
0
 10
105.729873
 20
214.295663
 42
0.016687
  0
VERTEX
  8
0
 10
111.475017
 20
218.365237
 42
0.010956
  0
VERTEX
  8
0
 10
117.037935
 20
222.786900
 42
0.200129
  0
VERTEX
  8
0
 10
118.065577
 20
224.750000
 42
-0.186921
  0
VERTEX
  8
0
 10
118.195527
 20
225.014416
 42
-0.105201
  0
VERTEX
  8
0
 10
118.507577
 20
225.199269
 42
-0.078699
  0
VERTEX
  8
0
 10
118.957856
 20
225.275679
 42
-0.052931
  0
VERTEX
  8
0
 10
119.478172
 20
225.226235
 42
0.134208
  0
VERTEX
  8
0
 10
120.032946
 20
225.263079
 42
0.205064
  0
VERTEX
  8
0
 10
120.384740
 20
225.582791
 42
0.119134
  0
VERTEX
  8
0
 10
120.509526
 20
226.226540
 42
0.035653
  0
VERTEX
  8
0
 10
120.392070
 20
227.226235
 42
-0.001632
  0
VERTEX
  8
0
 10
120.129171
 20
228.631311
 42
-0.272939
  0
VERTEX
  8
0
 10
120.180666
 20
228.771861
 42
-0.494058
  0
VERTEX
  8
0
 10
120.282701
 20
228.747856
 42
-0.002166
  0
VERTEX
  8
0
 10
120.806972
 20
227.566376
 42
0.097803
  0
VERTEX
  8
0
 10
121.495513
 20
226.577629
 42
0.408640
  0
VERTEX
  8
0
 10
122.151404
 20
226.583102
 42
0.189282
  0
VERTEX
  8
0
 10
122.566340
 20
227.531425
 42
0.049624
  0
VERTEX
  8
0
 10
122.463517
 20
229.218988
 42
-0.064047
  0
VERTEX
  8
0
 10
122.442917
 20
229.860492
 42
-0.109055
  0
VERTEX
  8
0
 10
122.607429
 20
230.368696
 42
-0.148091
  0
VERTEX
  8
0
 10
122.925972
 20
230.663333
 42
-0.161239
  0
VERTEX
  8
0
 10
123.343035
 20
230.718988
 42
0.118967
  0
VERTEX
  8
0
 10
123.761851
 20
230.739844
 42
0.153854
  0
VERTEX
  8
0
 10
124.079426
 20
230.953350
 42
0.135763
  0
VERTEX
  8
0
 10
124.242533
 20
231.335175
 42
0.084807
  0
VERTEX
  8
0
 10
124.225223
 20
231.824330
 42
-0.070186
  0
VERTEX
  8
0
 10
124.195492
 20
232.285069
 42
-0.194562
  0
VERTEX
  8
0
 10
124.336982
 20
232.570631
 42
-0.229821
  0
VERTEX
  8
0
 10
124.615452
 20
232.649096
 42
-0.094386
  0
VERTEX
  8
0
 10
124.991535
 20
232.505231
 42
-0.088188
  0
VERTEX
  8
0
 10
125.345369
 20
232.188901
 42
-0.094717
  0
VERTEX
  8
0
 10
125.557801
 20
231.777358
 42
-0.100026
  0
VERTEX
  8
0
 10
125.596908
 20
231.335390
 42
-0.111063
  0
VERTEX
  8
0
 10
125.457295
 20
230.930902
 42
0.072795
  0
VERTEX
  8
0
 10
125.303251
 20
230.574764
 42
0.148870
  0
VERTEX
  8
0
 10
125.313097
 20
230.273452
 42
0.188554
  0
VERTEX
  8
0
 10
125.481062
 20
230.074427
 42
0.124919
  0
VERTEX
  8
0
 10
125.774316
 20
230.000000
 42
0.109809
  0
VERTEX
  8
0
 10
126.806935
 20
230.229549
 42
0.204323
  0
VERTEX
  8
0
 10
127.369034
 20
230.857379
 42
0.174071
  0
VERTEX
  8
0
 10
127.352728
 20
231.785322
 42
0.079688
  0
VERTEX
  8
0
 10
126.741324
 20
232.849949
 42
-0.005270
  0
VERTEX
  8
0
 10
126.081809
 20
233.682745
 42
-0.169172
  0
VERTEX
  8
0
 10
126.000454
 20
233.924920
 42
-0.561162
  0
VERTEX
  8
0
 10
126.113144
 20
233.992006
 42
-0.013806
  0
VERTEX
  8
0
 10
126.750000
 20
233.632941
 42
0.071367
  0
VERTEX
  8
0
 10
127.256391
 20
233.419738
 42
0.169438
  0
VERTEX
  8
0
 10
127.658437
 20
233.451841
 42
0.193413
  0
VERTEX
  8
0
 10
127.918844
 20
233.718617
 42
0.095164
  0
VERTEX
  8
0
 10
128.015313
 20
234.190983
 42
-0.044036
  0
VERTEX
  8
0
 10
128.070307
 20
234.740679
 42
-0.415341
  0
VERTEX
  8
0
 10
128.247683
 20
234.860925
 42
-0.187072
  0
VERTEX
  8
0
 10
128.522598
 20
234.688013
 42
-0.016439
  0
VERTEX
  8
0
 10
129.000000
 20
234.000000
 42
0.015598
  0
VERTEX
  8
0
 10
129.485124
 20
233.298340
 42
0.191096
  0
VERTEX
  8
0
 10
129.756590
 20
233.129262
 42
0.416014
  0
VERTEX
  8
0
 10
129.931866
 20
233.251523
 42
0.040439
  0
VERTEX
  8
0
 10
129.984687
 20
233.821429
 42
-0.091051
  0
VERTEX
  8
0
 10
130.106818
 20
234.445729
 42
-0.034869
  0
VERTEX
  8
0
 10
130.488820
 20
235.247768
 42
-0.033102
  0
VERTEX
  8
0
 10
131.035584
 20
236.081600
 42
-0.034782
  0
VERTEX
  8
0
 10
131.679382
 20
236.821429
 42
0.022973
  0
VERTEX
  8
0
 10
132.624214
 20
237.856814
 42
0.306522
  0
VERTEX
  8
0
 10
132.672568
 20
238.344130
 42
0.206874
  0
VERTEX
  8
0
 10
132.217373
 20
238.702429
 42
0.011617
  0
VERTEX
  8
0
 10
130.429382
 20
239.131685
 42
-0.002442
  0
VERTEX
  8
0
 10
128.513959
 20
239.554521
 42
-0.611145
  0
VERTEX
  8
0
 10
128.479568
 20
239.688370
 42
-0.173978
  0
VERTEX
  8
0
 10
128.749681
 20
239.796456
 42
-0.001201
  0
VERTEX
  8
0
 10
131.275680
 20
239.881685
 42
0.000000
  0
VERTEX
  8
0
 10
135.051360
 20
240.000000
 42
0.000000
  0
SEQEND
  0
POLYLINE
  8
0
 66
1
 70
1
  0
VERTEX
  8
0
 10
119.041155
 20
237.861267
 42
0.029248
  0
VERTEX
  8
0
 10
115.154162
 20
236.980792
 42
0.044087
  0
VERTEX
  8
0
 10
111.917300
 20
235.727726
 42
0.053404
  0
VERTEX
  8
0
 10
109.670392
 20
234.305908
 42
0.228852
  0
VERTEX
  8
0
 10
109.000000
 20
232.917930
 42
-0.139374
  0
VERTEX
  8
0
 10
108.904905
 20
232.583407
 42
-0.191162
  0
VERTEX
  8
0
 10
108.656330
 20
232.398680
 42
-0.138670
  0
VERTEX
  8
0
 10
108.278014
 20
232.404070
 42
-0.066032
  0
VERTEX
  8
0
 10
107.830061
 20
232.605028
 42
0.068477
  0
VERTEX
  8
0
 10
107.344342
 20
232.820095
 42
0.388760
  0
VERTEX
  8
0
 10
107.112649
 20
232.704880
 42
0.164442
  0
VERTEX
  8
0
 10
107.095567
 20
232.296521
 42
0.020565
  0
VERTEX
  8
0
 10
107.382914
 20
231.444526
 42
-0.017536
  0
VERTEX
  8
0
 10
107.618299
 20
230.760309
 42
-0.067297
  0
VERTEX
  8
0
 10
107.690705
 20
230.316938
 42
-0.367374
  0
VERTEX
  8
0
 10
107.593815
 20
230.196298
 42
-0.248804
  0
VERTEX
  8
0
 10
107.415731
 20
230.250936
 42
0.255690
  0
VERTEX
  8
0
 10
106.960155
 20
230.384283
 42
0.040234
  0
VERTEX
  8
0
 10
106.034425
 20
230.101638
 42
0.036297
  0
VERTEX
  8
0
 10
104.898443
 20
229.553851
 42
0.024229
  0
VERTEX
  8
0
 10
103.682314
 20
228.773788
 42
-0.014981
  0
VERTEX
  8
0
 10
102.519940
 20
227.997505
 42
-0.060365
  0
VERTEX
  8
0
 10
101.748520
 20
227.635962
 42
-0.356212
  0
VERTEX
  8
0
 10
101.489298
 20
227.735524
 42
-0.269283
  0
VERTEX
  8
0
 10
101.491330
 20
228.053333
 42
0.051173
  0
VERTEX
  8
0
 10
101.719550
 20
228.550659
 42
0.598427
  0
VERTEX
  8
0
 10
101.605564
 20
228.672878
 42
0.105227
  0
VERTEX
  8
0
 10
101.196632
 20
228.466198
 42
0.010256
  0
VERTEX
  8
0
 10
100.343154
 20
227.750000
 42
-0.023605
  0
VERTEX
  8
0
 10
99.500232
 20
227.080170
 42
-0.025827
  0
VERTEX
  8
0
 10
98.622116
 20
226.514062
 42
-0.026474
  0
VERTEX
  8
0
 10
97.827645
 20
226.112443
 42
-0.104153
  0
VERTEX
  8
0
 10
97.293704
 20
226.000000
 42
0.106390
  0
VERTEX
  8
0
 10
96.802772
 20
225.894344
 42
0.039653
  0
VERTEX
  8
0
 10
96.181401
 20
225.552276
 42
0.037072
  0
VERTEX
  8
0
 10
95.541419
 20
225.059056
 42
0.036856
  0
VERTEX
  8
0
 10
94.979944
 20
224.475834
 42
-0.034487
  0
VERTEX
  8
0
 10
94.458353
 20
223.928885
 42
-0.055093
  0
VERTEX
  8
0
 10
93.937168
 20
223.548800
 42
-0.075235
  0
VERTEX
  8
0
 10
93.493551
 20
223.376818
 42
-0.256688
  0
VERTEX
  8
0
 10
93.206376
 20
223.460290
 42
0.278867
  0
VERTEX
  8
0
 10
92.910622
 20
223.533132
 42
0.065856
  0
VERTEX
  8
0
 10
92.429145
 20
223.310008
 42
0.049282
  0
VERTEX
  8
0
 10
91.856891
 20
222.862238
 42
0.030326
  0
VERTEX
  8
0
 10
91.274719
 20
222.234456
 42
-0.008111
  0
VERTEX
  8
0
 10
90.690698
 20
221.545719
 42
-0.130196
  0
VERTEX
  8
0
 10
90.439685
 20
221.376802
 42
-0.639299
  0
VERTEX
  8
0
 10
90.359162
 20
221.460417
 42
-0.022622
  0
VERTEX
  8
0
 10
90.597737
 20
222.000000
 42
0.018984
  0
VERTEX
  8
0
 10
90.946442
 20
222.773409
 42
0.559214
  0
VERTEX
  8
0
 10
90.841239
 20
222.916443
 42
0.148329
  0
VERTEX
  8
0
 10
90.504931
 20
222.783027
 42
0.005366
  0
VERTEX
  8
0
 10
89.421894
 20
221.902000
 42
-0.022384
  0
VERTEX
  8
0
 10
88.552143
 20
221.242349
 42
-0.016049
  0
VERTEX
  8
0
 10
87.526066
 20
220.581732
 42
-0.016256
  0
VERTEX
  8
0
 10
86.506350
 20
220.014795
 42
-0.033247
  0
VERTEX
  8
0
 10
85.666842
 20
219.651474
 42
0.170361
  0
VERTEX
  8
0
 10
84.533225
 20
218.735786
 42
0.263576
  0
VERTEX
  8
0
 10
84.486090
 20
217.509926
 42
0.093341
  0
VERTEX
  8
0
 10
85.848254
 20
215.766130
 42
0.017155
  0
VERTEX
  8
0
 10
89.019938
 20
213.163286
 42
0.018611
  0
VERTEX
  8
0
 10
91.357260
 20
211.509840
 42
0.054308
  0
VERTEX
  8
0
 10
93.116533
 20
210.616286
 42
0.073171
  0
VERTEX
  8
0
 10
94.706522
 20
210.268462
 42
0.060366
  0
VERTEX
  8
0
 10
96.441429
 20
210.357544
 42
-0.001584
  0
VERTEX
  8
0
 10
98.460664
 20
210.701499
 42
-0.216160
  0
VERTEX
  8
0
 10
98.693346
 20
210.639546
 42
-0.543687
  0
VERTEX
  8
0
 10
98.677658
 20
210.498999
 42
-0.002773
  0
VERTEX
  8
0
 10
97.174255
 20
209.757645
 42
-0.055400
  0
VERTEX
  8
0
 10
95.835431
 20
209.281200
 42
-0.089077
  0
VERTEX
  8
0
 10
94.629029
 20
209.216571
 42
-0.069653
  0
VERTEX
  8
0
 10
93.275794
 20
209.581270
 42
-0.022921
  0
VERTEX
  8
0
 10
91.413550
 20
210.476623
 42
-0.054050
  0
VERTEX
  8
0
 10
87.953276
 20
212.854062
 42
-0.016353
  0
VERTEX
  8
0
 10
83.252134
 20
217.169879
 42
-0.008044
  0
VERTEX
  8
0
 10
78.687813
 20
221.790075
 42
-0.341632
  0
VERTEX
  8
0
 10
78.551711
 20
223.083671
 42
-0.125562
  0
VERTEX
  8
0
 10
79.931160
 20
224.414352
 42
-0.005763
  0
VERTEX
  8
0
 10
85.694073
 20
227.608171
 42
-0.010481
  0
VERTEX
  8
0
 10
91.908408
 20
230.792852
 42
-0.015468
  0
VERTEX
  8
0
 10
97.500000
 20
233.301187
 42
-0.022169
  0
VERTEX
  8
0
 10
103.452142
 20
235.449755
 42
-0.018169
  0
VERTEX
  8
0
 10
109.977906
 20
237.226009
 42
-0.018646
  0
VERTEX
  8
0
 10
116.168302
 20
238.430228
 42
-0.040371
  0
VERTEX
  8
0
 10
121.000000
 20
238.789131
 42
-0.013209
  0
VERTEX
  8
0
 10
122.503990
 20
238.739529
 42
-0.776040
  0
VERTEX
  8
0
 10
122.536300
 20
238.572870
 42
-0.066728
  0
VERTEX
  8
0
 10
121.781669
 20
238.331880
 42
-0.002893
  0
SEQEND
  0
POLYLINE
  8
0
 66
1
 70
1
  0
VERTEX
  8
0
 10
64.210577
 20
207.982916
 42
0.038206
  0
VERTEX
  8
0
 10
61.052651
 20
206.268681
 42
0.145345
  0
VERTEX
  8
0
 10
59.608592
 20
204.583262
 42
0.121551
  0
VERTEX
  8
0
 10
59.181088
 20
202.204815
 42
0.023217
  0
VERTEX
  8
0
 10
59.669073
 20
197.806574
 42
0.013130
  0
VERTEX
  8
0
 10
60.227841
 20
194.790425
 42
0.083762
  0
VERTEX
  8
0
 10
60.798047
 20
193.348492
 42
0.152177
  0
VERTEX
  8
0
 10
61.653773
 20
192.590280
 42
0.076861
  0
VERTEX
  8
0
 10
63.056529
 20
192.202667
 42
0.129348
  0
VERTEX
  8
0
 10
65.652571
 20
192.571399
 42
0.159215
  0
VERTEX
  8
0
 10
67.491850
 20
194.165600
 42
0.096903
  0
VERTEX
  8
0
 10
68.615309
 20
197.265707
 42
0.029655
  0
VERTEX
  8
0
 10
69.091131
 20
202.249941
 42
0.006309
  0
VERTEX
  8
0
 10
69.152071
 20
204.868642
 42
0.009565
  0
VERTEX
  8
0
 10
69.132753
 20
207.146603
 42
0.004802
  0
VERTEX
  8
0
 10
69.061579
 20
209.058283
 42
0.186772
  0
VERTEX
  8
0
 10
68.892544
 20
209.440789
 42
0.264978
  0
VERTEX
  8
0
 10
68.542472
 20
209.536675
 42
0.012791
  0
VERTEX
  8
0
 10
67.335343
 20
209.194413
 42
0.018042
  0
VERTEX
  8
0
 10
65.867834
 20
208.678691
 42
0.011732
  0
SEQEND
  0
POLYLINE
  8
0
 66
1
 70
1
  0
VERTEX
  8
0
 10
65.250000
 20
205.779505
 42
0.072143
  0
VERTEX
  8
0
 10
64.119073
 20
205.016690
 42
0.110616
  0
VERTEX
  8
0
 10
63.441798
 20
204.053852
 42
0.077068
  0
VERTEX
  8
0
 10
63.097515
 20
202.639917
 42
0.021257
  0
VERTEX
  8
0
 10
63.000000
 20
200.347186
 42
0.018265
  0
VERTEX
  8
0
 10
63.074200
 20
198.316694
 42
0.061090
  0
VERTEX
  8
0
 10
63.332046
 20
197.011768
 42
0.114412
  0
VERTEX
  8
0
 10
63.780098
 20
196.272615
 42
0.202195
  0
VERTEX
  8
0
 10
64.426676
 20
196.000000
 42
0.112012
  0
VERTEX
  8
0
 10
65.006208
 20
196.131478
 42
0.075733
  0
VERTEX
  8
0
 10
65.568604
 20
196.514062
 42
0.070280
  0
VERTEX
  8
0
 10
66.028982
 20
197.081133
 42
0.071619
  0
VERTEX
  8
0
 10
66.310674
 20
197.750000
 42
-0.011590
  0
VERTEX
  8
0
 10
66.550633
 20
198.588300
 42
-0.541772
  0
VERTEX
  8
0
 10
66.693656
 20
198.628780
 42
-0.197309
  0
VERTEX
  8
0
 10
66.812001
 20
198.392295
 42
-0.005718
  0
VERTEX
  8
0
 10
66.883999
 20
197.250000
 42
-0.038911
  0
VERTEX
  8
0
 10
66.861355
 20
196.388313
 42
-0.059679
  0
VERTEX
  8
0
 10
66.696200
 20
195.660937
 42
-0.080466
  0
VERTEX
  8
0
 10
66.424388
 20
195.167005
 42
-0.230754
  0
VERTEX
  8
0
 10
66.081787
 20
195.000000
 42
0.044250
  0
VERTEX
  8
0
 10
65.621647
 20
194.959197
 42
0.015326
  0
VERTEX
  8
0
 10
64.968650
 20
194.821697
 42
0.015089
  0
VERTEX
  8
0
 10
64.254744
 20
194.625376
 42
0.016969
  0
VERTEX
  8
0
 10
63.581787
 20
194.393011
 42
-0.203199
  0
VERTEX
  8
0
 10
62.792562
 20
194.420275
 42
-0.216202
  0
VERTEX
  8
0
 10
62.290390
 20
195.005136
 42
-0.063148
  0
VERTEX
  8
0
 10
62.051968
 20
196.506421
 42
-0.007842
  0
VERTEX
  8
0
 10
62.000000
 20
199.819687
 42
-0.010905
  0
VERTEX
  8
0
 10
62.069533
 20
203.007500
 42
-0.054987
  0
VERTEX
  8
0
 10
62.341459
 20
204.765300
 42
-0.113651
  0
VERTEX
  8
0
 10
62.876234
 20
205.768690
 42
-0.150926
  0
VERTEX
  8
0
 10
63.750000
 20
206.310674
 42
-0.009014
  0
VERTEX
  8
0
 10
65.816711
 20
206.811143
 42
-0.140894
  0
VERTEX
  8
0
 10
66.535521
 20
206.767682
 42
-0.636415
  0
VERTEX
  8
0
 10
66.563206
 20
206.482967
 42
-0.021209
  0
SEQEND
  0
POLYLINE
  8
0
 66
1
 70
1
  0
VERTEX
  8
0
 10
31.921444
 20
203.592588
 42
0.090693
  0
VERTEX
  8
0
 10
25.048976
 20
196.824613
 42
0.050140
  0
VERTEX
  8
0
 10
19.258705
 20
186.520732
 42
0.047720
  0
VERTEX
  8
0
 10
15.326311
 20
174.510082
 42
0.055317
  0
VERTEX
  8
0
 10
14.000000
 20
162.558447
 42
0.041119
  0
VERTEX
  8
0
 10
14.263785
 20
159.356278
 42
0.728506
  0
VERTEX
  8
0
 10
14.937279
 20
159.256412
 42
0.081502
  0
VERTEX
  8
0
 10
15.774786
 20
162.001172
 42
0.015249
  0
VERTEX
  8
0
 10
16.317417
 20
167.250000
 42
-0.026480
  0
VERTEX
  8
0
 10
17.166335
 20
173.980595
 42
-0.029341
  0
VERTEX
  8
0
 10
18.705899
 20
180.352410
 42
-0.029369
  0
VERTEX
  8
0
 10
20.979160
 20
186.494810
 42
-0.026632
  0
VERTEX
  8
0
 10
24.022447
 20
192.539232
 42
-0.042254
  0
VERTEX
  8
0
 10
27.924491
 20
198.192452
 42
-0.078997
  0
VERTEX
  8
0
 10
32.077314
 20
201.868178
 42
-0.166565
  0
VERTEX
  8
0
 10
35.331287
 20
202.653328
 42
-0.315286
  0
VERTEX
  8
0
 10
37.293210
 20
200.986765
 42
-0.102452
  0
VERTEX
  8
0
 10
37.347594
 20
199.933460
 42
-0.071133
  0
VERTEX
  8
0
 10
37.000441
 20
198.789494
 42
-0.056240
  0
VERTEX
  8
0
 10
36.244416
 20
197.553668
 42
-0.031014
  0
VERTEX
  8
0
 10
35.070630
 20
196.224476
 42
0.102553
  0
VERTEX
  8
0
 10
30.817651
 20
189.747281
 42
0.042014
  0
VERTEX
  8
0
 10
27.768339
 20
179.626293
 42
0.039912
  0
VERTEX
  8
0
 10
26.265487
 20
168.029592
 42
0.045165
  0
VERTEX
  8
0
 10
26.727298
 20
156.820640
 42
-0.005743
  0
VERTEX
  8
0
 10
27.115736
 20
153.598118
 42
-0.008908
  0
VERTEX
  8
0
 10
27.369338
 20
150.808433
 42
-0.003908
  0
VERTEX
  8
0
 10
27.523152
 20
148.446451
 42
-0.212978
  0
VERTEX
  8
0
 10
27.368201
 20
148.037855
 42
-0.234772
  0
VERTEX
  8
0
 10
27.067684
 20
147.935776
 42
-0.042307
  0
VERTEX
  8
0
 10
26.473766
 20
148.067533
 42
-0.037783
  0
VERTEX
  8
0
 10
25.745005
 20
148.357260
 42
-0.026084
  0
VERTEX
  8
0
 10
24.968090
 20
148.787855
 42
0.028110
  0
VERTEX
  8
0
 10
24.122868
 20
149.251846
 42
0.024240
  0
VERTEX
  8
0
 10
23.188650
 20
149.643932
 42
0.024969
  0
VERTEX
  8
0
 10
22.305101
 20
149.916250
 42
0.062342
  0
VERTEX
  8
0
 10
21.636014
 20
150.000000
 42
-0.085951
  0
VERTEX
  8
0
 10
21.013088
 20
150.107879
 42
-0.043623
  0
VERTEX
  8
0
 10
20.287846
 20
150.440625
 42
-0.041624
  0
VERTEX
  8
0
 10
19.579122
 20
150.926056
 42
-0.048620
  0
VERTEX
  8
0
 10
19.000000
 20
151.500000
 42
0.062654
  0
VERTEX
  8
0
 10
17.964966
 20
152.469909
 42
0.101350
  0
VERTEX
  8
0
 10
16.869903
 20
152.966537
 42
0.365464
  0
VERTEX
  8
0
 10
16.398709
 20
152.723020
 42
0.241168
  0
VERTEX
  8
0
 10
16.450422
 20
152.080219
 42
0.146305
  0
VERTEX
  8
0
 10
19.566613
 20
149.310102
 42
0.019296
  0
VERTEX
  8
0
 10
27.808584
 20
145.849370
 42
0.015351
  0
VERTEX
  8
0
 10
36.331820
 20
142.946630
 42
0.277551
  0
VERTEX
  8
0
 10
39.014232
 20
143.614232
 42
0.167089
  0
VERTEX
  8
0
 10
39.986236
 20
145.604643
 42
0.005645
  0
VERTEX
  8
0
 10
40.975084
 20
154.407034
 42
0.011283
  0
VERTEX
  8
0
 10
41.722458
 20
163.967469
 42
0.013481
  0
VERTEX
  8
0
 10
41.979854
 20
173.000000
 42
0.018741
  0
VERTEX
  8
0
 10
41.549258
 20
184.972632
 42
0.024948
  0
VERTEX
  8
0
 10
40.210294
 20
195.775832
 42
0.020219
  0
VERTEX
  8
0
 10
38.352342
 20
204.340173
 42
0.341613
  0
VERTEX
  8
0
 10
36.206454
 20
206.000000
 42
0.119286
  0
VERTEX
  8
0
 10
35.752226
 20
205.890069
 42
0.009243
  0
VERTEX
  8
0
 10
34.641581
 20
205.292823
 42
0.012222
  0
VERTEX
  8
0
 10
33.332550
 20
204.514689
 42
0.009022
  0
SEQEND
  0
POLYLINE
  8
0
 66
1
 70
1
  0
VERTEX
  8
0
 10
37.365655
 20
187.489502
 42
-0.015516
  0
VERTEX
  8
0
 10
37.583264
 20
186.865167
 42
-0.016274
  0
VERTEX
  8
0
 10
37.757967
 20
186.238327
 42
-0.016134
  0
VERTEX
  8
0
 10
37.873286
 20
185.689196
 42
-0.066838
  0
VERTEX
  8
0
 10
37.887233
 20
185.351306
 42
0.154720
  0
VERTEX
  8
0
 10
37.951633
 20
185.056092
 42
0.046891
  0
VERTEX
  8
0
 10
38.219484
 20
184.677311
 42
0.041979
  0
VERTEX
  8
0
 10
38.617804
 20
184.285100
 42
0.035061
  0
VERTEX
  8
0
 10
39.099823
 20
183.938306
 42
-0.218085
  0
VERTEX
  8
0
 10
39.726818
 20
182.997353
 42
-0.020620
  0
VERTEX
  8
0
 10
40.058804
 20
180.175205
 42
-0.016840
  0
VERTEX
  8
0
 10
40.240935
 20
175.860566
 42
-0.004459
  0
VERTEX
  8
0
 10
40.238120
 20
168.962723
 42
-0.003763
  0
VERTEX
  8
0
 10
40.145741
 20
163.481879
 42
-0.005900
  0
VERTEX
  8
0
 10
39.975246
 20
158.771431
 42
-0.001968
  0
VERTEX
  8
0
 10
39.764876
 20
154.722878
 42
-0.184436
  0
VERTEX
  8
0
 10
39.529077
 20
154.195744
 42
-0.254811
  0
VERTEX
  8
0
 10
39.186831
 20
154.094955
 42
-0.062860
  0
VERTEX
  8
0
 10
38.614717
 20
154.296150
 42
-0.048945
  0
VERTEX
  8
0
 10
37.929430
 20
154.727251
 42
-0.031680
  0
VERTEX
  8
0
 10
37.226190
 20
155.347382
 42
-0.110471
  0
VERTEX
  8
0
 10
36.339185
 20
156.747428
 42
-0.052392
  0
VERTEX
  8
0
 10
35.828855
 20
158.832933
 42
-0.028139
  0
VERTEX
  8
0
 10
35.567059
 20
162.138445
 42
-0.005693
  0
VERTEX
  8
0
 10
35.500000
 20
168.027842
 42
0.003418
  0
VERTEX
  8
0
 10
35.462279
 20
173.545292
 42
0.026882
  0
VERTEX
  8
0
 10
35.289718
 20
176.100763
 42
0.326890
  0
VERTEX
  8
0
 10
34.929865
 20
176.484681
 42
0.366932
  0
VERTEX
  8
0
 10
34.500000
 20
176.239984
 42
-0.053727
  0
VERTEX
  8
0
 10
33.411335
 20
174.027634
 42
-0.265316
  0
VERTEX
  8
0
 10
32.230085
 20
173.401406
 42
-0.258903
  0
VERTEX
  8
0
 10
31.066540
 20
174.095544
 42
-0.051908
  0
VERTEX
  8
0
 10
30.039852
 20
176.379247
 42
-0.030895
  0
VERTEX
  8
0
 10
29.588352
 20
178.097178
 42
-0.048837
  0
VERTEX
  8
0
 10
29.439998
 20
179.611784
 42
-0.051481
  0
VERTEX
  8
0
 10
29.590221
 20
181.067536
 42
-0.039426
  0
VERTEX
  8
0
 10
30.039589
 20
182.604128
 42
-0.052481
  0
VERTEX
  8
0
 10
31.821381
 20
186.127635
 42
-0.102763
  0
VERTEX
  8
0
 10
34.018560
 20
188.358190
 42
-0.208254
  0
VERTEX
  8
0
 10
35.972195
 20
188.708628
 42
-0.247697
  0
SEQEND
  0
POLYLINE
  8
0
 66
1
 70
1
  0
VERTEX
  8
0
 10
134.249557
 20
198.296114
 42
0.033246
  0
VERTEX
  8
0
 10
131.066430
 20
193.652797
 42
0.021732
  0
VERTEX
  8
0
 10
128.003800
 20
187.925078
 42
0.020066
  0
VERTEX
  8
0
 10
125.631554
 20
182.428556
 42
0.092087
  0
VERTEX
  8
0
 10
125.000000
 20
179.028517
 42
0.038776
  0
VERTEX
  8
0
 10
125.196127
 20
176.503341
 42
0.495892
  0
VERTEX
  8
0
 10
125.914574
 20
176.115449
 42
0.224889
  0
VERTEX
  8
0
 10
126.765737
 20
177.120413
 42
0.025442
  0
VERTEX
  8
0
 10
127.402863
 20
180.117906
 42
-0.051999
  0
VERTEX
  8
0
 10
128.535454
 20
184.333510
 42
-0.019134
  0
VERTEX
  8
0
 10
130.964130
 20
190.004417
 42
-0.018879
  0
VERTEX
  8
0
 10
133.792951
 20
195.429405
 42
-0.058564
  0
VERTEX
  8
0
 10
136.238723
 20
198.746057
 42
0.023842
  0
VERTEX
  8
0
 10
137.004556
 20
199.646620
 42
0.037571
  0
VERTEX
  8
0
 10
137.562032
 20
200.493914
 42
0.043319
  0
VERTEX
  8
0
 10
137.872429
 20
201.188506
 42
0.287302
  0
VERTEX
  8
0
 10
137.791162
 20
201.542171
 42
0.374650
  0
VERTEX
  8
0
 10
137.425200
 20
201.567268
 42
0.023361
  0
VERTEX
  8
0
 10
136.523917
 20
200.815541
 42
0.025342
  0
VERTEX
  8
0
 10
135.436158
 20
199.712094
 42
0.015039
  0
SEQEND
  0
POLYLINE
  8
0
 66
1
 70
1
  0
VERTEX
  8
0
 10
49.000000
 20
190.333333
 42
0.003538
  0
VERTEX
  8
0
 10
49.028744
 20
186.271356
 42
0.006265
  0
VERTEX
  8
0
 10
49.118121
 20
182.922396
 42
0.002270
  0
VERTEX
  8
0
 10
49.239737
 20
180.144391
 42
0.657198
  0
VERTEX
  8
0
 10
49.402115
 20
180.083333
 42
0.166517
  0
VERTEX
  8
0
 10
49.578411
 20
180.460132
 42
0.001736
  0
VERTEX
  8
0
 10
49.884487
 20
183.388542
 42
0.005318
  0
VERTEX
  8
0
 10
50.191659
 20
186.791091
 42
0.003402
  0
VERTEX
  8
0
 10
50.479559
 20
190.750000
 42
0.006189
  0
VERTEX
  8
0
 10
50.729404
 20
195.423248
 42
0.020064
  0
VERTEX
  8
0
 10
50.732235
 20
198.528382
 42
0.023032
  0
VERTEX
  8
0
 10
50.556902
 20
200.579705
 42
0.376253
  0
VERTEX
  8
0
 10
50.077443
 20
201.000000
 42
0.365617
  0
VERTEX
  8
0
 10
49.588614
 20
200.587396
 42
0.017014
  0
VERTEX
  8
0
 10
49.275253
 20
198.275005
 42
0.018318
  0
VERTEX
  8
0
 10
49.063597
 20
194.974310
 42
0.006851
  0
SEQEND
  0
POLYLINE
  8
0
 66
1
 70
1
  0
VERTEX
  8
0
 10
161.500000
 20
199.309780
 42
0.060890
  0
VERTEX
  8
0
 10
155.396362
 20
195.005409
 42
0.030528
  0
VERTEX
  8
0
 10
148.789405
 20
188.244917
 42
0.030191
  0
VERTEX
  8
0
 10
142.852334
 20
180.475680
 42
0.045450
  0
VERTEX
  8
0
 10
138.758271
 20
173.004854
 42
0.039786
  0
VERTEX
  8
0
 10
136.953296
 20
167.751435
 42
0.019062
  0
VERTEX
  8
0
 10
135.442501
 20
160.776053
 42
0.018661
  0
VERTEX
  8
0
 10
134.401923
 20
153.275720
 42
0.023925
  0
VERTEX
  8
0
 10
134.034888
 20
146.317388
 42
0.023953
  0
VERTEX
  8
0
 10
134.260037
 20
141.089383
 42
0.187165
  0
VERTEX
  8
0
 10
135.324052
 20
138.947112
 42
0.160384
  0
VERTEX
  8
0
 10
137.644855
 20
137.905963
 42
0.016457
  0
VERTEX
  8
0
 10
143.723216
 20
137.475307
 42
0.010790
  0
VERTEX
  8
0
 10
147.837665
 20
137.408467
 42
0.445934
  0
VERTEX
  8
0
 10
148.365277
 20
138.002168
 42
0.338525
  0
VERTEX
  8
0
 10
147.707641
 20
138.686867
 42
0.010122
  0
VERTEX
  8
0
 10
143.523506
 20
139.244461
 42
-0.039436
  0
VERTEX
  8
0
 10
139.323199
 20
140.056931
 42
-0.167110
  0
VERTEX
  8
0
 10
137.241118
 20
141.484611
 42
-0.137028
  0
VERTEX
  8
0
 10
136.249309
 20
144.070719
 42
-0.023468
  0
VERTEX
  8
0
 10
136.000000
 20
149.379474
 42
-0.051483
  0
VERTEX
  8
0
 10
137.032744
 20
159.382898
 42
-0.037298
  0
VERTEX
  8
0
 10
140.133939
 20
170.155019
 42
-0.037737
  0
VERTEX
  8
0
 10
144.724080
 20
180.155384
 42
-0.059450
  0
VERTEX
  8
0
 10
150.240569
 20
187.809315
 42
-0.028152
  0
VERTEX
  8
0
 10
153.155846
 20
190.643169
 42
-0.011506
  0
VERTEX
  8
0
 10
157.410917
 20
194.168901
 42
-0.005733
  0
VERTEX
  8
0
 10
161.792531
 20
197.551674
 42
-0.162916
  0
VERTEX
  8
0
 10
163.131951
 20
198.000000
 42
-0.467822
  0
VERTEX
  8
0
 10
163.351274
 20
197.737298
 42
-0.038390
  0
VERTEX
  8
0
 10
163.093005
 20
196.751563
 42
-0.030315
  0
VERTEX
  8
0
 10
162.523821
 20
195.380919
 42
-0.015957
  0
VERTEX
  8
0
 10
161.662018
 20
193.750000
 42
0.025161
  0
VERTEX
  8
0
 10
159.157537
 20
188.791616
 42
0.029976
  0
VERTEX
  8
0
 10
157.324376
 20
183.883845
 42
0.028588
  0
VERTEX
  8
0
 10
156.029292
 20
178.600362
 42
0.019702
  0
VERTEX
  8
0
 10
155.145834
 20
172.500000
 42
0.028401
  0
VERTEX
  8
0
 10
154.796140
 20
165.164574
 42
0.019452
  0
VERTEX
  8
0
 10
155.196660
 20
156.835531
 42
0.019162
  0
VERTEX
  8
0
 10
156.168242
 20
149.120174
 42
0.058113
  0
VERTEX
  8
0
 10
157.626394
 20
144.043255
 42
-0.005114
  0
VERTEX
  8
0
 10
158.192073
 20
142.649486
 42
-0.007191
  0
VERTEX
  8
0
 10
158.666006
 20
141.393956
 42
-0.004500
  0
VERTEX
  8
0
 10
159.038181
 20
140.333608
 42
-0.092553
  0
VERTEX
  8
0
 10
159.086548
 20
140.000000
 42
-0.307132
  0
VERTEX
  8
0
 10
158.921636
 20
139.776916
 42
-0.013689
  0
VERTEX
  8
0
 10
157.960912
 20
139.468247
 42
-0.019035
  0
VERTEX
  8
0
 10
156.734673
 20
139.161101
 42
-0.011998
  0
VERTEX
  8
0
 10
155.283118
 20
138.891905
 42
0.001851
  0
VERTEX
  8
0
 10
152.770913
 20
138.478549
 42
0.702053
  0
VERTEX
  8
0
 10
152.747450
 20
138.349471
 42
0.124464
  0
VERTEX
  8
0
 10
153.115845
 20
138.244037
 42
0.000783
  0
VERTEX
  8
0
 10
156.573784
 20
138.141905
 42
0.043660
  0
VERTEX
  8
0
 10
165.761517
 20
138.687406
 42
0.019770
  0
VERTEX
  8
0
 10
177.619171
 20
140.919963
 42
0.013500
  0
VERTEX
  8
0
 10
188.881211
 20
143.827239
 42
0.183175
  0
VERTEX
  8
0
 10
192.221833
 20
146.324692
 42
0.134756
  0
VERTEX
  8
0
 10
192.891813
 20
148.501341
 42
0.011145
  0
VERTEX
  8
0
 10
192.942129
 20
154.481174
 42
0.015768
  0
VERTEX
  8
0
 10
192.643673
 20
161.049454
 42
0.020804
  0
VERTEX
  8
0
 10
191.934952
 20
167.000000
 42
0.040935
  0
VERTEX
  8
0
 10
189.985890
 20
174.897115
 42
0.028707
  0
VERTEX
  8
0
 10
186.576318
 20
183.404080
 42
0.028670
  0
VERTEX
  8
0
 10
182.525237
 20
190.892044
 42
0.083596
  0
VERTEX
  8
0
 10
178.662514
 20
195.295761
 42
0.029082
  0
VERTEX
  8
0
 10
173.456825
 20
199.057891
 42
0.084675
  0
VERTEX
  8
0
 10
169.382395
 20
200.774295
 42
0.110023
  0
VERTEX
  8
0
 10
165.613959
 20
200.814200
 42
0.071122
  0
SEQEND
  0
POLYLINE
  8
0
 66
1
 70
1
  0
VERTEX
  8
0
 10
167.632941
 20
189.750000
 42
-0.154333
  0
VERTEX
  8
0
 10
167.428150
 20
190.606321
 42
-0.423092
  0
VERTEX
  8
0
 10
167.855291
 20
190.965211
 42
-0.137164
  0
VERTEX
  8
0
 10
168.896304
 20
190.556223
 42
-0.057838
  0
VERTEX
  8
0
 10
169.992399
 20
189.509159
 42
-0.088208
  0
VERTEX
  8
0
 10
170.436524
 20
188.727623
 42
-0.040388
  0
VERTEX
  8
0
 10
170.739148
 20
187.590360
 42
-0.038344
  0
VERTEX
  8
0
 10
170.871232
 20
186.308629
 42
-0.042968
  0
VERTEX
  8
0
 10
170.797054
 20
185.070601
 42
0.018876
  0
VERTEX
  8
0
 10
170.604956
 20
183.298499
 42
0.211826
  0
VERTEX
  8
0
 10
170.840416
 20
182.647903
 42
0.232189
  0
VERTEX
  8
0
 10
171.465842
 20
182.419765
 42
0.022723
  0
VERTEX
  8
0
 10
173.100356
 20
182.670071
 42
-0.046266
  0
VERTEX
  8
0
 10
174.587817
 20
182.826726
 42
-0.129623
  0
VERTEX
  8
0
 10
175.596085
 20
182.574267
 42
-0.115900
  0
VERTEX
  8
0
 10
176.415562
 20
181.835092
 42
-0.033239
  0
VERTEX
  8
0
 10
177.299898
 20
180.358629
 42
-0.084952
  0
VERTEX
  8
0
 10
179.122830
 20
174.541946
 42
-0.045423
  0
VERTEX
  8
0
 10
179.450740
 20
166.995118
 42
-0.045361
  0
VERTEX
  8
0
 10
178.463195
 20
159.885479
 42
-0.140086
  0
VERTEX
  8
0
 10
176.130530
 20
155.686086
 42
-0.019852
  0
VERTEX
  8
0
 10
174.880780
 20
154.531822
 42
-0.187360
  0
VERTEX
  8
0
 10
174.204160
 20
154.295840
 42
-0.172931
  0
VERTEX
  8
0
 10
173.517055
 20
154.568149
 42
-0.016401
  0
VERTEX
  8
0
 10
172.176044
 20
155.823956
 42
-0.082774
  0
VERTEX
  8
0
 10
170.467198
 20
158.216453
 42
-0.043331
  0
VERTEX
  8
0
 10
169.145379
 20
161.640155
 42
-0.037869
  0
VERTEX
  8
0
 10
168.272408
 20
165.814875
 42
-0.028391
  0
VERTEX
  8
0
 10
167.926630
 20
170.500000
 42
0.011219
  0
VERTEX
  8
0
 10
167.854783
 20
172.325358
 42
0.031700
  0
VERTEX
  8
0
 10
167.695595
 20
173.590625
 42
0.127964
  0
VERTEX
  8
0
 10
167.483733
 20
174.037076
 42
0.570276
  0
VERTEX
  8
0
 10
167.258824
 20
174.000000
 42
-0.047435
  0
VERTEX
  8
0
 10
166.922299
 20
173.330325
 42
-0.023737
  0
VERTEX
  8
0
 10
166.380473
 20
172.551654
 42
-0.023329
  0
VERTEX
  8
0
 10
165.738445
 20
171.792559
 42
-0.031758
  0
VERTEX
  8
0
 10
165.087771
 20
171.175843
 42
0.003086
  0
VERTEX
  8
0
 10
164.244769
 20
170.463936
 42
0.178700
  0
VERTEX
  8
0
 10
164.147594
 20
170.290075
 42
0.604653
  0
VERTEX
  8
0
 10
164.224254
 20
170.233101
 42
0.005918
  0
VERTEX
  8
0
 10
165.000000
 20
170.617801
 42
-0.011057
  0
VERTEX
  8
0
 10
165.860103
 20
171.033377
 42
-0.533533
  0
VERTEX
  8
0
 10
165.997516
 20
170.948705
 42
-0.177861
  0
VERTEX
  8
0
 10
165.908233
 20
170.673502
 42
-0.004105
  0
VERTEX
  8
0
 10
165.039568
 20
169.585940
 42
-0.038158
  0
VERTEX
  8
0
 10
164.103960
 20
168.598502
 42
-0.245370
  0
VERTEX
  8
0
 10
163.459649
 20
168.430662
 42
-0.147407
  0
VERTEX
  8
0
 10
162.744332
 20
168.839375
 42
-0.012156
  0
VERTEX
  8
0
 10
161.289568
 20
170.449746
 42
-0.130904
  0
VERTEX
  8
0
 10
159.375624
 20
174.411537
 42
-0.076289
  0
VERTEX
  8
0
 10
159.176884
 20
179.719382
 42
-0.072807
  0
VERTEX
  8
0
 10
160.612368
 20
185.110830
 42
-0.095243
  0
VERTEX
  8
0
 10
163.467033
 20
189.324176
 42
-0.032192
  0
VERTEX
  8
0
 10
164.451814
 20
190.189705
 42
-0.130570
  0
VERTEX
  8
0
 10
165.181833
 20
190.495778
 42
-0.154661
  0
VERTEX
  8
0
 10
165.896205
 20
190.373478
 42
-0.051121
  0
VERTEX
  8
0
 10
166.797904
 20
189.784517
 42
0.006332
  0
VERTEX
  8
0
 10
167.615993
 20
189.138927
 42
0.154745
  0
VERTEX
  8
0
 10
167.884804
 20
189.041300
 42
0.571928
  0
VERTEX
  8
0
 10
167.959532
 20
189.157103
 42
0.018755
  0
SEQEND
  0
POLYLINE
  8
0
 66
1
 70
1
  0
VERTEX
  8
0
 10
97.357241
 20
190.508162
 42
0.063776
  0
VERTEX
  8
0
 10
95.755643
 20
189.579616
 42
0.012150
  0
VERTEX
  8
0
 10
93.125281
 20
187.465198
 42
0.012783
  0
VERTEX
  8
0
 10
90.158748
 20
184.826662
 42
0.011442
  0
VERTEX
  8
0
 10
87.216726
 20
181.942920
 42
0.006887
  0
VERTEX
  8
0
 10
83.494440
 20
178.016731
 42
0.037420
  0
VERTEX
  8
0
 10
81.674309
 20
175.720109
 42
0.079890
  0
VERTEX
  8
0
 10
80.934112
 20
174.131039
 42
0.194362
  0
VERTEX
  8
0
 10
81.070291
 20
172.868660
 42
0.106298
  0
VERTEX
  8
0
 10
83.259806
 20
170.285984
 42
0.015927
  0
VERTEX
  8
0
 10
88.811915
 20
166.289123
 42
0.015445
  0
VERTEX
  8
0
 10
94.605086
 20
162.647353
 42
0.115597
  0
VERTEX
  8
0
 10
97.683966
 20
161.694447
 42
0.076726
  0
VERTEX
  8
0
 10
99.339225
 20
161.832444
 42
0.213021
  0
VERTEX
  8
0
 10
100.243611
 20
162.528700
 42
0.079608
  0
VERTEX
  8
0
 10
100.819800
 20
164.178235
 42
0.005643
  0
VERTEX
  8
0
 10
101.627092
 20
169.000000
 42
0.011079
  0
VERTEX
  8
0
 10
102.348478
 20
174.414777
 42
0.009085
  0
VERTEX
  8
0
 10
102.885407
 20
180.226877
 42
0.009049
  0
VERTEX
  8
0
 10
103.182179
 20
185.534741
 42
0.027583
  0
VERTEX
  8
0
 10
103.119406
 20
189.143011
 42
0.141412
  0
VERTEX
  8
0
 10
102.612808
 20
190.515872
 42
0.177763
  0
VERTEX
  8
0
 10
101.489950
 20
191.258740
 42
0.114513
  0
VERTEX
  8
0
 10
99.719833
 20
191.266873
 42
0.043675
  0
SEQEND
  0
POLYLINE
  8
0
 66
1
 70
1
  0
VERTEX
  8
0
 10
100.850168
 20
185.750000
 42
-0.000897
  0
VERTEX
  8
0
 10
100.746481
 20
183.585343
 42
-0.202175
  0
VERTEX
  8
0
 10
100.660063
 20
183.405817
 42
-0.591928
  0
VERTEX
  8
0
 10
100.563194
 20
183.440710
 42
-0.001448
  0
VERTEX
  8
0
 10
100.283746
 20
185.250000
 42
0.030681
  0
VERTEX
  8
0
 10
100.057403
 20
186.303206
 42
0.044494
  0
VERTEX
  8
0
 10
99.720796
 20
187.192187
 42
0.053306
  0
VERTEX
  8
0
 10
99.332844
 20
187.814569
 42
0.230687
  0
VERTEX
  8
0
 10
98.952322
 20
188.000000
 42
0.191519
  0
VERTEX
  8
0
 10
97.188325
 20
187.298594
 42
0.004971
  0
VERTEX
  8
0
 10
90.957478
 20
181.294671
 42
0.003713
  0
VERTEX
  8
0
 10
84.714376
 20
175.066243
 42
0.346082
  0
VERTEX
  8
0
 10
84.579107
 20
173.872002
 42
0.104791
  0
VERTEX
  8
0
 10
84.865577
 20
173.572039
 42
0.099122
  0
VERTEX
  8
0
 10
85.254695
 20
173.406611
 42
0.096491
  0
VERTEX
  8
0
 10
85.686506
 20
173.401428
 42
0.093569
  0
VERTEX
  8
0
 10
86.093875
 20
173.558018
 42
-0.099665
  0
VERTEX
  8
0
 10
86.436771
 20
173.685093
 42
-0.238149
  0
VERTEX
  8
0
 10
86.688107
 20
173.604205
 42
-0.188104
  0
VERTEX
  8
0
 10
86.811567
 20
173.327731
 42
-0.065687
  0
VERTEX
  8
0
 10
86.774777
 20
172.885841
 42
0.227820
  0
VERTEX
  8
0
 10
86.935558
 20
172.210562
 42
0.026301
  0
VERTEX
  8
0
 10
88.009226
 20
171.021218
 42
0.027476
  0
VERTEX
  8
0
 10
89.520098
 20
169.671987
 42
0.019046
  0
VERTEX
  8
0
 10
91.363014
 20
168.311511
 42
0.006881
  0
VERTEX
  8
0
 10
94.875696
 20
165.989622
 42
0.064654
  0
VERTEX
  8
0
 10
96.509112
 20
165.218284
 42
0.266341
  0
VERTEX
  8
0
 10
97.333548
 20
165.392752
 42
0.195517
  0
VERTEX
  8
0
 10
97.753469
 20
166.250000
 42
-0.027514
  0
VERTEX
  8
0
 10
97.845475
 20
166.986109
 42
-0.004096
  0
VERTEX
  8
0
 10
98.124184
 20
168.454688
 42
-0.004599
  0
VERTEX
  8
0
 10
98.483942
 20
170.185469
 42
-0.003948
  0
VERTEX
  8
0
 10
98.893585
 20
172.000000
 42
0.000000
  0
VERTEX
  8
0
 10
99.946898
 20
176.500000
 42
0.000000
  0
VERTEX
  8
0
 10
99.548355
 20
170.775709
 42
-0.008980
  0
VERTEX
  8
0
 10
99.349565
 20
168.508872
 42
-0.011526
  0
VERTEX
  8
0
 10
99.081335
 20
166.432704
 42
-0.009479
  0
VERTEX
  8
0
 10
98.785874
 20
164.716532
 42
-0.091284
  0
VERTEX
  8
0
 10
98.518155
 20
164.029376
 42
-0.388084
  0
VERTEX
  8
0
 10
96.777100
 20
163.534683
 42
-0.023070
  0
VERTEX
  8
0
 10
91.577477
 20
166.440935
 42
-0.029184
  0
VERTEX
  8
0
 10
86.509311
 20
170.014644
 42
-0.102075
  0
VERTEX
  8
0
 10
83.962339
 20
173.070370
 42
-0.243711
  0
VERTEX
  8
0
 10
83.935920
 20
175.057481
 42
-0.051245
  0
VERTEX
  8
0
 10
85.863302
 20
178.083022
 42
-0.040000
  0
VERTEX
  8
0
 10
89.219826
 20
181.689131
 42
-0.021254
  0
VERTEX
  8
0
 10
93.893802
 20
185.616148
 42
-0.017187
  0
VERTEX
  8
0
 10
97.596542
 20
188.270184
 42
-0.143035
  0
VERTEX
  8
0
 10
99.545957
 20
188.880441
 42
-0.343535
  0
VERTEX
  8
0
 10
100.590352
 20
188.098666
 42
-0.078282
  0
SEQEND
  0
POLYLINE
  8
0
 66
1
 70
1
  0
VERTEX
  8
0
 10
96.457295
 20
182.069098
 42
-0.090093
  0
VERTEX
  8
0
 10
96.612382
 20
181.673795
 42
-0.095385
  0
VERTEX
  8
0
 10
96.614038
 20
181.257398
 42
-0.099739
  0
VERTEX
  8
0
 10
96.463027
 20
180.884780
 42
-0.108766
  0
VERTEX
  8
0
 10
96.182979
 20
180.613087
 42
-0.158515
  0
VERTEX
  8
0
 10
95.860929
 20
180.534562
 42
-0.191218
  0
VERTEX
  8
0
 10
95.582917
 20
180.669932
 42
-0.126631
  0
VERTEX
  8
0
 10
95.394948
 20
181.024148
 42
-0.059057
  0
VERTEX
  8
0
 10
95.333333
 20
181.543989
 42
-0.019984
  0
VERTEX
  8
0
 10
95.376303
 20
182.618676
 42
-0.269722
  0
VERTEX
  8
0
 10
95.592080
 20
182.929499
 42
-0.350126
  0
VERTEX
  8
0
 10
95.913397
 20
182.852054
 42
-0.026790
  0
SEQEND
  0
POLYLINE
  8
0
 66
1
 70
1
  0
VERTEX
  8
0
 10
13.400570
 20
138.380377
 42
0.101602
  0
VERTEX
  8
0
 10
14.689936
 20
135.607669
 42
0.064025
  0
VERTEX
  8
0
 10
17.173338
 20
133.024239
 42
0.042455
  0
VERTEX
  8
0
 10
21.209608
 20
130.307670
 42
0.014373
  0
VERTEX
  8
0
 10
27.500000
 20
127.042431
 42
-0.015513
  0
VERTEX
  8
0
 10
30.945637
 20
125.243874
 42
-0.020661
  0
VERTEX
  8
0
 10
33.949840
 20
123.387825
 42
-0.022934
  0
VERTEX
  8
0
 10
36.331442
 20
121.612415
 42
-0.062197
  0
VERTEX
  8
0
 10
37.779937
 20
120.088731
 42
0.018260
  0
VERTEX
  8
0
 10
38.721669
 20
118.905874
 42
0.024283
  0
VERTEX
  8
0
 10
39.665939
 20
117.907315
 42
0.022893
  0
VERTEX
  8
0
 10
40.505207
 20
117.172706
 42
0.169912
  0
VERTEX
  8
0
 10
40.998755
 20
117.000000
 42
-0.124571
  0
VERTEX
  8
0
 10
41.613800
 20
116.844351
 42
-0.004959
  0
VERTEX
  8
0
 10
43.653811
 20
115.714882
 42
-0.008479
  0
VERTEX
  8
0
 10
46.052493
 20
114.301311
 42
-0.005869
  0
VERTEX
  8
0
 10
48.718818
 20
112.625129
 42
0.023094
  0
VERTEX
  8
0
 10
60.412711
 20
105.823992
 42
0.021843
  0
VERTEX
  8
0
 10
72.899808
 20
99.992218
 42
0.022827
  0
VERTEX
  8
0
 10
85.090975
 20
95.575288
 42
0.036709
  0
VERTEX
  8
0
 10
95.851880
 20
93.071987
 42
0.035557
  0
VERTEX
  8
0
 10
102.859514
 20
92.481278
 42
0.023772
  0
VERTEX
  8
0
 10
110.906790
 20
92.759194
 42
0.022463
  0
VERTEX
  8
0
 10
119.458547
 20
93.850929
 42
0.021541
  0
VERTEX
  8
0
 10
128.000000
 20
95.715892
 42
0.018731
  0
VERTEX
  8
0
 10
134.933050
 20
97.826411
 42
0.017670
  0
VERTEX
  8
0
 10
141.827150
 20
100.486868
 42
0.017542
  0
VERTEX
  8
0
 10
147.717775
 20
103.250800
 42
0.065440
  0
VERTEX
  8
0
 10
151.078741
 20
105.572364
 42
-0.019332
  0
VERTEX
  8
0
 10
151.732226
 20
106.118912
 42
-0.023002
  0
VERTEX
  8
0
 10
152.390229
 20
106.580632
 42
-0.022624
  0
VERTEX
  8
0
 10
152.971736
 20
106.914068
 42
-0.119410
  0
VERTEX
  8
0
 10
153.326426
 20
107.000000
 42
0.137231
  0
VERTEX
  8
0
 10
153.763256
 20
107.122194
 42
0.004827
  0
VERTEX
  8
0
 10
155.268298
 20
108.055680
 42
0.008639
  0
VERTEX
  8
0
 10
157.032439
 20
109.216794
 42
0.005902
  0
VERTEX
  8
0
 10
158.997685
 20
110.593805
 42
-0.007675
  0
VERTEX
  8
0
 10
160.916911
 20
111.928449
 42
-0.013965
  0
VERTEX
  8
0
 10
162.530570
 20
112.949956
 42
-0.009502
  0
VERTEX
  8
0
 10
163.812484
 20
113.679558
 42
-0.568989
  0
VERTEX
  8
0
 10
164.000000
 20
113.568125
 42
0.557170
  0
VERTEX
  8
0
 10
164.652272
 20
113.164495
 42
0.035855
  0
VERTEX
  8
0
 10
167.000142
 20
114.553460
 42
0.032981
  0
VERTEX
  8
0
 10
169.512920
 20
116.551709
 42
0.085616
  0
VERTEX
  8
0
 10
170.930127
 20
118.369440
 42
-0.084046
  0
VERTEX
  8
0
 10
172.345542
 20
120.196593
 42
-0.056092
  0
VERTEX
  8
0
 10
174.485982
 20
121.763576
 42
-0.034016
  0
VERTEX
  8
0
 10
177.856907
 20
123.399678
 42
-0.008791
  0
VERTEX
  8
0
 10
183.500000
 20
125.564298
 42
0.009073
  0
VERTEX
  8
0
 10
185.573800
 20
126.361125
 42
0.008418
  0
VERTEX
  8
0
 10
187.670208
 20
127.251984
 42
0.008432
  0
VERTEX
  8
0
 10
189.508185
 20
128.107241
 42
0.027834
  0
VERTEX
  8
0
 10
190.675177
 20
128.757013
 42
0.102488
  0
VERTEX
  8
0
 10
192.298685
 20
130.324862
 42
0.043382
  0
VERTEX
  8
0
 10
193.789047
 20
132.977641
 42
0.040794
  0
VERTEX
  8
0
 10
194.739733
 20
135.634600
 42
0.279728
  0
VERTEX
  8
0
 10
194.367604
 20
136.912158
 42
0.178967
  0
VERTEX
  8
0
 10
194.085848
 20
137.027205
 42
0.154891
  0
VERTEX
  8
0
 10
193.776894
 20
136.940414
 42
0.105132
  0
VERTEX
  8
0
 10
193.483827
 20
136.644225
 42
0.057227
  0
VERTEX
  8
0
 10
193.257384
 20
136.182868
 42
-0.203226
  0
VERTEX
  8
0
 10
186.966509
 20
129.333740
 42
-0.038249
  0
VERTEX
  8
0
 10
170.644208
 20
123.368139
 42
-0.034043
  0
VERTEX
  8
0
 10
148.583444
 20
118.760908
 42
-0.021522
  0
VERTEX
  8
0
 10
122.401898
 20
116.271826
 42
-0.007732
  0
VERTEX
  8
0
 10
107.455732
 20
115.729297
 42
-0.004643
  0
VERTEX
  8
0
 10
89.700554
 20
115.524538
 42
-0.002892
  0
VERTEX
  8
0
 10
72.842055
 20
115.584175
 42
-0.043425
  0
VERTEX
  8
0
 10
67.000000
 20
116.147421
 42
-0.020403
  0
VERTEX
  8
0
 10
58.155933
 20
118.159607
 42
-0.011086
  0
VERTEX
  8
0
 10
47.463702
 20
121.311697
 42
-0.010966
  0
VERTEX
  8
0
 10
37.220796
 20
124.829111
 42
-0.027790
  0
VERTEX
  8
0
 10
30.000000
 20
127.952741
 42
-0.018165
  0
VERTEX
  8
0
 10
24.716421
 20
130.840360
 42
-0.024735
  0
VERTEX
  8
0
 10
20.192593
 20
133.842912
 42
-0.023611
  0
VERTEX
  8
0
 10
16.792321
 20
136.607418
 42
-0.172723
  0
VERTEX
  8
0
 10
15.803828
 20
138.421672
 42
0.060771
  0
VERTEX
  8
0
 10
15.584186
 20
139.190704
 42
0.054849
  0
VERTEX
  8
0
 10
15.180605
 20
139.913597
 42
0.058269
  0
VERTEX
  8
0
 10
14.663706
 20
140.485209
 42
0.100513
  0
VERTEX
  8
0
 10
14.108869
 20
140.802049
 42
0.122080
  0
VERTEX
  8
0
 10
13.489448
 20
140.848936
 42
0.287241
  0
VERTEX
  8
0
 10
13.157090
 20
140.553397
 42
0.112337
  0
VERTEX
  8
0
 10
13.112328
 20
139.818223
 42
0.017462
  0
SEQEND
  0
POLYLINE
  8
0
 66
1
 70
1
  0
VERTEX
  8
0
 10
42.991641
 20
121.026328
 42
-0.051521
  0
VERTEX
  8
0
 10
43.618747
 20
120.532833
 42
-0.149070
  0
VERTEX
  8
0
 10
43.883220
 20
120.054598
 42
-0.174276
  0
VERTEX
  8
0
 10
43.815537
 20
119.559594
 42
-0.076253
  0
VERTEX
  8
0
 10
43.418012
 20
119.018012
 42
-0.126417
  0
VERTEX
  8
0
 10
42.821893
 20
118.665607
 42
-0.151625
  0
VERTEX
  8
0
 10
42.172955
 20
118.677653
 42
-0.096921
  0
VERTEX
  8
0
 10
41.425854
 20
119.098257
 42
-0.032321
  0
VERTEX
  8
0
 10
40.521384
 20
119.976371
 42
-0.015495
  0
VERTEX
  8
0
 10
39.657472
 20
120.992566
 42
-0.116623
  0
VERTEX
  8
0
 10
39.389770
 20
121.559151
 42
-0.352226
  0
VERTEX
  8
0
 10
39.546624
 20
121.869387
 42
-0.109501
  0
VERTEX
  8
0
 10
40.095012
 20
121.984687
 42
-0.050959
  0
VERTEX
  8
0
 10
40.740373
 20
121.911628
 42
-0.026246
  0
VERTEX
  8
0
 10
41.525454
 20
121.696853
 42
-0.025788
  0
VERTEX
  8
0
 10
42.317705
 20
121.388582
 42
-0.035297
  0
SEQEND
  0
POLYLINE
  8
0
 66
1
 70
1
  0
VERTEX
  8
0
 10
168.000000
 20
119.571429
 42
-0.127240
  0
VERTEX
  8
0
 10
167.541243
 20
117.797891
 42
-0.114429
  0
VERTEX
  8
0
 10
166.267517
 20
116.386309
 42
-0.121524
  0
VERTEX
  8
0
 10
164.569420
 20
115.733608
 42
-0.155356
  0
VERTEX
  8
0
 10
162.930554
 20
116.037166
 42
-0.058248
  0
VERTEX
  8
0
 10
161.439648
 20
117.074230
 42
-0.271122
  0
VERTEX
  8
0
 10
161.125740
 20
118.030588
 42
-0.215438
  0
VERTEX
  8
0
 10
161.801391
 20
118.944241
 42
-0.039890
  0
VERTEX
  8
0
 10
163.750000
 20
119.837719
 42
-0.008591
  0
VERTEX
  8
0
 10
166.255808
 20
120.704422
 42
-0.094881
  0
VERTEX
  8
0
 10
167.303877
 20
120.837843
 42
-0.282935
  0
VERTEX
  8
0
 10
167.813618
 20
120.478509
 42
-0.101675
  0
SEQEND
  0
POLYLINE
  8
0
 66
1
 70
1
  0
VERTEX
  8
0
 10
53.400000
 20
116.149370
 42
-0.010441
  0
VERTEX
  8
0
 10
53.102187
 20
113.393991
 42
-0.246226
  0
VERTEX
  8
0
 10
52.666845
 20
112.772957
 42
-0.246751
  0
VERTEX
  8
0
 10
51.909051
 20
112.778475
 42
-0.010482
  0
VERTEX
  8
0
 10
49.496805
 20
114.134386
 42
-0.015679
  0
VERTEX
  8
0
 10
46.982188
 20
115.726378
 42
-0.069295
  0
VERTEX
  8
0
 10
45.684178
 20
116.897661
 42
-0.144631
  0
VERTEX
  8
0
 10
45.239724
 20
117.917369
 42
-0.170973
  0
VERTEX
  8
0
 10
45.462948
 20
118.940048
 42
-0.316140
  0
VERTEX
  8
0
 10
46.657082
 20
119.451728
 42
-0.032645
  0
VERTEX
  8
0
 10
49.773507
 20
118.579714
 42
-0.032641
  0
VERTEX
  8
0
 10
52.756023
 20
117.306898
 42
-0.306316
  0
SEQEND
  0
POLYLINE
  8
0
 66
1
 70
1
  0
VERTEX
  8
0
 10
159.505531
 20
116.991051
 42
-0.189387
  0
VERTEX
  8
0
 10
159.801428
 20
115.357869
 42
-0.115094
  0
VERTEX
  8
0
 10
158.982704
 20
113.545418
 42
-0.068273
  0
VERTEX
  8
0
 10
156.940548
 20
111.521152
 42
-0.025294
  0
VERTEX
  8
0
 10
153.578329
 20
109.250000
 42
-0.007364
  0
VERTEX
  8
0
 10
151.447625
 20
108.005065
 42
-0.010152
  0
VERTEX
  8
0
 10
149.496046
 20
106.954688
 42
-0.007116
  0
VERTEX
  8
0
 10
147.844327
 20
106.137952
 42
-0.111708
  0
VERTEX
  8
0
 10
147.234566
 20
106.000000
 42
0.107822
  0
VERTEX
  8
0
 10
146.716145
 20
105.886890
 42
0.020410
  0
VERTEX
  8
0
 10
145.848294
 20
105.445567
 42
0.020946
  0
VERTEX
  8
0
 10
144.859643
 20
104.835133
 42
0.017873
  0
VERTEX
  8
0
 10
143.870235
 20
104.112567
 42
-0.074654
  0
VERTEX
  8
0
 10
140.052575
 20
101.939455
 42
-0.012741
  0
VERTEX
  8
0
 10
132.157881
 20
99.120386
 42
-0.014692
  0
VERTEX
  8
0
 10
123.857031
 20
96.660378
 42
-0.036519
  0
VERTEX
  8
0
 10
117.633985
 20
95.491129
 42
-0.019056
  0
VERTEX
  8
0
 10
110.498183
 20
94.957712
 42
-0.014666
  0
VERTEX
  8
0
 10
102.687675
 20
94.901650
 42
-0.014710
  0
VERTEX
  8
0
 10
95.476794
 20
95.273837
 42
-0.040276
  0
VERTEX
  8
0
 10
90.445521
 20
96.093500
 42
-0.030431
  0
VERTEX
  8
0
 10
81.160472
 20
98.994697
 42
-0.013232
  0
VERTEX
  8
0
 10
69.199819
 20
103.913324
 42
-0.006598
  0
VERTEX
  8
0
 10
57.497711
 20
109.277494
 42
-0.192678
  0
VERTEX
  8
0
 10
55.306716
 20
111.643095
 42
-0.124278
  0
VERTEX
  8
0
 10
55.228429
 20
112.297189
 42
-0.073788
  0
VERTEX
  8
0
 10
55.443203
 20
113.057013
 42
-0.066264
  0
VERTEX
  8
0
 10
55.905800
 20
113.802930
 42
-0.063076
  0
VERTEX
  8
0
 10
56.554319
 20
114.416061
 42
-0.079643
  0
VERTEX
  8
0
 10
57.743297
 20
115.023649
 42
-0.077436
  0
VERTEX
  8
0
 10
59.074368
 20
115.236967
 42
-0.046921
  0
VERTEX
  8
0
 10
60.909167
 20
115.072446
 42
-0.011300
  0
VERTEX
  8
0
 10
63.900469
 20
114.447990
 42
0.054573
  0
VERTEX
  8
0
 10
76.186431
 20
112.974487
 42
0.008874
  0
VERTEX
  8
0
 10
100.244245
 20
113.153014
 42
0.010508
  0
VERTEX
  8
0
 10
125.645754
 20
114.326936
 42
0.019940
  0
VERTEX
  8
0
 10
146.000000
 20
116.514658
 42
-0.003253
  0
VERTEX
  8
0
 10
153.192206
 20
117.531424
 42
-0.024674
  0
VERTEX
  8
0
 10
156.604621
 20
117.820793
 42
-0.057062
  0
VERTEX
  8
0
 10
158.524664
 20
117.669295
 42
-0.209090
  0
SEQEND
  0
POLYLINE
  8
0
 66
1
 70
1
  0
VERTEX
  8
0
 10
51.070285
 20
130.309017
 42
0.042673
  0
VERTEX
  8
0
 10
51.117381
 20
129.425041
 42
0.045307
  0
VERTEX
  8
0
 10
51.314396
 20
128.580088
 42
0.049915
  0
VERTEX
  8
0
 10
51.621061
 20
127.892224
 42
0.125173
  0
VERTEX
  8
0
 10
52.000000
 20
127.500000
 42
0.170953
  0
VERTEX
  8
0
 10
52.600228
 20
127.368962
 42
0.378432
  0
VERTEX
  8
0
 10
52.887087
 20
127.693694
 42
0.086739
  0
VERTEX
  8
0
 10
52.711699
 20
128.697095
 42
0.014943
  0
VERTEX
  8
0
 10
52.000000
 20
130.500000
 42
0.003353
  0
VERTEX
  8
0
 10
51.415950
 20
131.834417
 42
0.352087
  0
VERTEX
  8
0
 10
51.249832
 20
131.919734
 42
0.343362
  0
VERTEX
  8
0
 10
51.126981
 20
131.775846
 42
0.003282
  0
SEQEND
  0
POLYLINE
  8
0
 66
1
 70
1
  0
VERTEX
  8
0
 10
78.441130
 20
127.531803
 42
0.028086
  0
VERTEX
  8
0
 10
77.772149
 20
126.964064
 42
0.083978
  0
VERTEX
  8
0
 10
77.413369
 20
126.485547
 42
0.249981
  0
VERTEX
  8
0
 10
77.417624
 20
126.184402
 42
0.265896
  0
VERTEX
  8
0
 10
77.668213
 20
126.031803
 42
0.064861
  0
VERTEX
  8
0
 10
79.100293
 20
126.178851
 42
0.053775
  0
VERTEX
  8
0
 10
80.546527
 20
126.689314
 42
0.058339
  0
VERTEX
  8
0
 10
81.658369
 20
127.391508
 42
0.226495
  0
VERTEX
  8
0
 10
82.000000
 20
128.106989
 42
0.215978
  0
VERTEX
  8
0
 10
81.710903
 20
128.745043
 42
0.223668
  0
VERTEX
  8
0
 10
81.046911
 20
128.935875
 42
0.093674
  0
VERTEX
  8
0
 10
79.935580
 20
128.533936
 42
0.028438
  0
SEQEND
  0
POLYLINE
  8
0
 66
1
 70
1
  0
VERTEX
  8
0
 10
289.000000
 20
99.673975
 42
0.026687
  0
VERTEX
  8
0
 10
281.934186
 20
95.465492
 42
0.019418
  0
VERTEX
  8
0
 10
274.538137
 20
90.079940
 42
0.015984
  0
VERTEX
  8
0
 10
268.201061
 20
84.740373
 42
0.121027
  0
VERTEX
  8
0
 10
266.016682
 20
81.532147
 42
0.215060
  0
VERTEX
  8
0
 10
266.295173
 20
77.368073
 42
0.032766
  0
VERTEX
  8
0
 10
270.798348
 20
70.120427
 42
0.036522
  0
VERTEX
  8
0
 10
276.716390
 20
63.014976
 42
0.068411
  0
VERTEX
  8
0
 10
282.583318
 20
58.398304
 42
0.000000
  0
VERTEX
  8
0
 10
287.109651
 20
55.745697
 42
0.000000
  0
VERTEX
  8
0
 10
291.304825
 20
57.560475
 42
0.027040
  0
VERTEX
  8
0
 10
296.243964
 20
60.022014
 42
0.155342
  0
VERTEX
  8
0
 10
298.203801
 20
62.142001
 42
0.112950
  0
VERTEX
  8
0
 10
298.894941
 20
65.337597
 42
0.011333
  0
VERTEX
  8
0
 10
298.623078
 20
73.188686
 42
0.008090
  0
VERTEX
  8
0
 10
297.917705
 20
82.773682
 42
0.012908
  0
VERTEX
  8
0
 10
296.971441
 20
90.933331
 42
0.010409
  0
VERTEX
  8
0
 10
295.910523
 20
97.421413
 42
0.128151
  0
VERTEX
  8
0
 10
294.856673
 20
99.672699
 42
0.085848
  0
VERTEX
  8
0
 10
293.772342
 20
100.598687
 42
0.134630
  0
VERTEX
  8
0
 10
292.597353
 20
100.921179
 42
0.093775
  0
VERTEX
  8
0
 10
291.115462
 20
100.641118
 42
0.027516
  0
SEQEND
  0
POLYLINE
  8
0
 66
1
 70
1
  0
VERTEX
  8
0
 10
294.375000
 20
95.875000
 42
-0.026891
  0
VERTEX
  8
0
 10
294.748935
 20
93.289405
 42
-0.018130
  0
VERTEX
  8
0
 10
294.908715
 20
90.311425
 42
-0.037584
  0
VERTEX
  8
0
 10
294.805628
 20
88.529463
 42
-0.792942
  0
VERTEX
  8
0
 10
294.502946
 20
88.500000
 42
-0.027368
  0
VERTEX
  8
0
 10
294.335741
 20
89.098879
 42
-0.004209
  0
VERTEX
  8
0
 10
294.079173
 20
90.307812
 42
-0.004690
  0
VERTEX
  8
0
 10
293.801579
 20
91.740952
 42
-0.004057
  0
VERTEX
  8
0
 10
293.536580
 20
93.250000
 42
0.028353
  0
VERTEX
  8
0
 10
293.173792
 20
94.854164
 42
0.059984
  0
VERTEX
  8
0
 10
292.679374
 20
96.027070
 42
0.087469
  0
VERTEX
  8
0
 10
292.079384
 20
96.749242
 42
0.177596
  0
VERTEX
  8
0
 10
291.395670
 20
97.000000
 42
0.067580
  0
VERTEX
  8
0
 10
290.861063
 20
96.927411
 42
0.141131
  0
VERTEX
  8
0
 10
290.506085
 20
96.709615
 42
0.190743
  0
VERTEX
  8
0
 10
290.383457
 20
96.386874
 42
0.135756
  0
VERTEX
  8
0
 10
290.492921
 20
96.011454
 42
-0.128996
  0
VERTEX
  8
0
 10
290.596607
 20
95.672668
 42
-0.342795
  0
VERTEX
  8
0
 10
290.458724
 20
95.479553
 42
-0.134966
  0
VERTEX
  8
0
 10
290.054003
 20
95.470671
 42
-0.030019
  0
VERTEX
  8
0
 10
289.387893
 20
95.681393
 42
0.021797
  0
VERTEX
  8
0
 10
288.575496
 20
95.953158
 42
0.233523
  0
VERTEX
  8
0
 10
288.243292
 20
95.892848
 42
0.348029
  0
VERTEX
  8
0
 10
288.171809
 20
95.626867
 42
0.036589
  0
VERTEX
  8
0
 10
288.490464
 20
95.015430
 42
-0.018896
  0
VERTEX
  8
0
 10
288.817719
 20
94.438240
 42
-0.250229
  0
VERTEX
  8
0
 10
288.814786
 20
94.201474
 42
-0.394428
  0
VERTEX
  8
0
 10
288.638552
 20
94.143730
 42
-0.029713
  0
VERTEX
  8
0
 10
288.154508
 20
94.404508
 42
0.102388
  0
VERTEX
  8
0
 10
287.689220
 20
94.574094
 42
0.205319
  0
VERTEX
  8
0
 10
287.318136
 20
94.475551
 42
0.164361
  0
VERTEX
  8
0
 10
287.077994
 20
94.109349
 42
0.063738
  0
VERTEX
  8
0
 10
287.000000
 20
93.500000
 42
0.061593
  0
VERTEX
  8
0
 10
287.079090
 20
92.860399
 42
0.181527
  0
VERTEX
  8
0
 10
287.327104
 20
92.501895
 42
0.208263
  0
VERTEX
  8
0
 10
287.722427
 20
92.423489
 42
0.081714
  0
VERTEX
  8
0
 10
288.250000
 20
92.632941
 42
-0.013806
  0
VERTEX
  8
0
 10
288.886856
 20
92.992006
 42
-0.561162
  0
VERTEX
  8
0
 10
288.999546
 20
92.924920
 42
-0.169172
  0
VERTEX
  8
0
 10
288.918191
 20
92.682745
 42
-0.005270
  0
VERTEX
  8
0
 10
288.258676
 20
91.849949
 42
0.052584
  0
VERTEX
  8
0
 10
287.838843
 20
91.202485
 42
0.065281
  0
VERTEX
  8
0
 10
287.599755
 20
90.526204
 42
0.078420
  0
VERTEX
  8
0
 10
287.567910
 20
89.925032
 42
0.159450
  0
VERTEX
  8
0
 10
287.758676
 20
89.497665
 42
-0.054083
  0
VERTEX
  8
0
 10
287.945389
 20
89.240512
 42
-0.543535
  0
VERTEX
  8
0
 10
287.895277
 20
89.143256
 42
-0.140078
  0
VERTEX
  8
0
 10
287.658533
 20
89.186107
 42
-0.016606
  0
VERTEX
  8
0
 10
287.182692
 20
89.440290
 42
0.112745
  0
VERTEX
  8
0
 10
286.577775
 20
89.626936
 42
0.176098
  0
VERTEX
  8
0
 10
286.058655
 20
89.481093
 42
0.126504
  0
VERTEX
  8
0
 10
285.635831
 20
88.975642
 42
0.047328
  0
VERTEX
  8
0
 10
285.316061
 20
88.100616
 42
-0.038497
  0
VERTEX
  8
0
 10
285.038209
 20
87.296605
 42
-0.050097
  0
VERTEX
  8
0
 10
284.658276
 20
86.617056
 42
-0.059484
  0
VERTEX
  8
0
 10
284.239634
 20
86.148065
 42
-0.182804
  0
VERTEX
  8
0
 10
283.848185
 20
86.000000
 42
-0.493564
  0
VERTEX
  8
0
 10
283.489334
 20
86.468316
 42
-0.039403
  0
VERTEX
  8
0
 10
284.096346
 20
88.173938
 42
-0.037384
  0
VERTEX
  8
0
 10
285.081901
 20
89.997827
 42
-0.104692
  0
VERTEX
  8
0
 10
286.096918
 20
91.026393
 42
0.175096
  0
VERTEX
  8
0
 10
286.330400
 20
91.339517
 42
0.090529
  0
VERTEX
  8
0
 10
286.386413
 20
91.831030
 42
0.071629
  0
VERTEX
  8
0
 10
286.260032
 20
92.423661
 42
0.052743
  0
VERTEX
  8
0
 10
285.962526
 20
93.026393
 42
0.018596
  0
VERTEX
  8
0
 10
285.453717
 20
93.768385
 42
0.374398
  0
VERTEX
  8
0
 10
285.206369
 20
93.822668
 42
0.257079
  0
VERTEX
  8
0
 10
285.042156
 20
93.564824
 42
0.012129
  0
VERTEX
  8
0
 10
285.000000
 20
92.500000
 42
-0.022049
  0
VERTEX
  8
0
 10
284.949888
 20
91.657380
 42
-0.173733
  0
VERTEX
  8
0
 10
284.783080
 20
91.309866
 42
-0.401093
  0
VERTEX
  8
0
 10
284.537513
 20
91.305852
 42
-0.064618
  0
VERTEX
  8
0
 10
284.200323
 20
91.710111
 42
0.131419
  0
VERTEX
  8
0
 10
283.765155
 20
92.110121
 42
0.233661
  0
VERTEX
  8
0
 10
283.289378
 20
92.121019
 42
0.117586
  0
VERTEX
  8
0
 10
282.738132
 20
91.684040
 42
0.027371
  0
VERTEX
  8
0
 10
282.054980
 20
90.710111
 42
0.002055
  0
VERTEX
  8
0
 10
281.146660
 20
89.238040
 42
0.291612
  0
VERTEX
  8
0
 10
281.150322
 20
89.042715
 42
0.439277
  0
VERTEX
  8
0
 10
281.303910
 20
89.018439
 42
0.002704
  0
VERTEX
  8
0
 10
282.526575
 20
90.000000
 42
-0.005347
  0
VERTEX
  8
0
 10
283.693421
 20
90.926650
 42
-0.282083
  0
VERTEX
  8
0
 10
283.966115
 20
90.956931
 42
-0.386639
  0
VERTEX
  8
0
 10
284.055976
 20
90.740563
 42
-0.007324
  0
VERTEX
  8
0
 10
283.590611
 20
89.500000
 42
0.008031
  0
VERTEX
  8
0
 10
283.277213
 20
88.660939
 42
0.007521
  0
VERTEX
  8
0
 10
282.983701
 20
87.793750
 42
0.007513
  0
VERTEX
  8
0
 10
282.746398
 20
87.016421
 42
0.025436
  0
VERTEX
  8
0
 10
282.625260
 20
86.500000
 42
-0.031470
  0
VERTEX
  8
0
 10
282.512729
 20
86.045016
 42
-0.016946
  0
VERTEX
  8
0
 10
282.320383
 20
85.500000
 42
-0.016815
  0
VERTEX
  8
0
 10
282.085900
 20
84.955726
 42
-0.025283
  0
VERTEX
  8
0
 10
281.842253
 20
84.500000
 42
0.092715
  0
VERTEX
  8
0
 10
281.630426
 20
83.931421
 42
0.024499
  0
VERTEX
  8
0
 10
281.511177
 20
82.964724
 42
0.023994
  0
VERTEX
  8
0
 10
281.481969
 20
81.831581
 42
0.022599
  0
VERTEX
  8
0
 10
281.559854
 20
80.677782
 42
-0.012833
  0
VERTEX
  8
0
 10
281.690769
 20
79.175533
 42
-0.157589
  0
VERTEX
  8
0
 10
281.549430
 20
78.625094
 42
-0.391940
  0
VERTEX
  8
0
 10
281.199148
 20
78.531999
 42
-0.051398
  0
VERTEX
  8
0
 10
280.499152
 20
79.000704
 42
0.021452
  0
VERTEX
  8
0
 10
279.778358
 20
79.548458
 42
0.559119
  0
VERTEX
  8
0
 10
279.594558
 20
79.467982
 42
0.140401
  0
VERTEX
  8
0
 10
279.653074
 20
79.054301
 42
0.005359
  0
VERTEX
  8
0
 10
280.307798
 20
77.627526
 42
0.008054
  0
VERTEX
  8
0
 10
281.070981
 20
76.075622
 42
0.204415
  0
VERTEX
  8
0
 10
281.425872
 20
75.780100
 42
0.373465
  0
VERTEX
  8
0
 10
281.747245
 20
75.925064
 42
0.019474
  0
VERTEX
  8
0
 10
282.216315
 20
77.055718
 42
0.045944
  0
VERTEX
  8
0
 10
282.450948
 20
77.928968
 42
0.032026
  0
VERTEX
  8
0
 10
282.559618
 20
78.944176
 42
0.032422
  0
VERTEX
  8
0
 10
282.537488
 20
79.940204
 42
0.056099
  0
VERTEX
  8
0
 10
282.373856
 20
80.751114
 42
-0.004279
  0
VERTEX
  8
0
 10
282.053682
 20
81.776567
 42
-0.377031
  0
VERTEX
  8
0
 10
282.115209
 20
81.911786
 42
-0.347467
  0
VERTEX
  8
0
 10
282.266035
 20
81.873890
 42
-0.004053
  0
VERTEX
  8
0
 10
282.927202
 20
81.000000
 42
0.022495
  0
VERTEX
  8
0
 10
283.508360
 20
80.288021
 42
0.496819
  0
VERTEX
  8
0
 10
283.738637
 20
80.306706
 42
0.176721
  0
VERTEX
  8
0
 10
283.824431
 20
80.694359
 42
0.007767
  0
VERTEX
  8
0
 10
283.617978
 20
82.083333
 42
-0.034450
  0
VERTEX
  8
0
 10
283.510348
 20
83.222300
 42
-0.093379
  0
VERTEX
  8
0
 10
283.639762
 20
84.019805
 42
-0.152419
  0
VERTEX
  8
0
 10
283.996016
 20
84.488826
 42
-0.155918
  0
VERTEX
  8
0
 10
284.552455
 20
84.666667
 42
-0.087028
  0
VERTEX
  8
0
 10
285.020197
 20
84.584632
 42
-0.167294
  0
VERTEX
  8
0
 10
285.313023
 20
84.348438
 42
-0.180004
  0
VERTEX
  8
0
 10
285.386006
 20
83.996240
 42
-0.102454
  0
VERTEX
  8
0
 10
285.232442
 20
83.583333
 42
0.028806
  0
VERTEX
  8
0
 10
284.964219
 20
83.095441
 42
0.020820
  0
VERTEX
  8
0
 10
284.720509
 20
82.524479
 42
0.021135
  0
VERTEX
  8
0
 10
284.533948
 20
81.960628
 42
0.042233
  0
VERTEX
  8
0
 10
284.443996
 20
81.500000
 42
-0.030214
  0
VERTEX
  8
0
 10
284.008020
 20
78.942509
 42
-0.030135
  0
VERTEX
  8
0
 10
283.266723
 20
76.453906
 42
-0.025645
  0
VERTEX
  8
0
 10
282.413322
 20
74.441246
 42
-0.287143
  0
VERTEX
  8
0
 10
281.708333
 20
74.000000
 42
0.060426
  0
VERTEX
  8
0
 10
281.351705
 20
73.956743
 42
0.180889
  0
VERTEX
  8
0
 10
281.152201
 20
73.820455
 42
0.249339
  0
VERTEX
  8
0
 10
281.127225
 20
73.621456
 42
0.105778
  0
VERTEX
  8
0
 10
281.277884
 20
73.388783
 42
-0.331516
  0
VERTEX
  8
0
 10
281.334759
 20
72.999761
 42
-0.038928
  0
VERTEX
  8
0
 10
280.829698
 20
72.216758
 42
-0.034407
  0
VERTEX
  8
0
 10
279.997977
 20
71.267461
 42
-0.020760
  0
VERTEX
  8
0
 10
278.893837
 20
70.257216
 42
0.012235
  0
VERTEX
  8
0
 10
277.025796
 20
68.605637
 42
0.144441
  0
VERTEX
  8
0
 10
276.536762
 20
67.781333
 42
0.207855
  0
VERTEX
  8
0
 10
276.670102
 20
66.961935
 42
0.029465
  0
VERTEX
  8
0
 10
277.699286
 20
65.550679
 42
-0.143226
  0
VERTEX
  8
0
 10
277.773442
 20
65.377459
 42
-0.705290
  0
VERTEX
  8
0
 10
277.715242
 20
65.348462
 42
-0.010585
  0
VERTEX
  8
0
 10
276.770103
 20
66.297512
 42
-0.002464
  0
VERTEX
  8
0
 10
275.224941
 20
67.932245
 42
-0.019027
  0
VERTEX
  8
0
 10
273.502047
 20
69.919515
 42
-0.016836
  0
VERTEX
  8
0
 10
271.860281
 20
72.112910
 42
-0.017151
  0
VERTEX
  8
0
 10
270.515761
 20
74.189566
 42
-0.048322
  0
VERTEX
  8
0
 10
269.774053
 20
75.750000
 42
0.021242
  0
VERTEX
  8
0
 10
269.262875
 20
76.994921
 42
0.030463
  0
VERTEX
  8
0
 10
268.698549
 20
78.045312
 42
0.030765
  0
VERTEX
  8
0
 10
268.156638
 20
78.811783
 42
0.227261
  0
VERTEX
  8
0
 10
267.763928
 20
79.000000
 42
-0.616627
  0
VERTEX
  8
0
 10
267.207204
 20
80.107800
 42
-0.029146
  0
VERTEX
  8
0
 10
270.661965
 20
84.228615
 42
-0.027161
  0
VERTEX
  8
0
 10
275.560868
 20
88.889536
 42
-0.039225
  0
VERTEX
  8
0
 10
280.397397
 20
92.399588
 42
-0.009316
  0
VERTEX
  8
0
 10
284.122793
 20
94.586125
 42
-0.007612
  0
VERTEX
  8
0
 10
288.185035
 20
96.789003
 42
-0.003517
  0
VERTEX
  8
0
 10
292.025170
 20
98.762134
 42
-0.117437
  0
VERTEX
  8
0
 10
293.023939
 20
99.000000
 42
-0.263863
  0
VERTEX
  8
0
 10
293.342613
 20
98.819243
 42
-0.032710
  0
VERTEX
  8
0
 10
293.720313
 20
98.082031
 42
-0.031702
  0
VERTEX
  8
0
 10
294.082815
 20
97.072337
 42
-0.020981
  0
SEQEND
  0
POLYLINE
  8
0
 66
1
 70
1
  0
VERTEX
  8
0
 10
179.569784
 20
89.505816
 42
0.036252
  0
VERTEX
  8
0
 10
178.947815
 20
87.905053
 42
0.025951
  0
VERTEX
  8
0
 10
178.479484
 20
86.041649
 42
0.026356
  0
VERTEX
  8
0
 10
178.218305
 20
84.210052
 42
0.049836
  0
VERTEX
  8
0
 10
178.234173
 20
82.720059
 42
0.000000
  0
VERTEX
  8
0
 10
178.590598
 20
79.500000
 42
0.000000
  0
VERTEX
  8
0
 10
179.329982
 20
82.500000
 42
-0.005722
  0
VERTEX
  8
0
 10
179.688873
 20
83.887631
 42
-0.003054
  0
VERTEX
  8
0
 10
180.162700
 20
85.595430
 42
-0.003039
  0
VERTEX
  8
0
 10
180.667877
 20
87.333713
 42
-0.004733
  0
VERTEX
  8
0
 10
181.126483
 20
88.824867
 42
0.013180
  0
VERTEX
  8
0
 10
181.994902
 20
91.828177
 42
0.368875
  0
VERTEX
  8
0
 10
181.665040
 20
92.508155
 42
0.389676
  0
VERTEX
  8
0
 10
180.974210
 20
92.270913
 42
0.013447
  0
SEQEND
  0
POLYLINE
  8
0
 66
1
 70
1
  0
VERTEX
  8
0
 10
208.766980
 20
86.316852
 42
0.036344
  0
VERTEX
  8
0
 10
205.355832
 20
84.079211
 42
0.121655
  0
VERTEX
  8
0
 10
203.695744
 20
82.007134
 42
0.166127
  0
VERTEX
  8
0
 10
203.465026
 20
79.798581
 42
0.085364
  0
VERTEX
  8
0
 10
204.549419
 20
77.201037
 42
0.041752
  0
VERTEX
  8
0
 10
207.867878
 20
72.828969
 42
0.103567
  0
VERTEX
  8
0
 10
211.095857
 20
70.467002
 42
0.145845
  0
VERTEX
  8
0
 10
214.281448
 20
70.032205
 42
0.119913
  0
VERTEX
  8
0
 10
217.465229
 20
71.350916
 42
0.076928
  0
VERTEX
  8
0
 10
218.366992
 20
72.251826
 42
0.106506
  0
VERTEX
  8
0
 10
218.831823
 20
73.292410
 42
0.069926
  0
VERTEX
  8
0
 10
218.931455
 20
74.749500
 42
0.017978
  0
VERTEX
  8
0
 10
218.678158
 20
77.100916
 42
0.015938
  0
VERTEX
  8
0
 10
217.838345
 20
81.847075
 42
0.029014
  0
VERTEX
  8
0
 10
216.807409
 20
85.645618
 42
0.030646
  0
VERTEX
  8
0
 10
215.712373
 20
88.353341
 42
0.294453
  0
VERTEX
  8
0
 10
214.702996
 20
88.975674
 42
0.090233
  0
VERTEX
  8
0
 10
213.988374
 20
88.830667
 42
0.010236
  0
VERTEX
  8
0
 10
212.463055
 20
88.184611
 42
0.012120
  0
VERTEX
  8
0
 10
210.667399
 20
87.327472
 42
0.009580
  0
SEQEND
  0
POLYLINE
  8
0
 66
1
 70
1
  0
VERTEX
  8
0
 10
215.917136
 20
81.950779
 42
-0.004924
  0
VERTEX
  8
0
 10
216.331745
 20
79.920202
 42
-0.005845
  0
VERTEX
  8
0
 10
216.681909
 20
77.994568
 42
-0.005122
  0
VERTEX
  8
0
 10
216.941393
 20
76.365375
 42
-0.036942
  0
VERTEX
  8
0
 10
217.000000
 20
75.573224
 42
-0.151570
  0
VERTEX
  8
0
 10
216.542018
 20
74.097140
 42
-0.109520
  0
VERTEX
  8
0
 10
215.274322
 20
72.913967
 42
-0.098035
  0
VERTEX
  8
0
 10
213.489588
 20
72.288039
 42
-0.097247
  0
VERTEX
  8
0
 10
211.595583
 20
72.386654
 42
-0.135425
  0
VERTEX
  8
0
 10
209.443639
 20
73.604863
 42
-0.046177
  0
VERTEX
  8
0
 10
207.126455
 20
76.388654
 42
-0.045209
  0
VERTEX
  8
0
 10
205.407733
 20
79.450298
 42
-0.199480
  0
VERTEX
  8
0
 10
205.352260
 20
81.475591
 42
-0.148882
  0
VERTEX
  8
0
 10
206.258945
 20
82.639028
 42
-0.014246
  0
VERTEX
  8
0
 10
209.291873
 20
84.646599
 42
-0.016266
  0
VERTEX
  8
0
 10
212.430027
 20
86.458813
 42
-0.106655
  0
VERTEX
  8
0
 10
214.167136
 20
86.955804
 42
-0.321670
  0
VERTEX
  8
0
 10
214.476083
 20
86.763705
 42
-0.013930
  0
VERTEX
  8
0
 10
214.956392
 20
85.503809
 42
-0.019264
  0
VERTEX
  8
0
 10
215.453902
 20
83.883099
 42
-0.012014
  0
SEQEND
  0
POLYLINE
  8
0
 66
1
 70
1
  0
VERTEX
  8
0
 10
173.158288
 20
46.133980
 42
0.011099
  0
VERTEX
  8
0
 10
172.304413
 20
43.035433
 42
0.054208
  0
VERTEX
  8
0
 10
172.053868
 20
41.236599
 42
0.224056
  0
VERTEX
  8
0
 10
172.354847
 20
40.545525
 42
0.329390
  0
VERTEX
  8
0
 10
172.988546
 20
40.492921
 42
-0.092325
  0
VERTEX
  8
0
 10
173.326280
 20
40.623700
 42
-0.299454
  0
VERTEX
  8
0
 10
173.537388
 20
40.535291
 42
-0.193534
  0
VERTEX
  8
0
 10
173.598434
 20
40.248810
 42
-0.048541
  0
VERTEX
  8
0
 10
173.468775
 20
39.779224
 42
0.299471
  0
VERTEX
  8
0
 10
173.771746
 20
38.395392
 42
0.058002
  0
VERTEX
  8
0
 10
175.901423
 20
36.751244
 42
0.055909
  0
VERTEX
  8
0
 10
178.504588
 20
35.557789
 42
0.172835
  0
VERTEX
  8
0
 10
180.409774
 20
35.603751
 42
0.045604
  0
VERTEX
  8
0
 10
181.018150
 20
35.903318
 42
0.052195
  0
VERTEX
  8
0
 10
181.532871
 20
36.297045
 42
0.059609
  0
VERTEX
  8
0
 10
181.885705
 20
36.720709
 42
0.144839
  0
VERTEX
  8
0
 10
182.000000
 20
37.106989
 42
-0.150776
  0
VERTEX
  8
0
 10
182.098769
 20
37.427077
 42
-0.124917
  0
VERTEX
  8
0
 10
182.367188
 20
37.664240
 42
-0.099939
  0
VERTEX
  8
0
 10
182.772116
 20
37.778880
 42
-0.068625
  0
VERTEX
  8
0
 10
183.250000
 20
37.750000
 42
0.117424
  0
VERTEX
  8
0
 10
183.701784
 20
37.766444
 42
0.156677
  0
VERTEX
  8
0
 10
184.042800
 20
37.990349
 42
0.138800
  0
VERTEX
  8
0
 10
184.215906
 20
38.396221
 42
0.085191
  0
VERTEX
  8
0
 10
184.193576
 20
38.919273
 42
-0.032385
  0
VERTEX
  8
0
 10
184.091206
 20
39.606412
 42
-0.377645
  0
VERTEX
  8
0
 10
184.240514
 20
39.807354
 42
-0.213409
  0
VERTEX
  8
0
 10
184.565786
 20
39.737711
 42
-0.015324
  0
VERTEX
  8
0
 10
185.310897
 20
39.156941
 42
0.174289
  0
VERTEX
  8
0
 10
186.588967
 20
38.693864
 42
0.199357
  0
VERTEX
  8
0
 10
187.783738
 20
39.186451
 42
0.143924
  0
VERTEX
  8
0
 10
188.545814
 20
40.580411
 42
0.090281
  0
VERTEX
  8
0
 10
188.610084
 20
42.450910
 42
0.157324
  0
VERTEX
  8
0
 10
188.001838
 20
43.685336
 42
0.110991
  0
VERTEX
  8
0
 10
186.698557
 20
44.538848
 42
0.176035
  0
VERTEX
  8
0
 10
185.528587
 20
44.550819
 42
0.318269
  0
VERTEX
  8
0
 10
185.000000
 20
43.804527
 42
0.165030
  0
VERTEX
  8
0
 10
185.116104
 20
43.462342
 42
0.151093
  0
VERTEX
  8
0
 10
185.420496
 20
43.246567
 42
0.108921
  0
VERTEX
  8
0
 10
185.883660
 20
43.200213
 42
0.062374
  0
VERTEX
  8
0
 10
186.431474
 20
43.335331
 42
-0.082782
  0
VERTEX
  8
0
 10
187.063854
 20
43.464323
 42
-0.258858
  0
VERTEX
  8
0
 10
187.437404
 20
43.274307
 42
-0.163634
  0
VERTEX
  8
0
 10
187.580038
 20
42.757411
 42
-0.033789
  0
VERTEX
  8
0
 10
187.462834
 20
41.807013
 42
-0.023928
  0
VERTEX
  8
0
 10
187.258854
 20
40.966567
 42
-0.024753
  0
VERTEX
  8
0
 10
186.977363
 20
40.159123
 42
-0.025440
  0
VERTEX
  8
0
 10
186.664857
 20
39.488038
 42
-0.089455
  0
VERTEX
  8
0
 10
186.372030
 20
39.114693
 42
-0.277789
  0
VERTEX
  8
0
 10
186.185537
 20
39.079729
 42
-0.308831
  0
VERTEX
  8
0
 10
186.081240
 20
39.227335
 42
-0.070321
  0
VERTEX
  8
0
 10
186.138176
 20
39.682827
 42
-0.020271
  0
VERTEX
  8
0
 10
186.352011
 20
40.361341
 42
0.027878
  0
VERTEX
  8
0
 10
186.619166
 20
41.256284
 42
0.204474
  0
VERTEX
  8
0
 10
186.545654
 20
41.687031
 42
0.297996
  0
VERTEX
  8
0
 10
186.215863
 20
41.833967
 42
0.051625
  0
VERTEX
  8
0
 10
185.523337
 20
41.647329
 42
-0.037826
  0
VERTEX
  8
0
 10
184.955612
 20
41.477423
 42
-0.078761
  0
VERTEX
  8
0
 10
184.495687
 20
41.450727
 42
-0.145383
  0
VERTEX
  8
0
 10
184.217070
 20
41.564591
 42
-0.266571
  0
VERTEX
  8
0
 10
184.130417
 20
41.785988
 42
0.047406
  0
VERTEX
  8
0
 10
184.246812
 20
43.970906
 42
0.104421
  0
VERTEX
  8
0
 10
183.835787
 20
45.583246
 42
0.131731
  0
VERTEX
  8
0
 10
182.892100
 20
46.659963
 42
0.100413
  0
VERTEX
  8
0
 10
181.435444
 20
47.257092
 42
0.030086
  0
VERTEX
  8
0
 10
179.916915
 20
47.453659
 42
0.257812
  0
VERTEX
  8
0
 10
179.317739
 20
47.174458
 42
0.178729
  0
VERTEX
  8
0
 10
179.107400
 20
46.432886
 42
0.014154
  0
VERTEX
  8
0
 10
179.326640
 20
44.365441
 42
-0.030658
  0
VERTEX
  8
0
 10
179.424327
 20
43.023340
 42
-0.039216
  0
VERTEX
  8
0
 10
179.341339
 20
41.787132
 42
-0.043557
  0
VERTEX
  8
0
 10
179.109999
 20
40.810035
 42
-0.176211
  0
VERTEX
  8
0
 10
178.736687
 20
40.337264
 42
-0.042106
  0
VERTEX
  8
0
 10
178.367187
 20
40.149844
 42
-0.322923
  0
VERTEX
  8
0
 10
178.188957
 20
40.193357
 42
-0.285454
  0
VERTEX
  8
0
 10
178.159519
 20
40.387449
 42
-0.037011
  0
VERTEX
  8
0
 10
178.361803
 20
40.776393
 42
0.084139
  0
VERTEX
  8
0
 10
178.547733
 20
41.234318
 42
0.093141
  0
VERTEX
  8
0
 10
178.563034
 20
41.711401
 42
0.100498
  0
VERTEX
  8
0
 10
178.407188
 20
42.133087
 42
0.116242
  0
VERTEX
  8
0
 10
178.104840
 20
42.435205
 42
-0.155217
  0
VERTEX
  8
0
 10
177.766909
 20
42.828964
 42
-0.048488
  0
VERTEX
  8
0
 10
177.530853
 20
43.580425
 42
-0.043171
  0
VERTEX
  8
0
 10
177.416198
 20
44.521939
 42
-0.036072
  0
VERTEX
  8
0
 10
177.453685
 20
45.528624
 42
0.039580
  0
VERTEX
  8
0
 10
177.484237
 20
46.539439
 42
0.045715
  0
VERTEX
  8
0
 10
177.349527
 20
47.493504
 42
0.051443
  0
VERTEX
  8
0
 10
177.083057
 20
48.260360
 42
0.146024
  0
VERTEX
  8
0
 10
176.710648
 20
48.678829
 42
0.047115
  0
VERTEX
  8
0
 10
176.349547
 20
48.857473
 42
0.367175
  0
VERTEX
  8
0
 10
176.185565
 20
48.799737
 42
0.244508
  0
VERTEX
  8
0
 10
176.174947
 20
48.582669
 42
0.030720
  0
VERTEX
  8
0
 10
176.404508
 20
48.154508
 42
-0.064420
  0
VERTEX
  8
0
 10
176.604561
 20
47.712381
 42
-0.136024
  0
VERTEX
  8
0
 10
176.614216
 20
47.339137
 42
-0.191461
  0
VERTEX
  8
0
 10
176.438310
 20
47.094229
 42
-0.143366
  0
VERTEX
  8
0
 10
176.116435
 20
47.000000
 42
0.216061
  0
VERTEX
  8
0
 10
175.765661
 20
46.841001
 42
0.107081
  0
VERTEX
  8
0
 10
175.523708
 20
46.404654
 42
0.074768
  0
VERTEX
  8
0
 10
175.428907
 20
45.749406
 42
0.046202
  0
VERTEX
  8
0
 10
175.505144
 20
44.973290
 42
-0.034473
  0
VERTEX
  8
0
 10
175.595677
 20
44.230812
 42
-0.089389
  0
VERTEX
  8
0
 10
175.528246
 20
43.698013
 42
-0.208513
  0
VERTEX
  8
0
 10
175.323371
 20
43.462210
 42
-0.254784
  0
VERTEX
  8
0
 10
175.035696
 20
43.477938
 42
-0.187454
  0
VERTEX
  8
0
 10
174.734178
 20
43.877366
 42
-0.041654
  0
VERTEX
  8
0
 10
174.567165
 20
44.733095
 42
-0.037788
  0
VERTEX
  8
0
 10
174.530291
 20
45.818875
 42
-0.028689
  0
VERTEX
  8
0
 10
174.648013
 20
47.004649
 42
0.011559
  0
VERTEX
  8
0
 10
175.002236
 20
49.648253
 42
0.616476
  0
VERTEX
  8
0
 10
174.667862
 20
49.865410
 42
0.182428
  0
VERTEX
  8
0
 10
174.123619
 20
49.193771
 42
0.007255
  0
SEQEND
  0
POLYLINE
  8
0
 66
1
 70
1
  0
VERTEX
  8
0
 10
183.000000
 20
45.392350
 42
-0.242453
  0
VERTEX
  8
0
 10
182.730670
 20
44.869573
 42
-0.095999
  0
VERTEX
  8
0
 10
181.973487
 20
44.524204
 42
-0.093664
  0
VERTEX
  8
0
 10
181.127513
 20
44.482091
 42
-0.223667
  0
VERTEX
  8
0
 10
180.613087
 20
44.817021
 42
-0.158515
  0
VERTEX
  8
0
 10
180.534562
 20
45.139071
 42
-0.191218
  0
VERTEX
  8
0
 10
180.669932
 20
45.417083
 42
-0.126631
  0
VERTEX
  8
0
 10
181.024148
 20
45.605052
 42
-0.059057
  0
VERTEX
  8
0
 10
181.543989
 20
45.666667
 42
-0.017729
  0
VERTEX
  8
0
 10
182.102116
 20
45.646870
 42
-0.028836
  0
VERTEX
  8
0
 10
182.572297
 20
45.586086
 42
-0.028590
  0
VERTEX
  8
0
 10
182.921037
 20
45.499492
 42
-0.328686
  0
SEQEND
  0
POLYLINE
  8
0
 66
1
 70
1
  0
VERTEX
  8
0
 10
123.500000
 20
229.000000
 42
0.082592
  0
VERTEX
  8
0
 10
123.343488
 20
228.617900
 42
0.161196
  0
VERTEX
  8
0
 10
123.374600
 20
228.293750
 42
0.182303
  0
VERTEX
  8
0
 10
123.586039
 20
228.078288
 42
0.108972
  0
VERTEX
  8
0
 10
123.940983
 20
228.000000
 42
0.093332
  0
VERTEX
  8
0
 10
124.345238
 20
228.076123
 42
0.096420
  0
VERTEX
  8
0
 10
124.688914
 20
228.293750
 42
0.099167
  0
VERTEX
  8
0
 10
124.918938
 20
228.618444
 42
0.105053
  0
VERTEX
  8
0
 10
125.000000
 20
229.000000
 42
0.042167
  0
VERTEX
  8
0
 10
124.967655
 20
229.382849
 42
0.061769
  0
VERTEX
  8
0
 10
124.870461
 20
229.706250
 42
0.081139
  0
VERTEX
  8
0
 10
124.727648
 20
229.925540
 42
0.210953
  0
VERTEX
  8
0
 10
124.559017
 20
230.000000
 42
0.151918
  0
VERTEX
  8
0
 10
124.348290
 20
229.934461
 42
0.038439
  0
VERTEX
  8
0
 10
124.066025
 20
229.706250
 42
0.035638
  0
VERTEX
  8
0
 10
123.768994
 20
229.382774
 42
0.029505
  0
SEQEND
  0
POLYLINE
  8
0
 66
1
 70
1
  0
VERTEX
  8
0
 10
161.000000
 20
171.622445
 42
0.184603
  0
VERTEX
  8
0
 10
161.081150
 20
171.410139
 42
0.013803
  0
VERTEX
  8
0
 10
161.514062
 20
170.952641
 42
0.017649
  0
VERTEX
  8
0
 10
162.079598
 20
170.425681
 42
0.012436
  0
VERTEX
  8
0
 10
162.750000
 20
169.872445
 42
0.001576
  0
VERTEX
  8
0
 10
163.879507
 20
168.992360
 42
0.377591
  0
VERTEX
  8
0
 10
164.000000
 20
169.000000
 42
0.377591
  0
VERTEX
  8
0
 10
164.007640
 20
169.120493
 42
0.001576
  0
VERTEX
  8
0
 10
163.127555
 20
170.250000
 42
0.017685
  0
VERTEX
  8
0
 10
162.236680
 20
171.306759
 42
0.065617
  0
VERTEX
  8
0
 10
161.573889
 20
171.869516
 42
0.241985
  0
VERTEX
  8
0
 10
161.193395
 20
171.906950
 42
0.307699
  0
SEQEND
  0
ENDSEC
  0
EOF
